<?xml version="1.0" encoding="utf-8" standalone="no"?>
<!DOCTYPE svg PUBLIC "-//W3C//DTD SVG 1.1//EN"
  "http://www.w3.org/Graphics/SVG/1.1/DTD/svg11.dtd">
<svg xmlns:xlink="http://www.w3.org/1999/xlink" width="576pt" height="288pt" viewBox="0 0 576 288" xmlns="http://www.w3.org/2000/svg" version="1.1">
 <metadata>
  <rdf:RDF xmlns:dc="http://purl.org/dc/elements/1.1/" xmlns:cc="http://creativecommons.org/ns#" xmlns:rdf="http://www.w3.org/1999/02/22-rdf-syntax-ns#">
   <cc:Work>
    <dc:type rdf:resource="http://purl.org/dc/dcmitype/StillImage"/>
    <dc:date>2025-08-15T16:50:12.338287</dc:date>
    <dc:format>image/svg+xml</dc:format>
    <dc:creator>
     <cc:Agent>
      <dc:title>Matplotlib v3.9.4, https://matplotlib.org/</dc:title>
     </cc:Agent>
    </dc:creator>
   </cc:Work>
  </rdf:RDF>
 </metadata>
 <defs>
  <style type="text/css">*{stroke-linejoin: round; stroke-linecap: butt}</style>
 </defs>
 <g id="figure_1">
  <g id="patch_1">
   <path d="M 0 288 
L 576 288 
L 576 0 
L 0 0 
z
" style="fill: #ffffff"/>
  </g>
  <g id="axes_1">
   <g id="patch_2">
    <path d="M 57.17 246.04 
L 565.2 246.04 
L 565.2 26.88 
L 57.17 26.88 
z
" style="fill: #ffffff"/>
   </g>
   <g id="matplotlib.axis_1">
    <g id="xtick_1">
     <g id="line2d_1">
      <defs>
       <path id="m9f80a9248d" d="M 0 0 
L 0 3.5 
" style="stroke: #000000; stroke-width: 0.8"/>
      </defs>
      <g>
       <use xlink:href="#m9f80a9248d" x="120.998641" y="246.04" style="stroke: #000000; stroke-width: 0.8"/>
      </g>
     </g>
     <g id="text_1">
      <!-- 2021 -->
      <g transform="translate(108.273641 260.638438) scale(0.1 -0.1)">
       <defs>
        <path id="DejaVuSans-32" d="M 1228 531 
L 3431 531 
L 3431 0 
L 469 0 
L 469 531 
Q 828 903 1448 1529 
Q 2069 2156 2228 2338 
Q 2531 2678 2651 2914 
Q 2772 3150 2772 3378 
Q 2772 3750 2511 3984 
Q 2250 4219 1831 4219 
Q 1534 4219 1204 4116 
Q 875 4013 500 3803 
L 500 4441 
Q 881 4594 1212 4672 
Q 1544 4750 1819 4750 
Q 2544 4750 2975 4387 
Q 3406 4025 3406 3419 
Q 3406 3131 3298 2873 
Q 3191 2616 2906 2266 
Q 2828 2175 2409 1742 
Q 1991 1309 1228 531 
z
" transform="scale(0.015625)"/>
        <path id="DejaVuSans-30" d="M 2034 4250 
Q 1547 4250 1301 3770 
Q 1056 3291 1056 2328 
Q 1056 1369 1301 889 
Q 1547 409 2034 409 
Q 2525 409 2770 889 
Q 3016 1369 3016 2328 
Q 3016 3291 2770 3770 
Q 2525 4250 2034 4250 
z
M 2034 4750 
Q 2819 4750 3233 4129 
Q 3647 3509 3647 2328 
Q 3647 1150 3233 529 
Q 2819 -91 2034 -91 
Q 1250 -91 836 529 
Q 422 1150 422 2328 
Q 422 3509 836 4129 
Q 1250 4750 2034 4750 
z
" transform="scale(0.015625)"/>
        <path id="DejaVuSans-31" d="M 794 531 
L 1825 531 
L 1825 4091 
L 703 3866 
L 703 4441 
L 1819 4666 
L 2450 4666 
L 2450 531 
L 3481 531 
L 3481 0 
L 794 0 
L 794 531 
z
" transform="scale(0.015625)"/>
       </defs>
       <use xlink:href="#DejaVuSans-32"/>
       <use xlink:href="#DejaVuSans-30" x="63.623047"/>
       <use xlink:href="#DejaVuSans-32" x="127.246094"/>
       <use xlink:href="#DejaVuSans-31" x="190.869141"/>
      </g>
     </g>
    </g>
    <g id="xtick_2">
     <g id="line2d_2">
      <g>
       <use xlink:href="#m9f80a9248d" x="212.218117" y="246.04" style="stroke: #000000; stroke-width: 0.8"/>
      </g>
     </g>
     <g id="text_2">
      <!-- 2022 -->
      <g transform="translate(199.493117 260.638438) scale(0.1 -0.1)">
       <use xlink:href="#DejaVuSans-32"/>
       <use xlink:href="#DejaVuSans-30" x="63.623047"/>
       <use xlink:href="#DejaVuSans-32" x="127.246094"/>
       <use xlink:href="#DejaVuSans-32" x="190.869141"/>
      </g>
     </g>
    </g>
    <g id="xtick_3">
     <g id="line2d_3">
      <g>
       <use xlink:href="#m9f80a9248d" x="303.437592" y="246.04" style="stroke: #000000; stroke-width: 0.8"/>
      </g>
     </g>
     <g id="text_3">
      <!-- 2023 -->
      <g transform="translate(290.712592 260.638438) scale(0.1 -0.1)">
       <defs>
        <path id="DejaVuSans-33" d="M 2597 2516 
Q 3050 2419 3304 2112 
Q 3559 1806 3559 1356 
Q 3559 666 3084 287 
Q 2609 -91 1734 -91 
Q 1441 -91 1130 -33 
Q 819 25 488 141 
L 488 750 
Q 750 597 1062 519 
Q 1375 441 1716 441 
Q 2309 441 2620 675 
Q 2931 909 2931 1356 
Q 2931 1769 2642 2001 
Q 2353 2234 1838 2234 
L 1294 2234 
L 1294 2753 
L 1863 2753 
Q 2328 2753 2575 2939 
Q 2822 3125 2822 3475 
Q 2822 3834 2567 4026 
Q 2313 4219 1838 4219 
Q 1578 4219 1281 4162 
Q 984 4106 628 3988 
L 628 4550 
Q 988 4650 1302 4700 
Q 1616 4750 1894 4750 
Q 2613 4750 3031 4423 
Q 3450 4097 3450 3541 
Q 3450 3153 3228 2886 
Q 3006 2619 2597 2516 
z
" transform="scale(0.015625)"/>
       </defs>
       <use xlink:href="#DejaVuSans-32"/>
       <use xlink:href="#DejaVuSans-30" x="63.623047"/>
       <use xlink:href="#DejaVuSans-32" x="127.246094"/>
       <use xlink:href="#DejaVuSans-33" x="190.869141"/>
      </g>
     </g>
    </g>
    <g id="xtick_4">
     <g id="line2d_4">
      <g>
       <use xlink:href="#m9f80a9248d" x="394.657068" y="246.04" style="stroke: #000000; stroke-width: 0.8"/>
      </g>
     </g>
     <g id="text_4">
      <!-- 2024 -->
      <g transform="translate(381.932068 260.638438) scale(0.1 -0.1)">
       <defs>
        <path id="DejaVuSans-34" d="M 2419 4116 
L 825 1625 
L 2419 1625 
L 2419 4116 
z
M 2253 4666 
L 3047 4666 
L 3047 1625 
L 3713 1625 
L 3713 1100 
L 3047 1100 
L 3047 0 
L 2419 0 
L 2419 1100 
L 313 1100 
L 313 1709 
L 2253 4666 
z
" transform="scale(0.015625)"/>
       </defs>
       <use xlink:href="#DejaVuSans-32"/>
       <use xlink:href="#DejaVuSans-30" x="63.623047"/>
       <use xlink:href="#DejaVuSans-32" x="127.246094"/>
       <use xlink:href="#DejaVuSans-34" x="190.869141"/>
      </g>
     </g>
    </g>
    <g id="xtick_5">
     <g id="line2d_5">
      <g>
       <use xlink:href="#m9f80a9248d" x="486.12646" y="246.04" style="stroke: #000000; stroke-width: 0.8"/>
      </g>
     </g>
     <g id="text_5">
      <!-- 2025 -->
      <g transform="translate(473.40146 260.638438) scale(0.1 -0.1)">
       <defs>
        <path id="DejaVuSans-35" d="M 691 4666 
L 3169 4666 
L 3169 4134 
L 1269 4134 
L 1269 2991 
Q 1406 3038 1543 3061 
Q 1681 3084 1819 3084 
Q 2600 3084 3056 2656 
Q 3513 2228 3513 1497 
Q 3513 744 3044 326 
Q 2575 -91 1722 -91 
Q 1428 -91 1123 -41 
Q 819 9 494 109 
L 494 744 
Q 775 591 1075 516 
Q 1375 441 1709 441 
Q 2250 441 2565 725 
Q 2881 1009 2881 1497 
Q 2881 1984 2565 2268 
Q 2250 2553 1709 2553 
Q 1456 2553 1204 2497 
Q 953 2441 691 2322 
L 691 4666 
z
" transform="scale(0.015625)"/>
       </defs>
       <use xlink:href="#DejaVuSans-32"/>
       <use xlink:href="#DejaVuSans-30" x="63.623047"/>
       <use xlink:href="#DejaVuSans-32" x="127.246094"/>
       <use xlink:href="#DejaVuSans-35" x="190.869141"/>
      </g>
     </g>
    </g>
    <g id="text_6">
     <!-- Date -->
     <g transform="translate(299.234219 274.316562) scale(0.1 -0.1)">
      <defs>
       <path id="DejaVuSans-44" d="M 1259 4147 
L 1259 519 
L 2022 519 
Q 2988 519 3436 956 
Q 3884 1394 3884 2338 
Q 3884 3275 3436 3711 
Q 2988 4147 2022 4147 
L 1259 4147 
z
M 628 4666 
L 1925 4666 
Q 3281 4666 3915 4102 
Q 4550 3538 4550 2338 
Q 4550 1131 3912 565 
Q 3275 0 1925 0 
L 628 0 
L 628 4666 
z
" transform="scale(0.015625)"/>
       <path id="DejaVuSans-61" d="M 2194 1759 
Q 1497 1759 1228 1600 
Q 959 1441 959 1056 
Q 959 750 1161 570 
Q 1363 391 1709 391 
Q 2188 391 2477 730 
Q 2766 1069 2766 1631 
L 2766 1759 
L 2194 1759 
z
M 3341 1997 
L 3341 0 
L 2766 0 
L 2766 531 
Q 2569 213 2275 61 
Q 1981 -91 1556 -91 
Q 1019 -91 701 211 
Q 384 513 384 1019 
Q 384 1609 779 1909 
Q 1175 2209 1959 2209 
L 2766 2209 
L 2766 2266 
Q 2766 2663 2505 2880 
Q 2244 3097 1772 3097 
Q 1472 3097 1187 3025 
Q 903 2953 641 2809 
L 641 3341 
Q 956 3463 1253 3523 
Q 1550 3584 1831 3584 
Q 2591 3584 2966 3190 
Q 3341 2797 3341 1997 
z
" transform="scale(0.015625)"/>
       <path id="DejaVuSans-74" d="M 1172 4494 
L 1172 3500 
L 2356 3500 
L 2356 3053 
L 1172 3053 
L 1172 1153 
Q 1172 725 1289 603 
Q 1406 481 1766 481 
L 2356 481 
L 2356 0 
L 1766 0 
Q 1100 0 847 248 
Q 594 497 594 1153 
L 594 3053 
L 172 3053 
L 172 3500 
L 594 3500 
L 594 4494 
L 1172 4494 
z
" transform="scale(0.015625)"/>
       <path id="DejaVuSans-65" d="M 3597 1894 
L 3597 1613 
L 953 1613 
Q 991 1019 1311 708 
Q 1631 397 2203 397 
Q 2534 397 2845 478 
Q 3156 559 3463 722 
L 3463 178 
Q 3153 47 2828 -22 
Q 2503 -91 2169 -91 
Q 1331 -91 842 396 
Q 353 884 353 1716 
Q 353 2575 817 3079 
Q 1281 3584 2069 3584 
Q 2775 3584 3186 3129 
Q 3597 2675 3597 1894 
z
M 3022 2063 
Q 3016 2534 2758 2815 
Q 2500 3097 2075 3097 
Q 1594 3097 1305 2825 
Q 1016 2553 972 2059 
L 3022 2063 
z
" transform="scale(0.015625)"/>
      </defs>
      <use xlink:href="#DejaVuSans-44"/>
      <use xlink:href="#DejaVuSans-61" x="77.001953"/>
      <use xlink:href="#DejaVuSans-74" x="138.28125"/>
      <use xlink:href="#DejaVuSans-65" x="177.490234"/>
     </g>
    </g>
   </g>
   <g id="matplotlib.axis_2">
    <g id="ytick_1">
     <g id="line2d_6">
      <defs>
       <path id="ma7dc7100bc" d="M 0 0 
L -3.5 0 
" style="stroke: #000000; stroke-width: 0.8"/>
      </defs>
      <g>
       <use xlink:href="#ma7dc7100bc" x="57.17" y="243.45492" style="stroke: #000000; stroke-width: 0.8"/>
      </g>
     </g>
     <g id="text_7">
      <!-- 3000 -->
      <g transform="translate(24.72 247.254139) scale(0.1 -0.1)">
       <use xlink:href="#DejaVuSans-33"/>
       <use xlink:href="#DejaVuSans-30" x="63.623047"/>
       <use xlink:href="#DejaVuSans-30" x="127.246094"/>
       <use xlink:href="#DejaVuSans-30" x="190.869141"/>
      </g>
     </g>
    </g>
    <g id="ytick_2">
     <g id="line2d_7">
      <g>
       <use xlink:href="#ma7dc7100bc" x="57.17" y="213.654209" style="stroke: #000000; stroke-width: 0.8"/>
      </g>
     </g>
     <g id="text_8">
      <!-- 3500 -->
      <g transform="translate(24.72 217.453428) scale(0.1 -0.1)">
       <use xlink:href="#DejaVuSans-33"/>
       <use xlink:href="#DejaVuSans-35" x="63.623047"/>
       <use xlink:href="#DejaVuSans-30" x="127.246094"/>
       <use xlink:href="#DejaVuSans-30" x="190.869141"/>
      </g>
     </g>
    </g>
    <g id="ytick_3">
     <g id="line2d_8">
      <g>
       <use xlink:href="#ma7dc7100bc" x="57.17" y="183.853498" style="stroke: #000000; stroke-width: 0.8"/>
      </g>
     </g>
     <g id="text_9">
      <!-- 4000 -->
      <g transform="translate(24.72 187.652717) scale(0.1 -0.1)">
       <use xlink:href="#DejaVuSans-34"/>
       <use xlink:href="#DejaVuSans-30" x="63.623047"/>
       <use xlink:href="#DejaVuSans-30" x="127.246094"/>
       <use xlink:href="#DejaVuSans-30" x="190.869141"/>
      </g>
     </g>
    </g>
    <g id="ytick_4">
     <g id="line2d_9">
      <g>
       <use xlink:href="#ma7dc7100bc" x="57.17" y="154.052787" style="stroke: #000000; stroke-width: 0.8"/>
      </g>
     </g>
     <g id="text_10">
      <!-- 4500 -->
      <g transform="translate(24.72 157.852006) scale(0.1 -0.1)">
       <use xlink:href="#DejaVuSans-34"/>
       <use xlink:href="#DejaVuSans-35" x="63.623047"/>
       <use xlink:href="#DejaVuSans-30" x="127.246094"/>
       <use xlink:href="#DejaVuSans-30" x="190.869141"/>
      </g>
     </g>
    </g>
    <g id="ytick_5">
     <g id="line2d_10">
      <g>
       <use xlink:href="#ma7dc7100bc" x="57.17" y="124.252076" style="stroke: #000000; stroke-width: 0.8"/>
      </g>
     </g>
     <g id="text_11">
      <!-- 5000 -->
      <g transform="translate(24.72 128.051295) scale(0.1 -0.1)">
       <use xlink:href="#DejaVuSans-35"/>
       <use xlink:href="#DejaVuSans-30" x="63.623047"/>
       <use xlink:href="#DejaVuSans-30" x="127.246094"/>
       <use xlink:href="#DejaVuSans-30" x="190.869141"/>
      </g>
     </g>
    </g>
    <g id="ytick_6">
     <g id="line2d_11">
      <g>
       <use xlink:href="#ma7dc7100bc" x="57.17" y="94.451365" style="stroke: #000000; stroke-width: 0.8"/>
      </g>
     </g>
     <g id="text_12">
      <!-- 5500 -->
      <g transform="translate(24.72 98.250584) scale(0.1 -0.1)">
       <use xlink:href="#DejaVuSans-35"/>
       <use xlink:href="#DejaVuSans-35" x="63.623047"/>
       <use xlink:href="#DejaVuSans-30" x="127.246094"/>
       <use xlink:href="#DejaVuSans-30" x="190.869141"/>
      </g>
     </g>
    </g>
    <g id="ytick_7">
     <g id="line2d_12">
      <g>
       <use xlink:href="#ma7dc7100bc" x="57.17" y="64.650654" style="stroke: #000000; stroke-width: 0.8"/>
      </g>
     </g>
     <g id="text_13">
      <!-- 6000 -->
      <g transform="translate(24.72 68.449873) scale(0.1 -0.1)">
       <defs>
        <path id="DejaVuSans-36" d="M 2113 2584 
Q 1688 2584 1439 2293 
Q 1191 2003 1191 1497 
Q 1191 994 1439 701 
Q 1688 409 2113 409 
Q 2538 409 2786 701 
Q 3034 994 3034 1497 
Q 3034 2003 2786 2293 
Q 2538 2584 2113 2584 
z
M 3366 4563 
L 3366 3988 
Q 3128 4100 2886 4159 
Q 2644 4219 2406 4219 
Q 1781 4219 1451 3797 
Q 1122 3375 1075 2522 
Q 1259 2794 1537 2939 
Q 1816 3084 2150 3084 
Q 2853 3084 3261 2657 
Q 3669 2231 3669 1497 
Q 3669 778 3244 343 
Q 2819 -91 2113 -91 
Q 1303 -91 875 529 
Q 447 1150 447 2328 
Q 447 3434 972 4092 
Q 1497 4750 2381 4750 
Q 2619 4750 2861 4703 
Q 3103 4656 3366 4563 
z
" transform="scale(0.015625)"/>
       </defs>
       <use xlink:href="#DejaVuSans-36"/>
       <use xlink:href="#DejaVuSans-30" x="63.623047"/>
       <use xlink:href="#DejaVuSans-30" x="127.246094"/>
       <use xlink:href="#DejaVuSans-30" x="190.869141"/>
      </g>
     </g>
    </g>
    <g id="ytick_8">
     <g id="line2d_13">
      <g>
       <use xlink:href="#ma7dc7100bc" x="57.17" y="34.849943" style="stroke: #000000; stroke-width: 0.8"/>
      </g>
     </g>
     <g id="text_14">
      <!-- 6500 -->
      <g transform="translate(24.72 38.649162) scale(0.1 -0.1)">
       <use xlink:href="#DejaVuSans-36"/>
       <use xlink:href="#DejaVuSans-35" x="63.623047"/>
       <use xlink:href="#DejaVuSans-30" x="127.246094"/>
       <use xlink:href="#DejaVuSans-30" x="190.869141"/>
      </g>
     </g>
    </g>
    <g id="text_15">
     <!-- Stock Price -->
     <g transform="translate(18.640313 164.085) rotate(-90) scale(0.1 -0.1)">
      <defs>
       <path id="DejaVuSans-53" d="M 3425 4513 
L 3425 3897 
Q 3066 4069 2747 4153 
Q 2428 4238 2131 4238 
Q 1616 4238 1336 4038 
Q 1056 3838 1056 3469 
Q 1056 3159 1242 3001 
Q 1428 2844 1947 2747 
L 2328 2669 
Q 3034 2534 3370 2195 
Q 3706 1856 3706 1288 
Q 3706 609 3251 259 
Q 2797 -91 1919 -91 
Q 1588 -91 1214 -16 
Q 841 59 441 206 
L 441 856 
Q 825 641 1194 531 
Q 1563 422 1919 422 
Q 2459 422 2753 634 
Q 3047 847 3047 1241 
Q 3047 1584 2836 1778 
Q 2625 1972 2144 2069 
L 1759 2144 
Q 1053 2284 737 2584 
Q 422 2884 422 3419 
Q 422 4038 858 4394 
Q 1294 4750 2059 4750 
Q 2388 4750 2728 4690 
Q 3069 4631 3425 4513 
z
" transform="scale(0.015625)"/>
       <path id="DejaVuSans-6f" d="M 1959 3097 
Q 1497 3097 1228 2736 
Q 959 2375 959 1747 
Q 959 1119 1226 758 
Q 1494 397 1959 397 
Q 2419 397 2687 759 
Q 2956 1122 2956 1747 
Q 2956 2369 2687 2733 
Q 2419 3097 1959 3097 
z
M 1959 3584 
Q 2709 3584 3137 3096 
Q 3566 2609 3566 1747 
Q 3566 888 3137 398 
Q 2709 -91 1959 -91 
Q 1206 -91 779 398 
Q 353 888 353 1747 
Q 353 2609 779 3096 
Q 1206 3584 1959 3584 
z
" transform="scale(0.015625)"/>
       <path id="DejaVuSans-63" d="M 3122 3366 
L 3122 2828 
Q 2878 2963 2633 3030 
Q 2388 3097 2138 3097 
Q 1578 3097 1268 2742 
Q 959 2388 959 1747 
Q 959 1106 1268 751 
Q 1578 397 2138 397 
Q 2388 397 2633 464 
Q 2878 531 3122 666 
L 3122 134 
Q 2881 22 2623 -34 
Q 2366 -91 2075 -91 
Q 1284 -91 818 406 
Q 353 903 353 1747 
Q 353 2603 823 3093 
Q 1294 3584 2113 3584 
Q 2378 3584 2631 3529 
Q 2884 3475 3122 3366 
z
" transform="scale(0.015625)"/>
       <path id="DejaVuSans-6b" d="M 581 4863 
L 1159 4863 
L 1159 1991 
L 2875 3500 
L 3609 3500 
L 1753 1863 
L 3688 0 
L 2938 0 
L 1159 1709 
L 1159 0 
L 581 0 
L 581 4863 
z
" transform="scale(0.015625)"/>
       <path id="DejaVuSans-20" transform="scale(0.015625)"/>
       <path id="DejaVuSans-50" d="M 1259 4147 
L 1259 2394 
L 2053 2394 
Q 2494 2394 2734 2622 
Q 2975 2850 2975 3272 
Q 2975 3691 2734 3919 
Q 2494 4147 2053 4147 
L 1259 4147 
z
M 628 4666 
L 2053 4666 
Q 2838 4666 3239 4311 
Q 3641 3956 3641 3272 
Q 3641 2581 3239 2228 
Q 2838 1875 2053 1875 
L 1259 1875 
L 1259 0 
L 628 0 
L 628 4666 
z
" transform="scale(0.015625)"/>
       <path id="DejaVuSans-72" d="M 2631 2963 
Q 2534 3019 2420 3045 
Q 2306 3072 2169 3072 
Q 1681 3072 1420 2755 
Q 1159 2438 1159 1844 
L 1159 0 
L 581 0 
L 581 3500 
L 1159 3500 
L 1159 2956 
Q 1341 3275 1631 3429 
Q 1922 3584 2338 3584 
Q 2397 3584 2469 3576 
Q 2541 3569 2628 3553 
L 2631 2963 
z
" transform="scale(0.015625)"/>
       <path id="DejaVuSans-69" d="M 603 3500 
L 1178 3500 
L 1178 0 
L 603 0 
L 603 3500 
z
M 603 4863 
L 1178 4863 
L 1178 4134 
L 603 4134 
L 603 4863 
z
" transform="scale(0.015625)"/>
      </defs>
      <use xlink:href="#DejaVuSans-53"/>
      <use xlink:href="#DejaVuSans-74" x="63.476562"/>
      <use xlink:href="#DejaVuSans-6f" x="102.685547"/>
      <use xlink:href="#DejaVuSans-63" x="163.867188"/>
      <use xlink:href="#DejaVuSans-6b" x="218.847656"/>
      <use xlink:href="#DejaVuSans-20" x="276.757812"/>
      <use xlink:href="#DejaVuSans-50" x="308.544922"/>
      <use xlink:href="#DejaVuSans-72" x="367.097656"/>
      <use xlink:href="#DejaVuSans-69" x="408.210938"/>
      <use xlink:href="#DejaVuSans-63" x="435.994141"/>
      <use xlink:href="#DejaVuSans-65" x="490.974609"/>
     </g>
    </g>
   </g>
   <g id="line2d_14">
    <path d="M 80.262273 227.003734 
L 80.512189 229.409254 
L 80.762105 230.603072 
L 81.511855 229.185749 
L 81.761771 230.435589 
L 82.011687 228.051532 
L 82.261604 228.77986 
L 82.51152 227.295776 
L 83.261269 225.895739 
L 83.511186 225.186488 
L 84.011018 222.644493 
L 84.260935 222.518131 
L 85.010684 221.970397 
L 85.2606 223.566525 
L 85.510517 220.785513 
L 85.760433 221.197965 
L 86.010349 221.232524 
L 86.760098 220.687773 
L 87.010015 220.223476 
L 87.259931 221.113321 
L 88.759429 217.01453 
L 89.009346 214.921932 
L 89.259262 214.575048 
L 89.509178 213.176801 
L 90.258928 213.635729 
L 90.508844 212.065837 
L 90.75876 208.836025 
L 91.008677 216.332693 
L 91.258593 218.007499 
L 92.258259 223.676779 
L 92.508175 219.676339 
L 92.758091 223.238717 
L 93.008008 223.132625 
L 94.007673 219.542832 
L 94.25759 220.479168 
L 94.757422 224.414055 
L 95.507171 226.703341 
L 95.757088 224.646495 
L 96.007004 229.334156 
L 96.256921 228.7578 
L 96.506837 225.666282 
L 97.256586 222.499054 
L 97.506502 223.460433 
L 98.006335 220.758696 
L 98.256251 222.688597 
L 99.006001 219.101773 
L 99.255917 221.940596 
L 99.505833 218.455703 
L 100.005666 215.016704 
L 100.755415 211.61465 
L 101.255248 214.329498 
L 101.505164 214.647163 
L 101.755081 214.619153 
L 102.50483 218.009886 
L 102.754746 217.044331 
L 103.004663 217.494921 
L 103.504495 215.717021 
L 104.254244 219.55654 
L 104.504161 220.169841 
L 104.754077 227.301145 
L 105.003994 224.971917 
L 105.25391 227.364922 
L 106.003659 224.964175 
L 106.753408 213.031377 
L 107.003324 213.091575 
L 107.753074 210.644337 
L 108.00299 210.940555 
L 108.252906 209.323575 
L 108.502823 211.44836 
L 108.752739 208.579154 
L 109.502488 206.090198 
L 109.752405 207.126064 
L 110.002321 209.613826 
L 110.252237 208.774634 
L 110.502154 210.224741 
L 111.251903 209.029729 
L 111.501819 205.583586 
L 111.751736 205.926891 
L 112.251568 205.408346 
L 113.001317 206.404895 
L 113.251234 203.971961 
L 113.50115 203.580972 
L 113.751067 203.717462 
L 114.000983 201.786367 
L 114.750732 202.213122 
L 115.000648 201.599821 
L 115.250565 203.353887 
L 116.500147 204.863596 
L 116.750063 202.054573 
L 116.999979 201.664196 
L 117.249896 200.394086 
L 117.499812 201.173081 
L 118.499478 202.493246 
L 118.749394 202.329342 
L 118.99931 201.551541 
L 119.998976 199.626412 
L 120.248892 200.1223 
L 120.498809 199.824293 
L 120.748725 198.392069 
L 121.74839 201.69519 
L 122.248223 198.864719 
L 122.49814 195.547891 
L 122.748056 194.302823 
L 123.497805 195.797021 
L 123.747721 195.70286 
L 123.997638 195.187299 
L 124.247554 196.039602 
L 124.49747 197.666128 
L 125.497136 195.838753 
L 125.747052 192.683443 
L 125.996969 192.610731 
L 126.246885 193.302113 
L 126.996634 192.474241 
L 127.246551 192.816353 
L 127.496467 198.707959 
L 127.746383 196.525959 
L 127.9963 200.885201 
L 128.746049 197.331757 
L 128.995965 194.205666 
L 129.245882 193.975612 
L 129.495798 191.497977 
L 129.745714 190.598586 
L 130.495463 188.884449 
L 130.74538 189.144318 
L 130.995296 189.224785 
L 131.245213 188.837376 
L 131.495129 187.737718 
L 132.744711 187.946323 
L 132.994627 188.98101 
L 133.244543 189.413717 
L 133.994293 191.214274 
L 134.244209 190.924008 
L 134.494125 188.29798 
L 134.744042 194.025072 
L 134.993958 195.109232 
L 135.743707 189.705162 
L 135.993624 191.584396 
L 136.493456 197.653017 
L 136.743373 193.274102 
L 137.493122 194.501286 
L 137.743038 191.277455 
L 137.992955 189.884562 
L 138.242871 187.468915 
L 138.492787 187.230509 
L 139.242536 185.704722 
L 139.492453 186.076037 
L 139.742369 185.395976 
L 139.992286 188.892205 
L 140.242202 189.032856 
L 140.991951 187.394413 
L 141.491784 190.460918 
L 141.7417 189.246234 
L 141.991616 185.370948 
L 142.741366 185.57657 
L 142.991282 186.323974 
L 143.241198 185.469299 
L 143.491115 182.669211 
L 144.49078 179.209957 
L 144.740697 179.446572 
L 144.990613 179.088367 
L 145.240529 178.062033 
L 145.490446 176.176847 
L 146.240195 176.225098 
L 146.490111 175.414542 
L 146.740028 176.423576 
L 146.989944 173.696228 
L 147.23986 172.79921 
L 147.989609 174.122984 
L 148.239526 175.810886 
L 148.489442 173.517424 
L 148.739359 175.808499 
L 148.989275 173.115115 
L 149.739024 172.671072 
L 149.98894 172.724708 
L 150.238857 172.935699 
L 150.488773 171.249573 
L 150.738689 173.055513 
L 151.488439 172.370679 
L 151.738355 174.039519 
L 151.988271 173.864905 
L 152.488104 169.990202 
L 153.237853 172.622792 
L 153.48777 174.788116 
L 153.737686 180.096222 
L 154.237519 173.491785 
L 154.987268 174.12118 
L 155.237184 176.234644 
L 155.487101 176.958795 
L 155.737017 174.369713 
L 155.986933 174.564029 
L 156.736682 172.10905 
L 156.986599 172.64069 
L 157.486432 171.880771 
L 157.736348 171.68826 
L 158.736013 171.811624 
L 158.98593 171.449243 
L 159.235846 172.359358 
L 159.485762 170.151719 
L 160.485428 170.308493 
L 160.735344 170.768018 
L 160.985261 169.59802 
L 161.235177 169.105726 
L 161.984926 168.646201 
L 162.234843 169.156393 
L 162.484759 170.520648 
L 162.734675 170.630335 
L 162.984592 173.93283 
L 163.984257 169.165327 
L 164.234174 169.4395 
L 164.734006 167.123367 
L 165.983588 166.122075 
L 166.483421 162.853542 
L 167.483086 163.378023 
L 167.733003 162.508448 
L 167.982919 164.73218 
L 168.232835 161.827804 
L 168.982585 160.92901 
L 169.232501 161.848059 
L 169.482417 161.544697 
L 169.732334 162.395211 
L 169.98225 164.354288 
L 170.731999 168.447113 
L 170.981916 164.598659 
L 171.231832 162.475068 
L 171.481748 161.951169 
L 171.731665 159.310226 
L 172.481414 158.683829 
L 172.73133 159.925914 
L 172.981247 159.974776 
L 173.231163 158.871568 
L 173.481079 160.295454 
L 174.230828 160.778202 
L 174.480745 158.633162 
L 174.730661 159.85438 
L 174.980578 158.278522 
L 175.230494 157.836284 
L 175.980243 158.084817 
L 176.480076 157.485224 
L 176.729992 156.38737 
L 176.979909 155.960033 
L 177.729658 155.262102 
L 177.979574 157.147288 
L 178.22949 159.996836 
L 178.479407 159.667253 
L 178.729323 157.529343 
L 179.479072 155.272841 
L 179.978905 154.279872 
L 180.228821 155.84083 
L 180.478738 153.494315 
L 181.228487 152.33686 
L 181.478403 152.701016 
L 181.72832 152.616998 
L 181.978236 151.850503 
L 182.228152 151.941098 
L 183.477734 153.214206 
L 183.727651 154.453322 
L 183.977567 156.521473 
L 184.727316 155.916525 
L 184.977232 157.4471 
L 185.227149 155.203083 
L 185.477065 155.617324 
L 185.726982 158.046664 
L 186.476731 162.532283 
L 186.726647 162.743274 
L 187.22648 157.093653 
L 187.476396 156.706244 
L 188.226145 157.44352 
L 188.476062 162.836256 
L 188.725978 162.429173 
L 188.975894 165.523674 
L 189.225811 162.573404 
L 189.97556 165.945657 
L 190.225476 163.248082 
L 190.475393 162.185413 
L 190.725309 160.027248 
L 190.975225 160.529087 
L 191.974891 162.954265 
L 192.224807 162.170512 
L 192.474724 157.732593 
L 192.72464 155.759169 
L 193.474389 154.859793 
L 193.724305 152.882818 
L 194.224138 151.085841 
L 194.474055 151.376689 
L 195.47372 149.595194 
L 195.723636 150.972575 
L 195.973553 148.306023 
L 196.223469 147.771996 
L 196.973218 147.277898 
L 197.223135 146.265867 
L 197.722967 143.320952 
L 197.972884 142.279731 
L 198.722633 142.031169 
L 198.972549 143.011624 
L 199.222466 145.308665 
L 199.472382 145.156082 
L 199.722298 143.154661 
L 200.472047 143.157659 
L 200.721964 142.078867 
L 200.97188 142.807792 
L 201.221797 141.86191 
L 201.471713 142.254092 
L 202.221462 143.149307 
L 202.721295 142.045487 
L 203.221128 148.413294 
L 203.970877 144.798473 
L 204.470709 153.275582 
L 204.720626 149.457512 
L 204.970542 151.762294 
L 205.720291 148.589129 
L 205.970208 142.922222 
L 206.220124 142.060387 
L 206.47004 144.072517 
L 206.719957 141.416092 
L 207.469706 143.981922 
L 207.719622 146.060842 
L 207.969539 141.545423 
L 208.469371 146.862463 
L 209.21912 149.998697 
L 209.718953 142.337528 
L 209.96887 140.59538 
L 210.968535 136.697453 
L 211.218451 136.985914 
L 211.468368 136.585991 
L 211.968201 138.18807 
L 212.71795 136.377386 
L 212.967866 136.557383 
L 213.217782 142.097929 
L 213.467699 142.36794 
L 213.717615 143.50156 
L 214.467364 143.903259 
L 214.717281 141.353523 
L 214.967197 140.561999 
L 215.217113 144.574386 
L 215.46703 144.34669 
L 216.466695 149.45693 
L 216.966528 155.082105 
L 217.216444 160.135712 
L 217.966193 159.409174 
L 218.21611 162.60856 
L 218.466026 162.997162 
L 218.715943 164.393052 
L 218.965859 158.114618 
L 219.965524 151.278935 
L 220.215441 148.725619 
L 220.465357 155.397399 
L 220.715274 154.021211 
L 221.465023 155.014151 
L 221.714939 152.76897 
L 221.964855 148.856725 
L 222.464688 158.901951 
L 223.214437 159.9134 
L 223.464354 155.777067 
L 223.71427 155.542241 
L 223.964186 161.189475 
L 224.214103 163.060343 
L 225.213768 165.689383 
L 225.463685 170.413377 
L 225.713601 166.646556 
L 225.963517 160.927817 
L 226.713266 161.566146 
L 226.963183 165.599981 
L 227.213099 160.815162 
L 227.463016 162.188963 
L 227.712932 164.252371 
L 228.712597 173.679524 
L 228.962514 167.291462 
L 229.21243 168.385736 
L 229.462347 171.676328 
L 230.212096 173.535904 
L 230.961845 159.317385 
L 231.211761 156.250881 
L 231.96151 156.366504 
L 232.211427 153.360823 
L 232.461343 156.660931 
L 232.711259 152.851213 
L 232.961176 151.486346 
L 233.710925 149.551687 
L 233.960841 146.209234 
L 234.210758 147.94661 
L 234.460674 152.240299 
L 234.71059 151.319474 
L 235.460339 149.127317 
L 235.960172 155.17628 
L 236.210089 154.040273 
L 236.460005 154.751329 
L 237.45967 160.164901 
L 237.709587 157.236108 
L 237.959503 160.454585 
L 238.959169 160.508221 
L 239.209085 156.305127 
L 239.459001 156.469613 
L 239.708918 160.390793 
L 239.958834 167.655036 
L 240.708583 166.204318 
L 240.9585 173.411317 
L 241.208416 172.889223 
L 241.458332 166.718089 
L 241.708249 175.990272 
L 242.457998 174.592636 
L 242.707914 173.394642 
L 242.957831 165.962944 
L 243.207747 175.09983 
L 243.457663 176.502268 
L 244.207412 184.375607 
L 244.457329 183.790914 
L 244.707245 187.716866 
L 244.957162 188.020825 
L 245.207078 182.429627 
L 245.956827 183.37609 
L 246.206743 178.557906 
L 246.45666 188.402283 
L 246.706576 189.766553 
L 246.956493 189.732576 
L 247.706242 185.418035 
L 247.956158 187.341375 
L 248.206074 185.121222 
L 248.705907 174.422155 
L 249.705573 175.977176 
L 249.955489 177.820047 
L 250.205405 173.314785 
L 250.455322 177.384357 
L 251.205071 176.616087 
L 251.454987 174.276731 
L 251.704904 176.95344 
L 252.204736 189.762377 
L 252.954485 198.775913 
L 253.204402 199.619267 
L 253.454318 196.370393 
L 253.704235 203.714479 
L 253.954151 203.233491 
L 254.953816 197.872346 
L 255.203733 198.164402 
L 255.453649 196.028282 
L 255.703566 189.11392 
L 256.453315 189.807078 
L 256.703231 194.489369 
L 256.953147 194.651483 
L 257.203064 196.645162 
L 257.45298 194.264074 
L 258.452646 193.9029 
L 258.702562 193.086946 
L 258.952478 189.657478 
L 259.202395 189.8506 
L 259.952144 192.529681 
L 260.20206 194.653273 
L 260.701893 196.347155 
L 260.951809 192.009362 
L 261.701558 193.935073 
L 261.951475 187.626868 
L 262.201391 186.243521 
L 262.451308 183.916083 
L 262.701224 186.140412 
L 263.450973 185.829876 
L 263.700889 188.559027 
L 263.950806 182.446302 
L 264.450639 176.088027 
L 265.200388 176.782988 
L 265.450304 178.418448 
L 265.70022 174.60515 
L 265.950137 174.797662 
L 266.200053 175.199971 
L 266.949802 175.505719 
L 267.199719 176.554099 
L 267.449635 171.322881 
L 267.699551 171.49991 
L 267.949468 167.156166 
L 268.949133 165.663133 
L 269.19905 167.520322 
L 269.448966 166.942177 
L 269.698882 170.235766 
L 270.448631 175.629084 
L 270.698548 176.181008 
L 270.948464 175.463405 
L 271.198381 171.985656 
L 271.448297 180.416885 
L 272.198046 182.029092 
L 272.697879 186.535562 
L 272.947795 185.829279 
L 273.197712 188.367709 
L 274.197377 189.325508 
L 274.447293 185.053268 
L 274.69721 183.485165 
L 274.947126 179.83874 
L 275.696875 177.272896 
L 275.946792 187.865273 
L 276.196708 187.071378 
L 276.696541 191.403206 
L 277.44629 189.820203 
L 277.696206 192.440279 
L 277.946123 196.373973 
L 278.196039 198.277639 
L 278.445955 202.137427 
L 279.445621 204.875513 
L 279.695537 200.599111 
L 280.19537 208.551128 
L 280.945119 203.019531 
L 281.195035 196.314371 
L 281.444952 196.770317 
L 281.694868 199.080468 
L 281.944785 205.33028 
L 282.694534 206.955612 
L 282.94445 208.359213 
L 283.194366 209.06311 
L 283.444283 203.527337 
L 283.694199 208.703115 
L 284.693865 200.543089 
L 285.193697 203.773484 
L 285.443614 198.58995 
L 286.193363 195.932317 
L 286.443279 192.250736 
L 286.943112 195.338689 
L 287.193028 189.750459 
L 287.942777 191.483673 
L 288.192694 192.430137 
L 288.44261 198.176319 
L 288.692527 200.548459 
L 288.942443 197.529041 
L 289.692192 195.36849 
L 289.942108 194.09838 
L 290.192025 198.83908 
L 290.441941 186.453901 
L 290.691858 184.274884 
L 291.441607 186.401459 
L 291.691523 184.346403 
L 291.941439 186.30967 
L 292.191356 187.038595 
L 292.441272 185.919278 
L 293.191021 186.837149 
L 293.440938 183.64012 
L 293.690854 182.228763 
L 294.190687 182.296702 
L 294.940436 186.002729 
L 295.190352 186.378817 
L 295.440269 179.078822 
L 295.940101 179.580079 
L 296.68985 183.922631 
L 296.939767 187.354485 
L 297.189683 187.791965 
L 297.4396 186.028353 
L 297.689516 187.76455 
L 298.439265 184.416132 
L 298.689181 182.682336 
L 298.939098 184.132429 
L 299.189014 190.066946 
L 299.438931 192.653046 
L 300.18868 194.721227 
L 300.438596 194.485193 
L 300.688512 191.09865 
L 300.938429 194.439313 
L 301.188345 193.102443 
L 302.188011 194.030441 
L 302.437927 196.773896 
L 302.687843 192.836623 
L 302.93776 193.419526 
L 303.937425 194.335011 
L 304.187342 192.616697 
L 304.437258 195.291005 
L 304.687174 190.106875 
L 305.436923 190.285082 
L 305.68684 188.666313 
L 305.936756 185.664779 
L 306.436589 183.90773 
L 307.436254 184.391701 
L 307.686171 188.093537 
L 307.936087 189.882176 
L 308.186004 185.485975 
L 308.935753 182.67279 
L 309.435585 182.886765 
L 309.685502 180.251788 
L 309.935418 179.648018 
L 310.685167 182.79438 
L 311.434916 173.13956 
L 311.684833 175.719097 
L 312.434582 177.232968 
L 312.684498 174.078865 
L 313.184331 178.995982 
L 313.434247 178.461956 
L 314.183996 175.670817 
L 314.433913 175.739964 
L 314.683829 175.056322 
L 314.933746 178.464939 
L 315.183662 179.139616 
L 316.183327 184.012033 
L 316.433244 184.386928 
L 316.68316 183.119205 
L 316.933077 185.639154 
L 317.682826 184.91202 
L 317.932742 185.632606 
L 318.182658 186.75073 
L 318.432575 184.965059 
L 318.682491 181.133296 
L 319.43224 180.967602 
L 319.682157 184.665859 
L 319.932073 184.329713 
L 320.431906 192.102926 
L 321.181655 192.450407 
L 321.431571 188.663927 
L 321.681488 190.294628 
L 321.931404 186.220865 
L 322.18132 188.821879 
L 322.931069 186.739991 
L 323.180986 183.682435 
L 323.430902 187.610177 
L 323.680819 186.909861 
L 323.930735 185.582536 
L 324.680484 185.19274 
L 324.9304 185.565846 
L 325.180317 182.195979 
L 325.430233 180.823953 
L 325.68015 177.338463 
L 326.429899 176.432539 
L 326.679815 177.857589 
L 326.929731 178.466729 
L 327.179648 177.594156 
L 328.42923 177.360523 
L 328.679146 178.37315 
L 328.929062 175.138565 
L 329.178979 175.64995 
L 330.178644 174.623019 
L 330.428561 174.643885 
L 330.678477 176.117827 
L 330.928393 175.895515 
L 331.678142 175.685717 
L 331.928059 179.584255 
L 332.177975 180.516415 
L 332.427892 175.78644 
L 332.677808 173.75225 
L 333.427557 173.8482 
L 333.92739 178.444669 
L 334.177306 180.204701 
L 334.427223 175.732804 
L 335.176972 175.621343 
L 335.426888 176.750801 
L 335.676804 175.64995 
L 336.176637 176.458149 
L 336.926386 175.731029 
L 337.176303 177.303308 
L 337.676135 172.049448 
L 337.926052 172.411218 
L 338.675801 172.372483 
L 339.175634 176.985016 
L 339.675466 171.608374 
L 340.675132 171.604213 
L 340.925048 173.13537 
L 341.174965 170.680391 
L 341.424881 167.023838 
L 342.17463 167.535222 
L 342.424546 166.935629 
L 342.674463 167.908925 
L 342.924379 166.334842 
L 343.174296 166.041025 
L 343.924045 163.652778 
L 344.173961 161.859991 
L 344.423877 161.646614 
L 344.673794 158.472838 
L 344.92371 159.441361 
L 345.923376 160.685832 
L 346.173292 162.057858 
L 346.423208 161.092303 
L 346.673125 163.09253 
L 347.422874 164.255369 
L 347.67279 161.299715 
L 347.922707 161.392114 
L 348.172623 160.225114 
L 348.422539 157.010217 
L 349.172288 156.699696 
L 349.672121 157.222401 
L 349.922038 159.322158 
L 350.171954 160.075499 
L 350.921703 159.444941 
L 351.671452 153.454387 
L 351.921369 153.729752 
L 352.671118 152.694468 
L 352.921034 150.775902 
L 353.17095 150.135769 
L 353.420867 151.974479 
L 353.670783 151.886881 
L 354.420532 150.796157 
L 354.670449 150.032078 
L 354.920365 150.074392 
L 355.170281 151.823089 
L 355.420198 149.151763 
L 356.169947 148.750647 
L 356.419863 149.479571 
L 356.66978 153.254716 
L 356.919696 153.940132 
L 357.169612 155.362243 
L 357.919361 152.95374 
L 358.169278 154.089747 
L 358.419194 155.977319 
L 358.669111 155.910559 
L 358.919027 156.19547 
L 359.668776 154.665477 
L 360.168609 159.754851 
L 360.418525 161.779524 
L 360.668442 161.818259 
L 361.418191 160.026636 
L 361.668107 160.754979 
L 361.918023 157.866696 
L 362.16794 161.424884 
L 362.417856 159.672608 
L 363.167605 158.027602 
L 363.417522 154.194049 
L 363.667438 153.166507 
L 363.917354 153.596231 
L 364.167271 153.112872 
L 365.166936 154.241719 
L 365.416853 156.110229 
L 365.666769 156.964904 
L 365.916685 156.58643 
L 366.666434 154.800191 
L 366.916351 156.323607 
L 367.166267 155.993413 
L 367.416184 153.748814 
L 367.6661 157.013796 
L 368.415849 156.822478 
L 368.665765 157.393435 
L 368.915682 159.881795 
L 369.165598 164.185029 
L 369.415515 164.777463 
L 370.165264 163.741598 
L 370.41518 167.550734 
L 370.665096 167.492326 
L 370.915013 165.99094 
L 371.164929 166.68532 
L 371.914678 166.665036 
L 372.164595 170.17794 
L 372.414511 168.133623 
L 372.664427 168.46501 
L 372.914344 165.466459 
L 373.664093 163.847676 
L 374.163926 161.38673 
L 374.663758 164.317357 
L 375.413507 161.584626 
L 375.663424 161.610236 
L 376.163257 167.284303 
L 376.413173 170.493234 
L 377.162922 170.917603 
L 377.412838 169.091407 
L 377.912671 175.674396 
L 378.162588 176.858072 
L 378.912337 173.910799 
L 379.162253 172.302754 
L 379.412169 169.676712 
L 379.662086 164.913371 
L 379.912002 162.495934 
L 380.661751 162.040571 
L 380.911668 161.301519 
L 381.161584 161.039279 
L 381.4115 163.150938 
L 381.661417 159.10459 
L 382.411166 159.324545 
L 382.661082 154.309062 
L 383.410831 153.217174 
L 384.16058 151.228879 
L 384.410497 151.776612 
L 384.660413 150.678148 
L 385.160246 150.516048 
L 385.909995 151.047077 
L 386.159911 150.781257 
L 386.409828 151.038143 
L 386.659744 150.011822 
L 386.909661 148.412712 
L 387.65941 149.893813 
L 387.909326 150.048753 
L 388.159242 151.112062 
L 388.409159 148.951511 
L 388.659075 147.83218 
L 389.408824 146.755193 
L 389.658741 145.488051 
L 389.908657 141.709938 
L 390.158573 140.967307 
L 390.40849 140.988755 
L 391.158239 139.715066 
L 391.408155 138.057547 
L 391.658072 142.230839 
L 391.907988 139.346136 
L 392.157904 138.876484 
L 393.657403 137.164718 
L 393.907319 137.970531 
L 394.906984 139.579769 
L 395.156901 141.845816 
L 395.406817 142.80718 
L 395.656734 142.296989 
L 396.406483 138.345426 
L 396.656399 138.765022 
L 396.906315 137.158752 
L 397.156232 137.350071 
L 397.406148 137.136111 
L 398.405814 138.200002 
L 398.65573 139.795533 
L 399.155563 133.799624 
L 399.905312 133.16665 
L 400.155228 132.322103 
L 400.405145 132.086695 
L 400.655061 130.560281 
L 400.904977 130.750406 
L 401.654726 128.54754 
L 401.904643 128.723958 
L 402.154559 133.451561 
L 402.654392 126.718987 
L 403.404141 127.660678 
L 403.654057 126.980034 
L 403.903974 124.546504 
L 404.15389 124.376634 
L 404.403807 122.666091 
L 405.153556 122.95039 
L 405.403472 127.043215 
L 405.903305 122.480127 
L 406.153221 123.920107 
L 407.152887 125.711729 
L 407.402803 125.336834 
L 407.652719 119.064977 
L 407.902636 118.959482 
L 408.652385 120.108002 
L 408.902301 119.592427 
L 409.152218 120.094295 
L 409.402134 118.514246 
L 409.65205 116.081909 
L 410.401799 116.447258 
L 410.651716 119.56443 
L 410.901632 118.008245 
L 411.151549 114.873205 
L 411.401465 116.87998 
L 412.151214 117.222688 
L 412.40113 113.805734 
L 412.651047 114.399362 
L 412.900963 115.283255 
L 413.15088 117.273355 
L 413.900629 115.346436 
L 414.150545 113.61264 
L 414.400461 110.864398 
L 414.650378 109.856558 
L 414.900294 110.294605 
L 415.650043 111.247645 
L 415.89996 112.118414 
L 416.149876 109.441705 
L 416.399792 109.092449 
L 417.399458 109.723036 
L 417.649374 111.985504 
L 417.899291 111.646958 
L 418.149207 115.478153 
L 418.399123 112.073131 
L 419.148872 112.189336 
L 419.398789 111.741132 
L 419.648705 114.677696 
L 419.898622 112.387814 
L 420.148538 116.896655 
L 420.898287 120.567527 
L 421.148203 121.187958 
L 421.39812 122.928331 
L 421.648036 123.589301 
L 421.897953 126.205216 
L 422.647702 123.620295 
L 422.897618 120.047207 
L 423.147534 119.982833 
L 423.397451 121.36618 
L 423.647367 118.29432 
L 424.397116 117.328184 
L 424.647033 122.124905 
L 424.896949 123.155998 
L 425.396782 116.635608 
L 426.146531 113.479701 
L 426.396447 113.064878 
L 426.646364 113.066682 
L 426.89628 111.492599 
L 427.146196 110.980021 
L 427.895945 111.055134 
L 428.145862 109.549587 
L 428.395778 105.885904 
L 428.645695 106.544488 
L 428.895611 106.176752 
L 429.64536 105.887097 
L 429.895276 105.095574 
L 430.145193 105.953858 
L 430.395109 108.288441 
L 430.645026 106.090318 
L 431.644691 106.011655 
L 432.144524 110.217135 
L 432.39444 107.7121 
L 433.144189 107.361039 
L 433.394106 106.887807 
L 433.644022 103.151398 
L 433.893938 103.215161 
L 434.143855 103.570965 
L 434.893604 102.748477 
L 435.14352 101.882481 
L 435.393437 99.158102 
L 435.643353 98.400541 
L 435.893269 98.528097 
L 436.892935 95.224408 
L 438.392433 97.55838 
L 438.642349 96.281141 
L 439.142182 95.472331 
L 439.392099 96.806815 
L 440.141848 95.936046 
L 440.64168 92.244919 
L 441.141513 90.446749 
L 441.891262 90.109396 
L 442.141179 89.863249 
L 442.391095 86.47013 
L 442.641011 89.412659 
L 442.890928 87.576335 
L 443.640677 86.630454 
L 443.890593 84.485996 
L 444.14051 89.190347 
L 444.640342 94.153358 
L 445.390091 90.612428 
L 445.640008 91.129168 
L 445.889924 98.794528 
L 446.139841 100.457984 
L 446.389757 96.889058 
L 447.139506 96.624431 
L 447.389422 98.239635 
L 447.639339 93.122265 
L 448.139172 103.596604 
L 448.888921 113.146539 
L 449.138837 109.94596 
L 449.388753 112.361593 
L 449.63867 105.220743 
L 449.888586 103.739642 
L 450.638335 103.725934 
L 450.888252 98.35942 
L 451.138168 97.120915 
L 451.388084 91.875379 
L 451.638001 91.217988 
L 452.38775 87.999511 
L 452.637666 88.662868 
L 452.887583 87.248528 
L 453.137499 90.241113 
L 453.387415 86.428426 
L 454.137165 87.487544 
L 454.387081 86.953518 
L 454.636997 88.957296 
L 454.886914 88.970421 
L 455.13683 85.60652 
L 456.136495 92.727086 
L 456.386412 93.255175 
L 456.636328 94.248115 
L 456.886245 99.909668 
L 457.88591 94.718378 
L 458.385743 88.743947 
L 458.635659 86.940393 
L 459.635325 86.430201 
L 459.885241 87.402915 
L 460.135157 81.718109 
L 460.385074 82.379109 
L 461.134823 81.424293 
L 461.384739 80.568396 
L 461.634656 81.204367 
L 461.884572 79.826957 
L 462.134488 80.256099 
L 462.884238 78.807185 
L 463.134154 82.009568 
L 463.38407 81.962481 
L 463.633987 82.53466 
L 463.883903 79.487247 
L 464.633652 82.773066 
L 465.133485 77.045364 
L 465.383401 77.759999 
L 465.633318 75.675142 
L 466.383067 73.003788 
L 466.632983 75.661435 
L 466.882899 74.039653 
L 467.132816 74.099255 
L 467.382732 72.716519 
L 468.382398 73.519334 
L 468.632314 76.724715 
L 468.88223 75.983277 
L 469.132147 76.086968 
L 469.881896 75.169112 
L 470.131812 74.608864 
L 470.381729 75.756192 
L 470.631645 82.206241 
L 470.881561 80.814572 
L 471.631311 81.774742 
L 471.881227 77.598481 
L 472.131143 68.879969 
L 472.38106 66.253927 
L 472.630976 64.916474 
L 473.380725 64.570187 
L 473.630641 65.604859 
L 473.880558 65.522034 
L 474.130474 67.680199 
L 474.380391 72.361879 
L 475.13014 70.991047 
L 475.380056 69.598766 
L 475.629972 69.591024 
L 476.129805 66.478043 
L 476.879554 65.403413 
L 477.129471 63.361482 
L 477.379387 64.725738 
L 477.87922 62.720767 
L 478.878885 61.677742 
L 479.128802 59.495713 
L 479.378718 60.174 
L 479.628634 59.270433 
L 480.6283 62.569959 
L 480.878216 59.632814 
L 481.128133 61.596081 
L 481.378049 61.605627 
L 482.127798 60.235376 
L 482.377714 61.634234 
L 482.627631 72.270091 
L 482.877547 72.572871 
L 483.127464 68.772087 
L 483.877213 66.19613 
L 484.127129 62.264211 
L 484.626962 62.410246 
L 484.876878 66.388641 
L 485.876544 71.705682 
L 486.376376 72.485273 
L 486.626293 68.079511 
L 487.376042 66.118048 
L 487.625958 70.072608 
L 487.875875 69.523071 
L 488.375707 74.959314 
L 489.125457 74.412162 
L 489.375373 74.013432 
L 489.625289 67.63608 
L 489.875206 68.385289 
L 490.125122 64.849714 
L 491.124787 61.715866 
L 491.62462 57.575372 
L 491.874537 58.616592 
L 492.624286 63.918762 
L 492.874202 60.615626 
L 493.124118 62.307719 
L 493.374035 60.408826 
L 493.623951 62.235021 
L 494.3737 64.9743 
L 494.623617 62.392959 
L 495.123449 59.669774 
L 495.373366 63.101599 
L 496.123115 60.690739 
L 496.373031 60.567957 
L 496.622948 61.553156 
L 496.872864 57.792329 
L 497.12278 57.81855 
L 498.122446 56.927497 
L 498.372362 56.059115 
L 498.622279 57.646294 
L 498.872195 63.868095 
L 499.621944 65.648978 
L 499.87186 67.317818 
L 500.121777 67.269537 
L 500.371693 72.90129 
L 500.62161 67.362519 
L 501.371359 73.607543 
L 501.621275 77.873236 
L 501.871191 74.030137 
L 502.121108 80.235233 
L 502.371024 78.347049 
L 503.37069 90.155901 
L 503.620606 88.532956 
L 503.870522 93.168741 
L 504.120439 86.170347 
L 504.870188 84.013957 
L 505.120104 87.617457 
L 505.370021 84.00383 
L 505.619937 84.742881 
L 505.869853 84.464547 
L 506.619603 78.503823 
L 506.869519 77.962638 
L 507.119435 81.803932 
L 507.369352 82.929811 
L 507.619268 89.62723 
L 508.369017 87.78494 
L 508.618933 86.520215 
L 508.86885 84.261297 
L 509.368683 119.836798 
L 510.118432 120.541888 
L 510.368348 125.279007 
L 510.618264 97.020192 
L 510.868181 108.275927 
L 511.118097 102.595312 
L 511.867846 100.055674 
L 512.117763 100.612371 
L 512.367679 107.819953 
L 512.617595 107.402743 
L 513.617261 114.82312 
L 514.117094 101.850294 
L 514.36701 95.359094 
L 514.616926 92.948816 
L 515.366676 92.737824 
L 515.616592 90.825806 
L 515.866508 90.335288 
L 516.116425 88.244465 
L 516.366341 83.325572 
L 517.11609 85.48851 
L 517.366006 88.079368 
L 517.865839 84.680312 
L 518.115756 84.920493 
L 519.115421 71.412447 
L 519.365337 71.053034 
L 519.615254 69.601734 
L 519.86517 67.131272 
L 520.614919 66.82014 
L 520.864836 68.199325 
L 521.114752 73.912127 
L 521.364668 74.067097 
L 521.614585 76.402873 
L 522.61425 69.32698 
L 522.864167 71.293244 
L 523.114083 69.885452 
L 523.363999 69.914059 
L 524.113749 68.468725 
L 524.363665 66.416637 
L 524.613581 66.390416 
L 524.863498 68.268472 
L 525.113414 64.629206 
L 525.863163 64.300205 
L 526.113079 62.33752 
L 526.362996 63.325105 
L 526.612912 61.953108 
L 526.862829 66.023262 
L 527.612578 62.677259 
L 527.862494 65.680554 
L 528.11241 65.790822 
L 528.612243 66.567445 
L 529.361992 63.150491 
L 529.611909 59.156585 
L 529.861825 59.157778 
L 530.361658 54.335447 
L 531.111407 52.435331 
L 531.361323 52.848991 
L 531.61124 51.096104 
L 531.861156 48.000991 
L 532.860822 50.94352 
L 533.110738 51.20934 
L 533.360654 48.959998 
L 533.610571 47.934842 
L 533.860487 49.169185 
L 534.610236 48.644093 
L 534.860152 50.122226 
L 535.110069 48.933748 
L 535.359985 46.927584 
L 535.609902 46.961546 
L 536.609567 46.196855 
L 536.859483 43.259099 
L 537.1094 42.994472 
L 537.359316 41.487149 
L 538.109065 41.419807 
L 538.358982 42.546879 
L 538.608898 43.021304 
L 538.858814 44.42252 
L 539.108731 50.464934 
L 539.85848 44.985765 
L 540.108396 46.818508 
L 540.358313 44.084584 
L 540.608229 44.386171 
L 540.858145 41.438869 
L 541.607895 42.392492 
L 541.857811 38.082738 
L 542.107727 36.841818 
L 542.107727 36.841818 
" clip-path="url(#p91f3ffa499)" style="fill: none; stroke: #1f77b4; stroke-width: 1.5; stroke-linecap: square"/>
   </g>
   <g id="line2d_15">
    <path d="M 80.262273 236.078182 
L 80.762105 235.174513 
L 81.511855 234.771418 
L 82.261604 233.396889 
L 82.51152 233.066811 
L 83.261269 232.694695 
L 84.260935 230.69358 
L 85.010684 230.235846 
L 86.010349 228.367786 
L 86.760098 227.844775 
L 87.759764 226.02373 
L 88.509513 225.587458 
L 89.509178 223.669343 
L 90.258928 223.167097 
L 90.508844 222.818364 
L 91.008677 221.635547 
L 91.258593 221.745175 
L 92.258259 221.601497 
L 92.508175 221.857553 
L 92.758091 221.45667 
L 93.008008 221.561438 
L 93.757757 221.466666 
L 94.25759 221.089719 
L 94.757422 221.264129 
L 95.507171 221.782469 
L 95.757088 222.13855 
L 96.007004 222.166765 
L 96.506837 222.990548 
L 98.256251 223.002349 
L 99.006001 223.180585 
L 99.255917 223.002989 
L 99.505833 223.282647 
L 100.005666 222.893564 
L 100.755415 222.688015 
L 101.005332 222.200494 
L 101.755081 221.556097 
L 102.754746 221.508952 
L 103.504495 220.931374 
L 104.254244 220.605967 
L 104.504161 220.625262 
L 104.754077 220.489151 
L 105.003994 221.029463 
L 105.25391 221.006385 
L 106.253575 221.32309 
L 106.753408 220.917739 
L 107.003324 220.560524 
L 107.753074 220.370806 
L 108.00299 220.666049 
L 108.252906 220.548956 
L 108.502823 220.147999 
L 109.502488 219.433131 
L 110.002321 218.444935 
L 110.252237 218.145764 
L 110.502154 217.589169 
L 111.251903 217.153202 
L 111.751736 216.10798 
L 113.251234 214.566128 
L 114.000983 212.793321 
L 114.750732 212.059056 
L 115.750397 209.442501 
L 116.500147 208.78738 
L 116.999979 207.433936 
L 117.499812 206.016671 
L 118.249561 205.739065 
L 118.99931 204.163687 
L 119.998976 203.374797 
L 120.748725 201.70021 
L 121.998307 200.958975 
L 122.248223 200.581432 
L 122.49814 200.406978 
L 122.748056 199.976978 
L 123.747721 199.353054 
L 124.49747 198.572634 
L 125.497136 198.455454 
L 126.246885 197.286838 
L 127.246551 196.874561 
L 127.496467 196.662362 
L 127.746383 197.573495 
L 127.9963 197.4876 
L 128.746049 197.769804 
L 129.245882 197.267529 
L 129.745714 196.530659 
L 130.495463 196.095508 
L 131.495129 194.092705 
L 132.494794 193.491292 
L 133.244543 192.187118 
L 134.494125 191.478799 
L 134.744042 191.147862 
L 134.993958 191.333986 
L 135.743707 191.36092 
L 135.993624 190.924212 
L 136.24354 190.832743 
L 136.493456 190.905513 
L 136.743373 191.299805 
L 137.743038 191.052756 
L 138.492787 190.114208 
L 139.242536 189.741336 
L 139.992286 188.614816 
L 140.242202 188.555622 
L 140.991951 188.832894 
L 141.241867 188.424982 
L 142.991282 187.515202 
L 143.491115 187.011806 
L 144.49078 186.615346 
L 144.990613 185.559429 
L 145.490446 184.548285 
L 146.240195 183.906653 
L 147.23986 181.547537 
L 147.989609 180.940668 
L 148.989275 179.088193 
L 149.739024 178.433596 
L 150.738689 176.401632 
L 151.488439 176.038174 
L 151.988271 175.237397 
L 152.488104 174.352077 
L 153.737686 173.338329 
L 153.987602 173.378897 
L 154.237519 173.077805 
L 155.737017 172.143652 
L 155.986933 171.822916 
L 156.736682 171.619695 
L 157.236515 171.069371 
L 157.486432 170.888908 
L 157.736348 170.930903 
L 158.736013 170.772558 
L 158.98593 170.574749 
L 159.485762 170.533424 
L 160.485428 170.020235 
L 162.984592 168.016195 
L 163.734341 168.23746 
L 164.734006 166.98356 
L 165.483755 167.219987 
L 166.483421 165.60941 
L 167.733003 164.913342 
L 167.982919 164.610358 
L 168.232835 164.5218 
L 168.982585 164.066554 
L 169.482417 163.410676 
L 169.98225 162.894489 
L 170.731999 162.740742 
L 170.981916 162.899873 
L 171.731665 161.904867 
L 172.481414 161.570016 
L 173.481079 160.249938 
L 174.230828 159.950738 
L 175.230494 158.461954 
L 175.980243 158.048934 
L 176.979909 156.507475 
L 177.729658 156.060872 
L 178.22949 155.493174 
L 179.479072 154.945586 
L 180.228821 154.010967 
L 180.478738 153.77585 
L 181.228487 153.395716 
L 181.478403 152.999635 
L 181.72832 152.823479 
L 181.978236 152.885001 
L 182.228152 152.591534 
L 183.477734 152.063561 
L 183.977567 151.660756 
L 184.727316 151.537799 
L 185.477065 151.110462 
L 185.726982 151.034243 
L 186.976563 152.021799 
L 187.476396 151.896688 
L 188.476062 151.899831 
L 188.725978 152.266956 
L 188.975894 152.342971 
L 189.225811 152.769814 
L 189.97556 153.209258 
L 190.225476 153.719537 
L 190.975225 154.3989 
L 191.724974 154.57657 
L 192.474724 155.338641 
L 192.72464 155.305552 
L 194.224138 155.284715 
L 195.47372 154.979461 
L 196.223469 154.310604 
L 196.973218 154.070248 
L 197.972884 152.425447 
L 198.722633 151.925732 
L 199.722298 149.82938 
L 200.472047 149.086778 
L 201.471713 146.2473 
L 202.221462 145.603005 
L 202.721295 144.379546 
L 203.221128 143.638748 
L 203.970877 143.279248 
L 204.220793 142.714082 
L 204.470709 142.890617 
L 204.720626 142.805871 
L 204.970542 142.525616 
L 205.720291 142.558181 
L 205.970208 142.319601 
L 206.47004 141.590706 
L 206.719957 141.393247 
L 208.469371 140.532344 
L 209.469037 141.484687 
L 209.96887 141.135692 
L 210.968535 140.854128 
L 211.468368 140.139522 
L 211.968201 139.605437 
L 212.71795 139.299573 
L 212.967866 139.015273 
L 213.217782 138.917838 
L 213.467699 139.100339 
L 213.717615 139.068704 
L 214.967197 139.058606 
L 215.217113 138.96024 
L 215.46703 139.103278 
L 216.466695 139.138695 
L 217.216444 140.206021 
L 217.966193 140.96038 
L 218.965859 144.379342 
L 219.715608 144.97102 
L 220.715274 147.41657 
L 221.465023 147.968204 
L 221.964855 148.94214 
L 222.214772 149.167129 
L 222.464688 149.857813 
L 223.214437 150.599193 
L 223.464354 151.150448 
L 223.964186 151.719688 
L 224.214103 152.360607 
L 225.213768 152.904528 
L 225.963517 155.035308 
L 226.713266 155.304097 
L 227.712932 157.502132 
L 228.462681 158.057723 
L 228.962514 159.998378 
L 229.21243 160.190308 
L 229.462347 160.617558 
L 230.212096 161.128186 
L 230.462012 161.752313 
L 230.961845 162.160268 
L 231.211761 162.18096 
L 231.96151 162.823596 
L 232.211427 162.864019 
L 232.461343 162.720778 
L 232.711259 162.745049 
L 232.961176 162.368466 
L 233.710925 162.057334 
L 234.71059 160.471144 
L 235.460339 159.570546 
L 235.710256 158.987337 
L 236.460005 158.081965 
L 237.45967 157.486155 
L 237.709587 157.171647 
L 237.959503 156.651037 
L 238.959169 156.450231 
L 239.958834 155.425017 
L 240.9585 155.898598 
L 241.458332 156.830161 
L 241.708249 156.909261 
L 242.457998 157.828339 
L 242.957831 159.232931 
L 243.207747 159.4913 
L 243.457663 160.52641 
L 244.207412 161.349072 
L 245.207078 166.334987 
L 245.956827 167.184191 
L 246.956493 171.795065 
L 247.706242 172.977344 
L 248.206074 174.969539 
L 248.705907 176.524968 
L 249.705573 176.910311 
L 250.205405 178.537811 
L 250.455322 178.765696 
L 251.95482 179.665887 
L 252.204736 180.025824 
L 252.954485 180.662799 
L 253.454318 182.36064 
L 253.704235 182.87591 
L 253.954151 184.090827 
L 254.953816 185.620893 
L 255.453649 187.163691 
L 255.703566 187.910673 
L 256.453315 188.956288 
L 257.203064 191.05766 
L 257.45298 191.880701 
L 258.452646 191.624616 
L 258.952478 192.786785 
L 259.202395 193.031186 
L 259.952144 193.279908 
L 260.951809 194.692139 
L 261.701558 194.636219 
L 261.951475 194.790737 
L 262.701224 193.829272 
L 263.450973 193.592918 
L 264.200722 192.178635 
L 264.450639 191.537483 
L 265.200388 190.78778 
L 265.950137 188.829475 
L 266.200053 188.094861 
L 266.949802 187.366504 
L 267.949468 184.191725 
L 268.699217 183.073994 
L 269.698882 179.382358 
L 270.448631 178.704741 
L 270.948464 177.711467 
L 271.448297 176.3333 
L 272.198046 176.286387 
L 272.447962 176.064978 
L 272.697879 176.075396 
L 272.947795 176.238514 
L 273.197712 176.538413 
L 274.197377 176.806416 
L 274.447293 177.186753 
L 274.69721 177.298477 
L 274.947126 177.55836 
L 275.946792 177.747786 
L 276.196708 178.677036 
L 276.696541 179.870709 
L 277.696206 181.906513 
L 278.445955 184.817641 
L 279.195704 186.139742 
L 280.19537 190.660429 
L 280.945119 192.12903 
L 281.944785 195.475572 
L 282.694534 196.681264 
L 283.694199 200.044364 
L 284.943781 201.663861 
L 285.443614 202.643865 
L 286.443279 202.850054 
L 286.693196 202.715093 
L 287.193028 202.674408 
L 288.192694 201.916745 
L 288.44261 201.450731 
L 288.942443 201.500073 
L 289.692192 201.242097 
L 290.192025 200.376479 
L 290.441941 200.323018 
L 290.691858 199.384761 
L 291.441607 198.726658 
L 291.941439 197.350194 
L 292.441272 195.918042 
L 293.191021 195.063222 
L 294.190687 192.310163 
L 295.190352 190.661214 
L 295.940101 188.804447 
L 296.939767 187.880203 
L 297.4396 187.261853 
L 297.689516 186.765601 
L 298.439265 186.45182 
L 298.939098 185.510813 
L 299.189014 185.218452 
L 299.438931 185.318666 
L 300.18868 185.858454 
L 300.688512 185.883584 
L 300.938429 185.698523 
L 301.188345 185.958828 
L 302.188011 185.87091 
L 302.437927 186.001885 
L 302.687843 186.292136 
L 302.93776 186.236027 
L 303.937425 186.428655 
L 304.187342 186.963351 
L 304.437258 187.230786 
L 304.687174 187.666447 
L 305.436923 187.692435 
L 305.68684 187.956654 
L 306.186673 188.060579 
L 306.436589 188.109485 
L 307.686171 188.041924 
L 308.186004 188.264323 
L 308.935753 188.01611 
L 309.935418 186.825435 
L 310.935084 186.226642 
L 311.434916 185.311754 
L 311.684833 184.809143 
L 312.434582 184.476912 
L 312.684498 184.080568 
L 313.184331 183.048253 
L 313.434247 182.655489 
L 314.183996 182.121943 
L 314.683829 180.876759 
L 315.183662 179.994874 
L 316.433244 179.496061 
L 316.933077 178.900585 
L 317.682826 178.815825 
L 317.932742 178.60009 
L 318.182658 178.668087 
L 319.682157 178.28775 
L 319.932073 178.451654 
L 320.181989 178.422188 
L 320.431906 178.827567 
L 321.181655 179.485511 
L 321.431571 180.167246 
L 321.681488 180.46406 
L 321.931404 181.212381 
L 322.18132 181.490817 
L 323.180986 183.155582 
L 323.430902 183.352314 
L 323.930735 184.054231 
L 325.180317 184.293772 
L 325.68015 183.847081 
L 326.679815 183.375494 
L 327.179648 182.787541 
L 328.179313 182.318019 
L 329.178979 180.302033 
L 329.928728 179.785061 
L 330.928393 177.636383 
L 331.678142 177.129596 
L 331.928059 176.605756 
L 332.427892 176.166108 
L 332.677808 175.597101 
L 334.177306 174.712537 
L 334.427223 174.693825 
L 335.176972 174.266313 
L 335.926721 173.498275 
L 336.176637 173.266708 
L 336.926386 173.021027 
L 337.926052 171.936648 
L 338.675801 171.715616 
L 338.925717 171.444791 
L 339.175634 171.407889 
L 339.675466 170.819732 
L 340.925048 170.246651 
L 341.174965 170.420799 
L 341.424881 170.229859 
L 342.17463 169.887325 
L 343.174296 168.636219 
L 343.924045 168.25594 
L 344.92371 166.252424 
L 345.923376 166.05191 
L 346.673125 164.66248 
L 347.422874 164.545926 
L 348.172623 163.079056 
L 348.422539 162.514035 
L 349.172288 161.843112 
L 350.171954 160.128582 
L 350.921703 159.741114 
L 351.921369 157.791321 
L 352.671118 157.335027 
L 353.670783 155.358256 
L 354.420532 154.843845 
L 355.420198 152.978448 
L 356.169947 152.375275 
L 356.66978 151.554999 
L 357.169612 151.055837 
L 357.919361 150.790133 
L 358.419194 150.042089 
L 358.919027 149.691086 
L 359.668776 149.497062 
L 359.918692 149.270122 
L 360.418525 149.318665 
L 360.668442 149.477854 
L 361.668107 149.702524 
L 362.417856 150.291902 
L 365.666769 150.875665 
L 365.916685 151.071727 
L 367.166267 151.256904 
L 367.6661 151.272881 
L 368.415849 151.873203 
L 368.665765 151.828531 
L 369.165598 152.042927 
L 369.415515 152.365555 
L 370.41518 152.604979 
L 371.164929 153.608483 
L 371.914678 153.944876 
L 372.164595 152.130583 
L 372.914344 152.894488 
L 373.914009 153.399849 
L 374.413842 153.982127 
L 374.663758 154.434201 
L 375.663424 155.024104 
L 376.163257 155.829043 
L 376.413173 156.389611 
L 377.162922 157.04837 
L 377.912671 158.602256 
L 378.162588 159.340871 
L 378.912337 159.960778 
L 379.662086 161.141369 
L 379.912002 161.310395 
L 381.161584 161.585935 
L 382.411166 161.239473 
L 382.910999 160.578968 
L 383.410831 159.714515 
L 384.16058 159.159477 
L 384.660413 157.846499 
L 385.160246 157.050611 
L 385.909995 156.066227 
L 386.909661 153.667066 
L 387.65941 153.006008 
L 388.409159 151.198671 
L 388.659075 150.389133 
L 389.408824 149.591207 
L 390.40849 146.408905 
L 391.158239 146.223873 
L 392.157904 142.804736 
L 393.15757 141.836009 
L 393.907319 138.852184 
L 394.906984 138.046575 
L 395.656734 136.368102 
L 396.406483 135.816411 
L 397.156232 133.938559 
L 397.406148 133.434013 
L 398.405814 132.88171 
L 399.155563 131.628916 
L 399.905312 131.060666 
L 400.904977 128.989574 
L 401.654726 128.430724 
L 402.154559 127.270359 
L 402.404476 127.091118 
L 402.654392 126.595273 
L 403.404141 126.006302 
L 404.403807 124.136337 
L 405.153556 123.539944 
L 405.403472 122.986041 
L 405.653388 122.704796 
L 406.153221 121.533227 
L 407.152887 121.039565 
L 407.652719 120.179361 
L 407.902636 119.432131 
L 408.652385 118.807422 
L 409.65205 116.701554 
L 410.401799 116.087351 
L 411.401465 114.050455 
L 412.151214 113.58153 
L 413.15088 111.566344 
L 413.900629 111.770206 
L 414.900294 109.630229 
L 415.650043 109.032993 
L 416.399792 107.441914 
L 417.399458 106.924738 
L 417.899291 105.972716 
L 418.399123 105.231481 
L 419.148872 104.647865 
L 419.648705 103.761381 
L 419.898622 103.563631 
L 420.148538 103.14354 
L 421.897953 103.101342 
L 423.397451 103.724246 
L 423.647367 104.061338 
L 424.647033 104.273144 
L 425.146865 105.09147 
L 425.396782 105.320389 
L 427.146196 105.369397 
L 428.395778 105.067083 
L 428.895611 104.443742 
L 429.64536 104.068963 
L 430.645026 102.440109 
L 431.644691 101.814644 
L 432.39444 100.675698 
L 433.144189 100.392329 
L 433.893938 98.771886 
L 434.143855 98.185185 
L 434.893604 97.602616 
L 435.893269 94.795907 
L 436.643018 94.105601 
L 436.892935 93.302408 
L 437.392768 92.542461 
L 437.642684 91.883091 
L 438.392433 91.546407 
L 439.392099 88.90203 
L 440.141848 88.915883 
L 441.141513 86.803816 
L 441.891262 86.151518 
L 442.890928 83.590257 
L 443.640677 82.905685 
L 444.390426 81.184054 
L 444.640342 80.748451 
L 445.390091 80.353475 
L 445.889924 79.22844 
L 446.389757 79.077021 
L 447.139506 78.700584 
L 447.389422 78.438518 
L 447.639339 78.340385 
L 447.889255 78.053029 
L 448.888921 78.546865 
L 449.138837 79.355443 
L 449.388753 79.683309 
L 449.63867 80.254906 
L 449.888586 80.439385 
L 450.638335 80.758666 
L 450.888252 81.139236 
L 451.638001 81.546551 
L 452.637666 81.563955 
L 453.387415 81.441812 
L 454.387081 81.069507 
L 454.886914 80.746094 
L 455.13683 80.565951 
L 456.136495 80.399282 
L 456.386412 80.549101 
L 456.886245 80.378009 
L 457.635994 80.559578 
L 458.385743 80.064461 
L 458.635659 79.759906 
L 459.385408 79.395109 
L 460.135157 78.271675 
L 460.385074 77.623131 
L 461.134823 77.764364 
L 462.134488 75.397448 
L 462.884238 74.789997 
L 463.883903 72.627874 
L 464.633652 71.966845 
L 464.883568 71.554845 
L 465.633318 69.729609 
L 466.383067 69.064535 
L 466.882899 67.878997 
L 467.382732 66.601728 
L 468.132481 65.930892 
L 469.132147 64.055746 
L 469.881896 63.609405 
L 470.631645 62.347356 
L 470.881561 62.338567 
L 471.881227 61.866238 
L 472.630976 60.845098 
L 473.380725 60.378734 
L 474.380391 58.307003 
L 475.13014 57.990312 
L 476.129805 55.84955 
L 476.879554 55.305454 
L 477.129471 54.904716 
L 477.379387 54.253989 
L 478.878885 52.513907 
L 479.628634 50.712623 
L 480.378384 50.049965 
L 480.878216 49.034325 
L 481.378049 47.828182 
L 482.127798 47.233041 
L 482.627631 46.241352 
L 482.877547 46.287014 
L 483.127464 46.093135 
L 483.877213 46.482261 
L 484.876878 45.422357 
L 485.876544 45.429603 
L 486.376376 45.426315 
L 486.626293 45.553666 
L 487.625958 45.55614 
L 487.875875 45.804004 
L 488.375707 45.972593 
L 489.125457 46.450947 
L 489.625289 47.032439 
L 489.875206 47.073677 
L 490.125122 47.253849 
L 491.374704 47.219305 
L 491.874537 46.897375 
L 492.624286 46.739088 
L 492.874202 46.912072 
L 493.623951 46.33544 
L 494.623617 46.144442 
L 495.373366 45.51723 
L 496.123115 45.442903 
L 496.622948 44.880444 
L 498.122446 45.246172 
L 498.622279 46.360934 
L 498.872195 47.27131 
L 499.621944 48.570697 
L 500.371693 52.701879 
L 500.62161 54.405874 
L 501.371359 55.961826 
L 502.371024 63.252727 
L 503.120773 65.064663 
L 504.120439 73.655969 
L 504.870188 75.350332 
L 505.869853 82.264359 
L 506.619603 84.698966 
L 507.619268 89.79707 
L 508.369017 91.16412 
L 510.118432 98.856079 
L 510.868181 104.881119 
L 511.118097 106.967809 
L 511.867846 108.327612 
L 512.617595 112.058318 
L 513.617261 113.169355 
L 514.117094 115.381243 
L 514.616926 116.628798 
L 515.366676 117.011755 
L 516.116425 117.883338 
L 517.615923 116.949476 
L 518.115756 116.019077 
L 518.865505 115.358456 
L 519.86517 110.948969 
L 520.614919 109.588904 
L 521.614585 104.187554 
L 522.61425 102.936768 
L 523.363999 98.551815 
L 524.113749 97.406379 
L 525.113414 92.082442 
L 525.863163 90.527479 
L 526.862829 84.954921 
L 527.612578 83.874237 
L 528.11241 81.508719 
L 528.612243 80.462405 
L 529.361992 79.908851 
L 530.361658 75.711491 
L 531.111407 75.123334 
L 531.861156 72.212992 
L 532.860822 70.938226 
L 533.860487 67.475436 
L 534.610236 66.620062 
L 535.609902 63.576199 
L 536.359651 62.836303 
L 537.359316 59.781585 
L 538.109065 58.852 
L 538.858814 56.435524 
L 539.108731 55.77921 
L 539.85848 55.380945 
L 540.858145 48.175401 
L 541.607895 46.467739 
L 542.107727 43.476172 
L 542.107727 43.476172 
" clip-path="url(#p91f3ffa499)" style="fill: none; stroke-dasharray: 5.55,2.4; stroke-dashoffset: 0; stroke: #ff7f0e; stroke-width: 1.5"/>
   </g>
   <g id="patch_3">
    <path d="M 57.17 246.04 
L 57.17 26.88 
" style="fill: none; stroke: #000000; stroke-width: 0.8; stroke-linejoin: miter; stroke-linecap: square"/>
   </g>
   <g id="patch_4">
    <path d="M 565.2 246.04 
L 565.2 26.88 
" style="fill: none; stroke: #000000; stroke-width: 0.8; stroke-linejoin: miter; stroke-linecap: square"/>
   </g>
   <g id="patch_5">
    <path d="M 57.17 246.04 
L 565.2 246.04 
" style="fill: none; stroke: #000000; stroke-width: 0.8; stroke-linejoin: miter; stroke-linecap: square"/>
   </g>
   <g id="patch_6">
    <path d="M 57.17 26.88 
L 565.2 26.88 
" style="fill: none; stroke: #000000; stroke-width: 0.8; stroke-linejoin: miter; stroke-linecap: square"/>
   </g>
   <g id="text_16">
    <!-- LSTM-1_Units-200_Dense-1: Real vs Predicted (Test) -->
    <g transform="translate(155.418437 20.88) scale(0.12 -0.12)">
     <defs>
      <path id="DejaVuSans-4c" d="M 628 4666 
L 1259 4666 
L 1259 531 
L 3531 531 
L 3531 0 
L 628 0 
L 628 4666 
z
" transform="scale(0.015625)"/>
      <path id="DejaVuSans-54" d="M -19 4666 
L 3928 4666 
L 3928 4134 
L 2272 4134 
L 2272 0 
L 1638 0 
L 1638 4134 
L -19 4134 
L -19 4666 
z
" transform="scale(0.015625)"/>
      <path id="DejaVuSans-4d" d="M 628 4666 
L 1569 4666 
L 2759 1491 
L 3956 4666 
L 4897 4666 
L 4897 0 
L 4281 0 
L 4281 4097 
L 3078 897 
L 2444 897 
L 1241 4097 
L 1241 0 
L 628 0 
L 628 4666 
z
" transform="scale(0.015625)"/>
      <path id="DejaVuSans-2d" d="M 313 2009 
L 1997 2009 
L 1997 1497 
L 313 1497 
L 313 2009 
z
" transform="scale(0.015625)"/>
      <path id="DejaVuSans-5f" d="M 3263 -1063 
L 3263 -1509 
L -63 -1509 
L -63 -1063 
L 3263 -1063 
z
" transform="scale(0.015625)"/>
      <path id="DejaVuSans-55" d="M 556 4666 
L 1191 4666 
L 1191 1831 
Q 1191 1081 1462 751 
Q 1734 422 2344 422 
Q 2950 422 3222 751 
Q 3494 1081 3494 1831 
L 3494 4666 
L 4128 4666 
L 4128 1753 
Q 4128 841 3676 375 
Q 3225 -91 2344 -91 
Q 1459 -91 1007 375 
Q 556 841 556 1753 
L 556 4666 
z
" transform="scale(0.015625)"/>
      <path id="DejaVuSans-6e" d="M 3513 2113 
L 3513 0 
L 2938 0 
L 2938 2094 
Q 2938 2591 2744 2837 
Q 2550 3084 2163 3084 
Q 1697 3084 1428 2787 
Q 1159 2491 1159 1978 
L 1159 0 
L 581 0 
L 581 3500 
L 1159 3500 
L 1159 2956 
Q 1366 3272 1645 3428 
Q 1925 3584 2291 3584 
Q 2894 3584 3203 3211 
Q 3513 2838 3513 2113 
z
" transform="scale(0.015625)"/>
      <path id="DejaVuSans-73" d="M 2834 3397 
L 2834 2853 
Q 2591 2978 2328 3040 
Q 2066 3103 1784 3103 
Q 1356 3103 1142 2972 
Q 928 2841 928 2578 
Q 928 2378 1081 2264 
Q 1234 2150 1697 2047 
L 1894 2003 
Q 2506 1872 2764 1633 
Q 3022 1394 3022 966 
Q 3022 478 2636 193 
Q 2250 -91 1575 -91 
Q 1294 -91 989 -36 
Q 684 19 347 128 
L 347 722 
Q 666 556 975 473 
Q 1284 391 1588 391 
Q 1994 391 2212 530 
Q 2431 669 2431 922 
Q 2431 1156 2273 1281 
Q 2116 1406 1581 1522 
L 1381 1569 
Q 847 1681 609 1914 
Q 372 2147 372 2553 
Q 372 3047 722 3315 
Q 1072 3584 1716 3584 
Q 2034 3584 2315 3537 
Q 2597 3491 2834 3397 
z
" transform="scale(0.015625)"/>
      <path id="DejaVuSans-3a" d="M 750 794 
L 1409 794 
L 1409 0 
L 750 0 
L 750 794 
z
M 750 3309 
L 1409 3309 
L 1409 2516 
L 750 2516 
L 750 3309 
z
" transform="scale(0.015625)"/>
      <path id="DejaVuSans-52" d="M 2841 2188 
Q 3044 2119 3236 1894 
Q 3428 1669 3622 1275 
L 4263 0 
L 3584 0 
L 2988 1197 
Q 2756 1666 2539 1819 
Q 2322 1972 1947 1972 
L 1259 1972 
L 1259 0 
L 628 0 
L 628 4666 
L 2053 4666 
Q 2853 4666 3247 4331 
Q 3641 3997 3641 3322 
Q 3641 2881 3436 2590 
Q 3231 2300 2841 2188 
z
M 1259 4147 
L 1259 2491 
L 2053 2491 
Q 2509 2491 2742 2702 
Q 2975 2913 2975 3322 
Q 2975 3731 2742 3939 
Q 2509 4147 2053 4147 
L 1259 4147 
z
" transform="scale(0.015625)"/>
      <path id="DejaVuSans-6c" d="M 603 4863 
L 1178 4863 
L 1178 0 
L 603 0 
L 603 4863 
z
" transform="scale(0.015625)"/>
      <path id="DejaVuSans-76" d="M 191 3500 
L 800 3500 
L 1894 563 
L 2988 3500 
L 3597 3500 
L 2284 0 
L 1503 0 
L 191 3500 
z
" transform="scale(0.015625)"/>
      <path id="DejaVuSans-64" d="M 2906 2969 
L 2906 4863 
L 3481 4863 
L 3481 0 
L 2906 0 
L 2906 525 
Q 2725 213 2448 61 
Q 2172 -91 1784 -91 
Q 1150 -91 751 415 
Q 353 922 353 1747 
Q 353 2572 751 3078 
Q 1150 3584 1784 3584 
Q 2172 3584 2448 3432 
Q 2725 3281 2906 2969 
z
M 947 1747 
Q 947 1113 1208 752 
Q 1469 391 1925 391 
Q 2381 391 2643 752 
Q 2906 1113 2906 1747 
Q 2906 2381 2643 2742 
Q 2381 3103 1925 3103 
Q 1469 3103 1208 2742 
Q 947 2381 947 1747 
z
" transform="scale(0.015625)"/>
      <path id="DejaVuSans-28" d="M 1984 4856 
Q 1566 4138 1362 3434 
Q 1159 2731 1159 2009 
Q 1159 1288 1364 580 
Q 1569 -128 1984 -844 
L 1484 -844 
Q 1016 -109 783 600 
Q 550 1309 550 2009 
Q 550 2706 781 3412 
Q 1013 4119 1484 4856 
L 1984 4856 
z
" transform="scale(0.015625)"/>
      <path id="DejaVuSans-29" d="M 513 4856 
L 1013 4856 
Q 1481 4119 1714 3412 
Q 1947 2706 1947 2009 
Q 1947 1309 1714 600 
Q 1481 -109 1013 -844 
L 513 -844 
Q 928 -128 1133 580 
Q 1338 1288 1338 2009 
Q 1338 2731 1133 3434 
Q 928 4138 513 4856 
z
" transform="scale(0.015625)"/>
     </defs>
     <use xlink:href="#DejaVuSans-4c"/>
     <use xlink:href="#DejaVuSans-53" x="55.712891"/>
     <use xlink:href="#DejaVuSans-54" x="119.189453"/>
     <use xlink:href="#DejaVuSans-4d" x="180.273438"/>
     <use xlink:href="#DejaVuSans-2d" x="266.552734"/>
     <use xlink:href="#DejaVuSans-31" x="302.636719"/>
     <use xlink:href="#DejaVuSans-5f" x="366.259766"/>
     <use xlink:href="#DejaVuSans-55" x="416.259766"/>
     <use xlink:href="#DejaVuSans-6e" x="489.453125"/>
     <use xlink:href="#DejaVuSans-69" x="552.832031"/>
     <use xlink:href="#DejaVuSans-74" x="580.615234"/>
     <use xlink:href="#DejaVuSans-73" x="619.824219"/>
     <use xlink:href="#DejaVuSans-2d" x="671.923828"/>
     <use xlink:href="#DejaVuSans-32" x="708.007812"/>
     <use xlink:href="#DejaVuSans-30" x="771.630859"/>
     <use xlink:href="#DejaVuSans-30" x="835.253906"/>
     <use xlink:href="#DejaVuSans-5f" x="898.876953"/>
     <use xlink:href="#DejaVuSans-44" x="948.876953"/>
     <use xlink:href="#DejaVuSans-65" x="1025.878906"/>
     <use xlink:href="#DejaVuSans-6e" x="1087.402344"/>
     <use xlink:href="#DejaVuSans-73" x="1150.78125"/>
     <use xlink:href="#DejaVuSans-65" x="1202.880859"/>
     <use xlink:href="#DejaVuSans-2d" x="1264.404297"/>
     <use xlink:href="#DejaVuSans-31" x="1300.488281"/>
     <use xlink:href="#DejaVuSans-3a" x="1364.111328"/>
     <use xlink:href="#DejaVuSans-20" x="1397.802734"/>
     <use xlink:href="#DejaVuSans-52" x="1429.589844"/>
     <use xlink:href="#DejaVuSans-65" x="1494.572266"/>
     <use xlink:href="#DejaVuSans-61" x="1556.095703"/>
     <use xlink:href="#DejaVuSans-6c" x="1617.375"/>
     <use xlink:href="#DejaVuSans-20" x="1645.158203"/>
     <use xlink:href="#DejaVuSans-76" x="1676.945312"/>
     <use xlink:href="#DejaVuSans-73" x="1736.125"/>
     <use xlink:href="#DejaVuSans-20" x="1788.224609"/>
     <use xlink:href="#DejaVuSans-50" x="1820.011719"/>
     <use xlink:href="#DejaVuSans-72" x="1878.564453"/>
     <use xlink:href="#DejaVuSans-65" x="1917.427734"/>
     <use xlink:href="#DejaVuSans-64" x="1978.951172"/>
     <use xlink:href="#DejaVuSans-69" x="2042.427734"/>
     <use xlink:href="#DejaVuSans-63" x="2070.210938"/>
     <use xlink:href="#DejaVuSans-74" x="2125.191406"/>
     <use xlink:href="#DejaVuSans-65" x="2164.400391"/>
     <use xlink:href="#DejaVuSans-64" x="2225.923828"/>
     <use xlink:href="#DejaVuSans-20" x="2289.400391"/>
     <use xlink:href="#DejaVuSans-28" x="2321.1875"/>
     <use xlink:href="#DejaVuSans-54" x="2360.201172"/>
     <use xlink:href="#DejaVuSans-65" x="2404.285156"/>
     <use xlink:href="#DejaVuSans-73" x="2465.808594"/>
     <use xlink:href="#DejaVuSans-74" x="2517.908203"/>
     <use xlink:href="#DejaVuSans-29" x="2557.117188"/>
    </g>
   </g>
   <g id="legend_1">
    <g id="patch_7">
     <path d="M 64.17 64.23625 
L 175.893438 64.23625 
Q 177.893438 64.23625 177.893438 62.23625 
L 177.893438 33.88 
Q 177.893438 31.88 175.893438 31.88 
L 64.17 31.88 
Q 62.17 31.88 62.17 33.88 
L 62.17 62.23625 
Q 62.17 64.23625 64.17 64.23625 
z
" style="fill: #ffffff; opacity: 0.8; stroke: #cccccc; stroke-linejoin: miter"/>
    </g>
    <g id="line2d_16">
     <path d="M 66.17 39.978438 
L 76.17 39.978438 
L 86.17 39.978438 
" style="fill: none; stroke: #1f77b4; stroke-width: 1.5; stroke-linecap: square"/>
    </g>
    <g id="text_17">
     <!-- Real Prices -->
     <g transform="translate(94.17 43.478438) scale(0.1 -0.1)">
      <use xlink:href="#DejaVuSans-52"/>
      <use xlink:href="#DejaVuSans-65" x="64.982422"/>
      <use xlink:href="#DejaVuSans-61" x="126.505859"/>
      <use xlink:href="#DejaVuSans-6c" x="187.785156"/>
      <use xlink:href="#DejaVuSans-20" x="215.568359"/>
      <use xlink:href="#DejaVuSans-50" x="247.355469"/>
      <use xlink:href="#DejaVuSans-72" x="305.908203"/>
      <use xlink:href="#DejaVuSans-69" x="347.021484"/>
      <use xlink:href="#DejaVuSans-63" x="374.804688"/>
      <use xlink:href="#DejaVuSans-65" x="429.785156"/>
      <use xlink:href="#DejaVuSans-73" x="491.308594"/>
     </g>
    </g>
    <g id="line2d_17">
     <path d="M 66.17 54.656563 
L 76.17 54.656563 
L 86.17 54.656563 
" style="fill: none; stroke-dasharray: 5.55,2.4; stroke-dashoffset: 0; stroke: #ff7f0e; stroke-width: 1.5"/>
    </g>
    <g id="text_18">
     <!-- Predicted Prices -->
     <g transform="translate(94.17 58.156563) scale(0.1 -0.1)">
      <use xlink:href="#DejaVuSans-50"/>
      <use xlink:href="#DejaVuSans-72" x="58.552734"/>
      <use xlink:href="#DejaVuSans-65" x="97.416016"/>
      <use xlink:href="#DejaVuSans-64" x="158.939453"/>
      <use xlink:href="#DejaVuSans-69" x="222.416016"/>
      <use xlink:href="#DejaVuSans-63" x="250.199219"/>
      <use xlink:href="#DejaVuSans-74" x="305.179688"/>
      <use xlink:href="#DejaVuSans-65" x="344.388672"/>
      <use xlink:href="#DejaVuSans-64" x="405.912109"/>
      <use xlink:href="#DejaVuSans-20" x="469.388672"/>
      <use xlink:href="#DejaVuSans-50" x="501.175781"/>
      <use xlink:href="#DejaVuSans-72" x="559.728516"/>
      <use xlink:href="#DejaVuSans-69" x="600.841797"/>
      <use xlink:href="#DejaVuSans-63" x="628.625"/>
      <use xlink:href="#DejaVuSans-65" x="683.605469"/>
      <use xlink:href="#DejaVuSans-73" x="745.128906"/>
     </g>
    </g>
   </g>
  </g>
 </g>
 <defs>
  <clipPath id="p91f3ffa499">
   <rect x="57.17" y="26.88" width="508.03" height="219.16"/>
  </clipPath>
 </defs>
</svg>
