<?xml version="1.0" encoding="utf-8" standalone="no"?>
<!DOCTYPE svg PUBLIC "-//W3C//DTD SVG 1.1//EN"
  "http://www.w3.org/Graphics/SVG/1.1/DTD/svg11.dtd">
<svg xmlns:xlink="http://www.w3.org/1999/xlink" width="576pt" height="288pt" viewBox="0 0 576 288" xmlns="http://www.w3.org/2000/svg" version="1.1">
 <metadata>
  <rdf:RDF xmlns:dc="http://purl.org/dc/elements/1.1/" xmlns:cc="http://creativecommons.org/ns#" xmlns:rdf="http://www.w3.org/1999/02/22-rdf-syntax-ns#">
   <cc:Work>
    <dc:type rdf:resource="http://purl.org/dc/dcmitype/StillImage"/>
    <dc:date>2025-08-14T15:55:47.562943</dc:date>
    <dc:format>image/svg+xml</dc:format>
    <dc:creator>
     <cc:Agent>
      <dc:title>Matplotlib v3.9.4, https://matplotlib.org/</dc:title>
     </cc:Agent>
    </dc:creator>
   </cc:Work>
  </rdf:RDF>
 </metadata>
 <defs>
  <style type="text/css">*{stroke-linejoin: round; stroke-linecap: butt}</style>
 </defs>
 <g id="figure_1">
  <g id="patch_1">
   <path d="M 0 288 
L 576 288 
L 576 0 
L 0 0 
z
" style="fill: #ffffff"/>
  </g>
  <g id="axes_1">
   <g id="patch_2">
    <path d="M 57.17 246.04 
L 565.2 246.04 
L 565.2 26.88 
L 57.17 26.88 
z
" style="fill: #ffffff"/>
   </g>
   <g id="matplotlib.axis_1">
    <g id="xtick_1">
     <g id="line2d_1">
      <defs>
       <path id="m0a3446bd7c" d="M 0 0 
L 0 3.5 
" style="stroke: #000000; stroke-width: 0.8"/>
      </defs>
      <g>
       <use xlink:href="#m0a3446bd7c" x="105.092674" y="246.04" style="stroke: #000000; stroke-width: 0.8"/>
      </g>
     </g>
     <g id="text_1">
      <!-- 2022-01 -->
      <g transform="translate(84.201267 260.638438) scale(0.1 -0.1)">
       <defs>
        <path id="DejaVuSans-32" d="M 1228 531 
L 3431 531 
L 3431 0 
L 469 0 
L 469 531 
Q 828 903 1448 1529 
Q 2069 2156 2228 2338 
Q 2531 2678 2651 2914 
Q 2772 3150 2772 3378 
Q 2772 3750 2511 3984 
Q 2250 4219 1831 4219 
Q 1534 4219 1204 4116 
Q 875 4013 500 3803 
L 500 4441 
Q 881 4594 1212 4672 
Q 1544 4750 1819 4750 
Q 2544 4750 2975 4387 
Q 3406 4025 3406 3419 
Q 3406 3131 3298 2873 
Q 3191 2616 2906 2266 
Q 2828 2175 2409 1742 
Q 1991 1309 1228 531 
z
" transform="scale(0.015625)"/>
        <path id="DejaVuSans-30" d="M 2034 4250 
Q 1547 4250 1301 3770 
Q 1056 3291 1056 2328 
Q 1056 1369 1301 889 
Q 1547 409 2034 409 
Q 2525 409 2770 889 
Q 3016 1369 3016 2328 
Q 3016 3291 2770 3770 
Q 2525 4250 2034 4250 
z
M 2034 4750 
Q 2819 4750 3233 4129 
Q 3647 3509 3647 2328 
Q 3647 1150 3233 529 
Q 2819 -91 2034 -91 
Q 1250 -91 836 529 
Q 422 1150 422 2328 
Q 422 3509 836 4129 
Q 1250 4750 2034 4750 
z
" transform="scale(0.015625)"/>
        <path id="DejaVuSans-2d" d="M 313 2009 
L 1997 2009 
L 1997 1497 
L 313 1497 
L 313 2009 
z
" transform="scale(0.015625)"/>
        <path id="DejaVuSans-31" d="M 794 531 
L 1825 531 
L 1825 4091 
L 703 3866 
L 703 4441 
L 1819 4666 
L 2450 4666 
L 2450 531 
L 3481 531 
L 3481 0 
L 794 0 
L 794 531 
z
" transform="scale(0.015625)"/>
       </defs>
       <use xlink:href="#DejaVuSans-32"/>
       <use xlink:href="#DejaVuSans-30" x="63.623047"/>
       <use xlink:href="#DejaVuSans-32" x="127.246094"/>
       <use xlink:href="#DejaVuSans-32" x="190.869141"/>
       <use xlink:href="#DejaVuSans-2d" x="254.492188"/>
       <use xlink:href="#DejaVuSans-30" x="290.576172"/>
       <use xlink:href="#DejaVuSans-31" x="354.199219"/>
      </g>
     </g>
    </g>
    <g id="xtick_2">
     <g id="line2d_2">
      <g>
       <use xlink:href="#m0a3446bd7c" x="165.016707" y="246.04" style="stroke: #000000; stroke-width: 0.8"/>
      </g>
     </g>
     <g id="text_2">
      <!-- 2022-07 -->
      <g transform="translate(144.125301 260.638438) scale(0.1 -0.1)">
       <defs>
        <path id="DejaVuSans-37" d="M 525 4666 
L 3525 4666 
L 3525 4397 
L 1831 0 
L 1172 0 
L 2766 4134 
L 525 4134 
L 525 4666 
z
" transform="scale(0.015625)"/>
       </defs>
       <use xlink:href="#DejaVuSans-32"/>
       <use xlink:href="#DejaVuSans-30" x="63.623047"/>
       <use xlink:href="#DejaVuSans-32" x="127.246094"/>
       <use xlink:href="#DejaVuSans-32" x="190.869141"/>
       <use xlink:href="#DejaVuSans-2d" x="254.492188"/>
       <use xlink:href="#DejaVuSans-30" x="290.576172"/>
       <use xlink:href="#DejaVuSans-37" x="354.199219"/>
      </g>
     </g>
    </g>
    <g id="xtick_3">
     <g id="line2d_3">
      <g>
       <use xlink:href="#m0a3446bd7c" x="225.933957" y="246.04" style="stroke: #000000; stroke-width: 0.8"/>
      </g>
     </g>
     <g id="text_3">
      <!-- 2023-01 -->
      <g transform="translate(205.042551 260.638438) scale(0.1 -0.1)">
       <defs>
        <path id="DejaVuSans-33" d="M 2597 2516 
Q 3050 2419 3304 2112 
Q 3559 1806 3559 1356 
Q 3559 666 3084 287 
Q 2609 -91 1734 -91 
Q 1441 -91 1130 -33 
Q 819 25 488 141 
L 488 750 
Q 750 597 1062 519 
Q 1375 441 1716 441 
Q 2309 441 2620 675 
Q 2931 909 2931 1356 
Q 2931 1769 2642 2001 
Q 2353 2234 1838 2234 
L 1294 2234 
L 1294 2753 
L 1863 2753 
Q 2328 2753 2575 2939 
Q 2822 3125 2822 3475 
Q 2822 3834 2567 4026 
Q 2313 4219 1838 4219 
Q 1578 4219 1281 4162 
Q 984 4106 628 3988 
L 628 4550 
Q 988 4650 1302 4700 
Q 1616 4750 1894 4750 
Q 2613 4750 3031 4423 
Q 3450 4097 3450 3541 
Q 3450 3153 3228 2886 
Q 3006 2619 2597 2516 
z
" transform="scale(0.015625)"/>
       </defs>
       <use xlink:href="#DejaVuSans-32"/>
       <use xlink:href="#DejaVuSans-30" x="63.623047"/>
       <use xlink:href="#DejaVuSans-32" x="127.246094"/>
       <use xlink:href="#DejaVuSans-33" x="190.869141"/>
       <use xlink:href="#DejaVuSans-2d" x="254.492188"/>
       <use xlink:href="#DejaVuSans-30" x="290.576172"/>
       <use xlink:href="#DejaVuSans-31" x="354.199219"/>
      </g>
     </g>
    </g>
    <g id="xtick_4">
     <g id="line2d_4">
      <g>
       <use xlink:href="#m0a3446bd7c" x="285.857991" y="246.04" style="stroke: #000000; stroke-width: 0.8"/>
      </g>
     </g>
     <g id="text_4">
      <!-- 2023-07 -->
      <g transform="translate(264.966585 260.638438) scale(0.1 -0.1)">
       <use xlink:href="#DejaVuSans-32"/>
       <use xlink:href="#DejaVuSans-30" x="63.623047"/>
       <use xlink:href="#DejaVuSans-32" x="127.246094"/>
       <use xlink:href="#DejaVuSans-33" x="190.869141"/>
       <use xlink:href="#DejaVuSans-2d" x="254.492188"/>
       <use xlink:href="#DejaVuSans-30" x="290.576172"/>
       <use xlink:href="#DejaVuSans-37" x="354.199219"/>
      </g>
     </g>
    </g>
    <g id="xtick_5">
     <g id="line2d_5">
      <g>
       <use xlink:href="#m0a3446bd7c" x="346.775241" y="246.04" style="stroke: #000000; stroke-width: 0.8"/>
      </g>
     </g>
     <g id="text_5">
      <!-- 2024-01 -->
      <g transform="translate(325.883835 260.638438) scale(0.1 -0.1)">
       <defs>
        <path id="DejaVuSans-34" d="M 2419 4116 
L 825 1625 
L 2419 1625 
L 2419 4116 
z
M 2253 4666 
L 3047 4666 
L 3047 1625 
L 3713 1625 
L 3713 1100 
L 3047 1100 
L 3047 0 
L 2419 0 
L 2419 1100 
L 313 1100 
L 313 1709 
L 2253 4666 
z
" transform="scale(0.015625)"/>
       </defs>
       <use xlink:href="#DejaVuSans-32"/>
       <use xlink:href="#DejaVuSans-30" x="63.623047"/>
       <use xlink:href="#DejaVuSans-32" x="127.246094"/>
       <use xlink:href="#DejaVuSans-34" x="190.869141"/>
       <use xlink:href="#DejaVuSans-2d" x="254.492188"/>
       <use xlink:href="#DejaVuSans-30" x="290.576172"/>
       <use xlink:href="#DejaVuSans-31" x="354.199219"/>
      </g>
     </g>
    </g>
    <g id="xtick_6">
     <g id="line2d_6">
      <g>
       <use xlink:href="#m0a3446bd7c" x="407.030347" y="246.04" style="stroke: #000000; stroke-width: 0.8"/>
      </g>
     </g>
     <g id="text_6">
      <!-- 2024-07 -->
      <g transform="translate(386.138941 260.638438) scale(0.1 -0.1)">
       <use xlink:href="#DejaVuSans-32"/>
       <use xlink:href="#DejaVuSans-30" x="63.623047"/>
       <use xlink:href="#DejaVuSans-32" x="127.246094"/>
       <use xlink:href="#DejaVuSans-34" x="190.869141"/>
       <use xlink:href="#DejaVuSans-2d" x="254.492188"/>
       <use xlink:href="#DejaVuSans-30" x="290.576172"/>
       <use xlink:href="#DejaVuSans-37" x="354.199219"/>
      </g>
     </g>
    </g>
    <g id="xtick_7">
     <g id="line2d_7">
      <g>
       <use xlink:href="#m0a3446bd7c" x="467.947597" y="246.04" style="stroke: #000000; stroke-width: 0.8"/>
      </g>
     </g>
     <g id="text_7">
      <!-- 2025-01 -->
      <g transform="translate(447.056191 260.638438) scale(0.1 -0.1)">
       <defs>
        <path id="DejaVuSans-35" d="M 691 4666 
L 3169 4666 
L 3169 4134 
L 1269 4134 
L 1269 2991 
Q 1406 3038 1543 3061 
Q 1681 3084 1819 3084 
Q 2600 3084 3056 2656 
Q 3513 2228 3513 1497 
Q 3513 744 3044 326 
Q 2575 -91 1722 -91 
Q 1428 -91 1123 -41 
Q 819 9 494 109 
L 494 744 
Q 775 591 1075 516 
Q 1375 441 1709 441 
Q 2250 441 2565 725 
Q 2881 1009 2881 1497 
Q 2881 1984 2565 2268 
Q 2250 2553 1709 2553 
Q 1456 2553 1204 2497 
Q 953 2441 691 2322 
L 691 4666 
z
" transform="scale(0.015625)"/>
       </defs>
       <use xlink:href="#DejaVuSans-32"/>
       <use xlink:href="#DejaVuSans-30" x="63.623047"/>
       <use xlink:href="#DejaVuSans-32" x="127.246094"/>
       <use xlink:href="#DejaVuSans-35" x="190.869141"/>
       <use xlink:href="#DejaVuSans-2d" x="254.492188"/>
       <use xlink:href="#DejaVuSans-30" x="290.576172"/>
       <use xlink:href="#DejaVuSans-31" x="354.199219"/>
      </g>
     </g>
    </g>
    <g id="xtick_8">
     <g id="line2d_8">
      <g>
       <use xlink:href="#m0a3446bd7c" x="527.871631" y="246.04" style="stroke: #000000; stroke-width: 0.8"/>
      </g>
     </g>
     <g id="text_8">
      <!-- 2025-07 -->
      <g transform="translate(506.980225 260.638438) scale(0.1 -0.1)">
       <use xlink:href="#DejaVuSans-32"/>
       <use xlink:href="#DejaVuSans-30" x="63.623047"/>
       <use xlink:href="#DejaVuSans-32" x="127.246094"/>
       <use xlink:href="#DejaVuSans-35" x="190.869141"/>
       <use xlink:href="#DejaVuSans-2d" x="254.492188"/>
       <use xlink:href="#DejaVuSans-30" x="290.576172"/>
       <use xlink:href="#DejaVuSans-37" x="354.199219"/>
      </g>
     </g>
    </g>
    <g id="text_9">
     <!-- Date -->
     <g transform="translate(299.234219 274.316562) scale(0.1 -0.1)">
      <defs>
       <path id="DejaVuSans-44" d="M 1259 4147 
L 1259 519 
L 2022 519 
Q 2988 519 3436 956 
Q 3884 1394 3884 2338 
Q 3884 3275 3436 3711 
Q 2988 4147 2022 4147 
L 1259 4147 
z
M 628 4666 
L 1925 4666 
Q 3281 4666 3915 4102 
Q 4550 3538 4550 2338 
Q 4550 1131 3912 565 
Q 3275 0 1925 0 
L 628 0 
L 628 4666 
z
" transform="scale(0.015625)"/>
       <path id="DejaVuSans-61" d="M 2194 1759 
Q 1497 1759 1228 1600 
Q 959 1441 959 1056 
Q 959 750 1161 570 
Q 1363 391 1709 391 
Q 2188 391 2477 730 
Q 2766 1069 2766 1631 
L 2766 1759 
L 2194 1759 
z
M 3341 1997 
L 3341 0 
L 2766 0 
L 2766 531 
Q 2569 213 2275 61 
Q 1981 -91 1556 -91 
Q 1019 -91 701 211 
Q 384 513 384 1019 
Q 384 1609 779 1909 
Q 1175 2209 1959 2209 
L 2766 2209 
L 2766 2266 
Q 2766 2663 2505 2880 
Q 2244 3097 1772 3097 
Q 1472 3097 1187 3025 
Q 903 2953 641 2809 
L 641 3341 
Q 956 3463 1253 3523 
Q 1550 3584 1831 3584 
Q 2591 3584 2966 3190 
Q 3341 2797 3341 1997 
z
" transform="scale(0.015625)"/>
       <path id="DejaVuSans-74" d="M 1172 4494 
L 1172 3500 
L 2356 3500 
L 2356 3053 
L 1172 3053 
L 1172 1153 
Q 1172 725 1289 603 
Q 1406 481 1766 481 
L 2356 481 
L 2356 0 
L 1766 0 
Q 1100 0 847 248 
Q 594 497 594 1153 
L 594 3053 
L 172 3053 
L 172 3500 
L 594 3500 
L 594 4494 
L 1172 4494 
z
" transform="scale(0.015625)"/>
       <path id="DejaVuSans-65" d="M 3597 1894 
L 3597 1613 
L 953 1613 
Q 991 1019 1311 708 
Q 1631 397 2203 397 
Q 2534 397 2845 478 
Q 3156 559 3463 722 
L 3463 178 
Q 3153 47 2828 -22 
Q 2503 -91 2169 -91 
Q 1331 -91 842 396 
Q 353 884 353 1716 
Q 353 2575 817 3079 
Q 1281 3584 2069 3584 
Q 2775 3584 3186 3129 
Q 3597 2675 3597 1894 
z
M 3022 2063 
Q 3016 2534 2758 2815 
Q 2500 3097 2075 3097 
Q 1594 3097 1305 2825 
Q 1016 2553 972 2059 
L 3022 2063 
z
" transform="scale(0.015625)"/>
      </defs>
      <use xlink:href="#DejaVuSans-44"/>
      <use xlink:href="#DejaVuSans-61" x="77.001953"/>
      <use xlink:href="#DejaVuSans-74" x="138.28125"/>
      <use xlink:href="#DejaVuSans-65" x="177.490234"/>
     </g>
    </g>
   </g>
   <g id="matplotlib.axis_2">
    <g id="ytick_1">
     <g id="line2d_9">
      <defs>
       <path id="m2a52267a80" d="M 0 0 
L -3.5 0 
" style="stroke: #000000; stroke-width: 0.8"/>
      </defs>
      <g>
       <use xlink:href="#m2a52267a80" x="57.17" y="241.389453" style="stroke: #000000; stroke-width: 0.8"/>
      </g>
     </g>
     <g id="text_10">
      <!-- 3500 -->
      <g transform="translate(24.72 245.188671) scale(0.1 -0.1)">
       <use xlink:href="#DejaVuSans-33"/>
       <use xlink:href="#DejaVuSans-35" x="63.623047"/>
       <use xlink:href="#DejaVuSans-30" x="127.246094"/>
       <use xlink:href="#DejaVuSans-30" x="190.869141"/>
      </g>
     </g>
    </g>
    <g id="ytick_2">
     <g id="line2d_10">
      <g>
       <use xlink:href="#m2a52267a80" x="57.17" y="206.914126" style="stroke: #000000; stroke-width: 0.8"/>
      </g>
     </g>
     <g id="text_11">
      <!-- 4000 -->
      <g transform="translate(24.72 210.713345) scale(0.1 -0.1)">
       <use xlink:href="#DejaVuSans-34"/>
       <use xlink:href="#DejaVuSans-30" x="63.623047"/>
       <use xlink:href="#DejaVuSans-30" x="127.246094"/>
       <use xlink:href="#DejaVuSans-30" x="190.869141"/>
      </g>
     </g>
    </g>
    <g id="ytick_3">
     <g id="line2d_11">
      <g>
       <use xlink:href="#m2a52267a80" x="57.17" y="172.438799" style="stroke: #000000; stroke-width: 0.8"/>
      </g>
     </g>
     <g id="text_12">
      <!-- 4500 -->
      <g transform="translate(24.72 176.238018) scale(0.1 -0.1)">
       <use xlink:href="#DejaVuSans-34"/>
       <use xlink:href="#DejaVuSans-35" x="63.623047"/>
       <use xlink:href="#DejaVuSans-30" x="127.246094"/>
       <use xlink:href="#DejaVuSans-30" x="190.869141"/>
      </g>
     </g>
    </g>
    <g id="ytick_4">
     <g id="line2d_12">
      <g>
       <use xlink:href="#m2a52267a80" x="57.17" y="137.963473" style="stroke: #000000; stroke-width: 0.8"/>
      </g>
     </g>
     <g id="text_13">
      <!-- 5000 -->
      <g transform="translate(24.72 141.762691) scale(0.1 -0.1)">
       <use xlink:href="#DejaVuSans-35"/>
       <use xlink:href="#DejaVuSans-30" x="63.623047"/>
       <use xlink:href="#DejaVuSans-30" x="127.246094"/>
       <use xlink:href="#DejaVuSans-30" x="190.869141"/>
      </g>
     </g>
    </g>
    <g id="ytick_5">
     <g id="line2d_13">
      <g>
       <use xlink:href="#m2a52267a80" x="57.17" y="103.488146" style="stroke: #000000; stroke-width: 0.8"/>
      </g>
     </g>
     <g id="text_14">
      <!-- 5500 -->
      <g transform="translate(24.72 107.287365) scale(0.1 -0.1)">
       <use xlink:href="#DejaVuSans-35"/>
       <use xlink:href="#DejaVuSans-35" x="63.623047"/>
       <use xlink:href="#DejaVuSans-30" x="127.246094"/>
       <use xlink:href="#DejaVuSans-30" x="190.869141"/>
      </g>
     </g>
    </g>
    <g id="ytick_6">
     <g id="line2d_14">
      <g>
       <use xlink:href="#m2a52267a80" x="57.17" y="69.012819" style="stroke: #000000; stroke-width: 0.8"/>
      </g>
     </g>
     <g id="text_15">
      <!-- 6000 -->
      <g transform="translate(24.72 72.812038) scale(0.1 -0.1)">
       <defs>
        <path id="DejaVuSans-36" d="M 2113 2584 
Q 1688 2584 1439 2293 
Q 1191 2003 1191 1497 
Q 1191 994 1439 701 
Q 1688 409 2113 409 
Q 2538 409 2786 701 
Q 3034 994 3034 1497 
Q 3034 2003 2786 2293 
Q 2538 2584 2113 2584 
z
M 3366 4563 
L 3366 3988 
Q 3128 4100 2886 4159 
Q 2644 4219 2406 4219 
Q 1781 4219 1451 3797 
Q 1122 3375 1075 2522 
Q 1259 2794 1537 2939 
Q 1816 3084 2150 3084 
Q 2853 3084 3261 2657 
Q 3669 2231 3669 1497 
Q 3669 778 3244 343 
Q 2819 -91 2113 -91 
Q 1303 -91 875 529 
Q 447 1150 447 2328 
Q 447 3434 972 4092 
Q 1497 4750 2381 4750 
Q 2619 4750 2861 4703 
Q 3103 4656 3366 4563 
z
" transform="scale(0.015625)"/>
       </defs>
       <use xlink:href="#DejaVuSans-36"/>
       <use xlink:href="#DejaVuSans-30" x="63.623047"/>
       <use xlink:href="#DejaVuSans-30" x="127.246094"/>
       <use xlink:href="#DejaVuSans-30" x="190.869141"/>
      </g>
     </g>
    </g>
    <g id="ytick_7">
     <g id="line2d_15">
      <g>
       <use xlink:href="#m2a52267a80" x="57.17" y="34.537493" style="stroke: #000000; stroke-width: 0.8"/>
      </g>
     </g>
     <g id="text_16">
      <!-- 6500 -->
      <g transform="translate(24.72 38.336711) scale(0.1 -0.1)">
       <use xlink:href="#DejaVuSans-36"/>
       <use xlink:href="#DejaVuSans-35" x="63.623047"/>
       <use xlink:href="#DejaVuSans-30" x="127.246094"/>
       <use xlink:href="#DejaVuSans-30" x="190.869141"/>
      </g>
     </g>
    </g>
    <g id="text_17">
     <!-- Stock Price -->
     <g transform="translate(18.640313 164.085) rotate(-90) scale(0.1 -0.1)">
      <defs>
       <path id="DejaVuSans-53" d="M 3425 4513 
L 3425 3897 
Q 3066 4069 2747 4153 
Q 2428 4238 2131 4238 
Q 1616 4238 1336 4038 
Q 1056 3838 1056 3469 
Q 1056 3159 1242 3001 
Q 1428 2844 1947 2747 
L 2328 2669 
Q 3034 2534 3370 2195 
Q 3706 1856 3706 1288 
Q 3706 609 3251 259 
Q 2797 -91 1919 -91 
Q 1588 -91 1214 -16 
Q 841 59 441 206 
L 441 856 
Q 825 641 1194 531 
Q 1563 422 1919 422 
Q 2459 422 2753 634 
Q 3047 847 3047 1241 
Q 3047 1584 2836 1778 
Q 2625 1972 2144 2069 
L 1759 2144 
Q 1053 2284 737 2584 
Q 422 2884 422 3419 
Q 422 4038 858 4394 
Q 1294 4750 2059 4750 
Q 2388 4750 2728 4690 
Q 3069 4631 3425 4513 
z
" transform="scale(0.015625)"/>
       <path id="DejaVuSans-6f" d="M 1959 3097 
Q 1497 3097 1228 2736 
Q 959 2375 959 1747 
Q 959 1119 1226 758 
Q 1494 397 1959 397 
Q 2419 397 2687 759 
Q 2956 1122 2956 1747 
Q 2956 2369 2687 2733 
Q 2419 3097 1959 3097 
z
M 1959 3584 
Q 2709 3584 3137 3096 
Q 3566 2609 3566 1747 
Q 3566 888 3137 398 
Q 2709 -91 1959 -91 
Q 1206 -91 779 398 
Q 353 888 353 1747 
Q 353 2609 779 3096 
Q 1206 3584 1959 3584 
z
" transform="scale(0.015625)"/>
       <path id="DejaVuSans-63" d="M 3122 3366 
L 3122 2828 
Q 2878 2963 2633 3030 
Q 2388 3097 2138 3097 
Q 1578 3097 1268 2742 
Q 959 2388 959 1747 
Q 959 1106 1268 751 
Q 1578 397 2138 397 
Q 2388 397 2633 464 
Q 2878 531 3122 666 
L 3122 134 
Q 2881 22 2623 -34 
Q 2366 -91 2075 -91 
Q 1284 -91 818 406 
Q 353 903 353 1747 
Q 353 2603 823 3093 
Q 1294 3584 2113 3584 
Q 2378 3584 2631 3529 
Q 2884 3475 3122 3366 
z
" transform="scale(0.015625)"/>
       <path id="DejaVuSans-6b" d="M 581 4863 
L 1159 4863 
L 1159 1991 
L 2875 3500 
L 3609 3500 
L 1753 1863 
L 3688 0 
L 2938 0 
L 1159 1709 
L 1159 0 
L 581 0 
L 581 4863 
z
" transform="scale(0.015625)"/>
       <path id="DejaVuSans-20" transform="scale(0.015625)"/>
       <path id="DejaVuSans-50" d="M 1259 4147 
L 1259 2394 
L 2053 2394 
Q 2494 2394 2734 2622 
Q 2975 2850 2975 3272 
Q 2975 3691 2734 3919 
Q 2494 4147 2053 4147 
L 1259 4147 
z
M 628 4666 
L 2053 4666 
Q 2838 4666 3239 4311 
Q 3641 3956 3641 3272 
Q 3641 2581 3239 2228 
Q 2838 1875 2053 1875 
L 1259 1875 
L 1259 0 
L 628 0 
L 628 4666 
z
" transform="scale(0.015625)"/>
       <path id="DejaVuSans-72" d="M 2631 2963 
Q 2534 3019 2420 3045 
Q 2306 3072 2169 3072 
Q 1681 3072 1420 2755 
Q 1159 2438 1159 1844 
L 1159 0 
L 581 0 
L 581 3500 
L 1159 3500 
L 1159 2956 
Q 1341 3275 1631 3429 
Q 1922 3584 2338 3584 
Q 2397 3584 2469 3576 
Q 2541 3569 2628 3553 
L 2631 2963 
z
" transform="scale(0.015625)"/>
       <path id="DejaVuSans-69" d="M 603 3500 
L 1178 3500 
L 1178 0 
L 603 0 
L 603 3500 
z
M 603 4863 
L 1178 4863 
L 1178 4134 
L 603 4134 
L 603 4863 
z
" transform="scale(0.015625)"/>
      </defs>
      <use xlink:href="#DejaVuSans-53"/>
      <use xlink:href="#DejaVuSans-74" x="63.476562"/>
      <use xlink:href="#DejaVuSans-6f" x="102.685547"/>
      <use xlink:href="#DejaVuSans-63" x="163.867188"/>
      <use xlink:href="#DejaVuSans-6b" x="218.847656"/>
      <use xlink:href="#DejaVuSans-20" x="276.757812"/>
      <use xlink:href="#DejaVuSans-50" x="308.544922"/>
      <use xlink:href="#DejaVuSans-72" x="367.097656"/>
      <use xlink:href="#DejaVuSans-69" x="408.210938"/>
      <use xlink:href="#DejaVuSans-63" x="435.994141"/>
      <use xlink:href="#DejaVuSans-65" x="490.974609"/>
     </g>
    </g>
   </g>
   <g id="line2d_16">
    <path d="M 80.262273 173.372394 
L 80.593345 171.085306 
L 81.255489 169.006451 
L 81.586561 169.342922 
L 82.910849 167.281977 
L 83.241921 168.875417 
L 83.572993 165.790583 
L 83.904065 165.172788 
L 84.897281 164.601184 
L 85.228353 163.430403 
L 85.559425 161.367405 
L 86.221569 158.818992 
L 87.214785 158.531439 
L 87.545857 159.665691 
L 87.876929 162.323052 
L 88.208001 162.146534 
L 88.539073 159.831166 
L 89.532289 159.834633 
L 89.863361 158.58662 
L 90.194433 159.429885 
L 90.525505 158.33563 
L 90.856577 158.789331 
L 91.849793 159.824971 
L 92.511937 158.548003 
L 93.174081 165.91468 
L 94.167297 161.73283 
L 94.498369 167.819106 
L 94.829441 171.53968 
L 95.160513 167.122697 
L 95.491585 169.789014 
L 96.484801 166.118098 
L 96.815873 159.562265 
L 97.146945 158.565241 
L 97.478017 160.892999 
L 97.809089 157.81988 
L 98.802305 160.788193 
L 99.133377 163.193217 
L 99.464449 157.969498 
L 100.126593 164.120583 
L 101.119809 167.748775 
L 101.450881 162.149295 
L 101.781953 158.885855 
L 102.113025 156.870429 
L 103.437313 152.361063 
L 103.768385 152.694773 
L 104.099457 152.232117 
L 104.761601 154.085502 
L 105.754818 151.99079 
L 106.08589 152.199022 
L 106.416962 158.608672 
L 106.748034 158.921037 
L 107.079106 160.23248 
L 108.072322 160.69719 
L 108.403394 157.747496 
L 108.734466 156.831812 
L 109.065538 161.473592 
L 109.39661 161.210179 
L 110.720898 167.122024 
L 111.383042 173.629578 
L 111.714114 179.475907 
L 112.70733 178.635403 
L 113.038402 182.336652 
L 113.369474 182.786212 
L 113.700546 184.401064 
L 114.031618 177.13778 
L 115.355906 169.229833 
L 115.686978 166.275998 
L 116.01805 173.99433 
L 116.349122 172.40227 
L 117.342338 173.550965 
L 117.67341 170.9536 
L 118.004482 166.427669 
L 118.666626 178.048615 
L 119.659842 179.218722 
L 119.990914 174.433554 
L 120.321986 174.161892 
L 120.653058 180.694967 
L 120.98413 182.859304 
L 122.308418 185.900741 
L 122.63949 191.365754 
L 122.970562 187.008059 
L 123.301634 180.392264 
L 124.29485 181.130723 
L 124.625922 185.797315 
L 124.956994 180.261938 
L 125.288066 181.851237 
L 125.619138 184.238317 
L 126.943426 195.144236 
L 127.274498 187.754127 
L 127.60557 189.020051 
L 127.936642 192.826814 
L 128.929858 194.978088 
L 129.923074 178.529216 
L 130.254146 174.981691 
L 131.247362 175.115452 
L 131.578434 171.638292 
L 131.909506 175.456064 
L 132.240578 171.048743 
L 132.57165 169.46978 
L 133.564866 167.231645 
L 133.895938 163.364887 
L 134.22701 165.374791 
L 134.558082 170.341999 
L 134.889154 169.276732 
L 135.88237 166.740708 
L 136.544514 173.738526 
L 136.875587 172.424322 
L 137.206659 173.246916 
L 138.199875 178.469928 
L 138.530947 179.509675 
L 138.862019 176.121464 
L 139.193091 179.8448 
L 140.517379 179.906849 
L 140.848451 175.044447 
L 141.179523 175.234735 
L 141.510595 179.771001 
L 141.841667 188.174732 
L 142.834883 186.49645 
L 143.165955 194.833958 
L 143.497027 194.229966 
L 143.828099 187.090813 
L 144.159171 197.817454 
L 145.152387 196.200582 
L 145.483459 194.814667 
L 145.814531 186.217214 
L 146.145603 196.787335 
L 146.476675 198.409763 
L 147.469891 207.518134 
L 147.800963 206.841724 
L 148.132035 211.383512 
L 148.463107 211.73515 
L 148.794179 205.266902 
L 149.787395 206.361831 
L 150.118467 200.787854 
L 150.449539 212.176445 
L 150.780611 213.754718 
L 151.111683 213.715411 
L 152.104899 208.724081 
L 152.435971 210.94912 
L 152.767043 208.380708 
L 153.429187 196.003358 
L 154.753475 197.802304 
L 155.084547 199.934253 
L 155.415619 194.722284 
L 155.746691 199.430219 
L 156.739907 198.541436 
L 157.070979 195.835123 
L 157.402051 198.931707 
L 158.064195 213.749886 
L 159.057411 224.177309 
L 159.388483 225.152954 
L 159.719555 221.394453 
L 160.050627 229.890551 
L 160.381699 229.334114 
L 161.705987 223.132006 
L 162.037059 223.469875 
L 162.368131 220.998677 
L 162.699203 212.999711 
L 163.692419 213.801599 
L 164.023491 219.218367 
L 164.354563 219.40591 
L 164.685635 221.712323 
L 165.016707 218.957731 
L 166.340995 218.539903 
L 166.672067 217.595956 
L 167.003139 213.628533 
L 167.334211 213.851949 
L 168.327428 216.951277 
L 168.6585 219.407981 
L 169.320644 221.36757 
L 169.651716 216.349339 
L 170.644932 218.577122 
L 170.976004 211.279396 
L 171.307076 209.679054 
L 171.638148 206.986528 
L 171.96922 209.559771 
L 172.962436 209.200524 
L 173.293508 212.357777 
L 173.62458 205.286194 
L 174.286724 197.930543 
L 175.27994 198.734518 
L 175.611012 200.62652 
L 175.942084 196.215058 
L 176.273156 196.437768 
L 176.604228 196.903185 
L 177.597444 197.256893 
L 177.928516 198.469725 
L 178.259588 192.417925 
L 178.59066 192.622723 
L 178.921732 187.597607 
L 180.24602 185.870373 
L 180.577092 188.018886 
L 180.908164 187.350051 
L 181.239236 191.160282 
L 182.232452 197.399609 
L 182.563524 198.03811 
L 182.894596 197.207941 
L 183.225668 193.184664 
L 183.55674 202.938437 
L 184.549956 204.803539 
L 185.2121 210.016905 
L 185.543172 209.199833 
L 185.874244 212.136448 
L 187.198532 213.24449 
L 187.529604 208.302095 
L 187.860676 206.488016 
L 188.191748 202.269603 
L 189.184964 199.301274 
L 189.516036 211.555199 
L 189.847108 210.636771 
L 190.17818 213.716101 
L 190.509252 215.6481 
L 191.502468 213.816783 
L 191.83354 216.847851 
L 192.164612 221.398594 
L 192.495684 223.600874 
L 192.826756 228.066119 
L 193.819972 230.699341 
L 194.151044 231.233708 
L 194.482116 226.286499 
L 195.14426 235.48589 
L 196.137476 229.086592 
L 196.468548 221.329644 
L 196.79962 221.85711 
L 197.130692 224.529638 
L 197.461764 231.75981 
L 198.45498 233.640096 
L 198.786052 235.263871 
L 199.117124 236.078182 
L 199.448196 229.674053 
L 199.779268 235.661717 
L 201.103557 226.221689 
L 201.765701 229.958811 
L 202.096773 223.962175 
L 203.089989 220.887659 
L 203.421061 216.628576 
L 204.083205 220.200914 
L 204.414277 213.7361 
L 205.407493 215.74119 
L 205.738565 216.836118 
L 206.069637 223.483662 
L 206.400709 226.227901 
L 206.731781 222.73485 
L 207.724997 220.235389 
L 208.056069 218.766046 
L 208.387141 224.250384 
L 208.718213 209.922435 
L 209.049285 207.401612 
L 210.042501 209.861766 
L 210.373573 207.484349 
L 210.704645 209.75558 
L 211.035717 210.598845 
L 211.366789 209.30395 
L 212.360005 210.3658 
L 212.691077 206.667277 
L 213.022149 205.03453 
L 213.684293 205.113127 
L 214.677509 209.400491 
L 215.008581 209.835573 
L 215.339653 201.390482 
L 216.001797 201.970368 
L 216.995013 206.994103 
L 217.326085 210.964287 
L 217.657157 211.470391 
L 217.988229 209.430135 
L 218.319301 211.438676 
L 219.312517 207.565016 
L 219.643589 205.559252 
L 219.974661 207.23681 
L 220.305733 214.102232 
L 220.636805 217.093993 
L 221.630021 219.486594 
L 221.961093 219.213535 
L 222.292165 215.295771 
L 222.623237 219.160459 
L 222.954309 217.613884 
L 224.278597 218.68745 
L 224.609669 221.861251 
L 224.940741 217.306366 
L 225.271813 217.980706 
L 226.596101 219.039795 
L 226.927173 217.051943 
L 227.258245 220.14575 
L 227.589317 214.148423 
L 228.582533 214.354585 
L 228.913605 212.481891 
L 229.244677 209.009529 
L 229.906821 206.976865 
L 231.231109 207.536752 
L 231.562181 211.819268 
L 231.893254 213.888478 
L 232.224326 208.802677 
L 233.217542 205.548209 
L 233.548614 205.745416 
L 233.879686 205.795748 
L 234.210758 202.747443 
L 234.54183 202.048964 
L 235.535046 205.688872 
L 236.528262 194.519573 
L 236.859334 197.503742 
L 237.85255 199.255082 
L 238.183622 195.606219 
L 238.845766 201.294648 
L 239.176838 200.676853 
L 240.170054 197.447888 
L 240.501126 197.527882 
L 240.832198 196.737003 
L 241.16327 200.680303 
L 241.494342 201.460813 
L 242.81863 207.097529 
L 243.149702 207.531231 
L 243.480774 206.064649 
L 243.811846 208.979885 
L 244.805062 208.13869 
L 245.136134 208.97231 
L 245.467206 210.265825 
L 245.798278 208.200049 
L 246.12935 203.767226 
L 247.122566 203.575541 
L 247.453638 207.853915 
L 247.78471 207.465041 
L 248.446854 216.45758 
L 249.44007 216.859568 
L 249.771142 212.479131 
L 250.102214 214.365628 
L 250.433286 209.652844 
L 250.764358 212.66186 
L 251.757574 210.253401 
L 252.088646 206.71623 
L 252.419718 211.260088 
L 252.75079 210.449917 
L 253.081862 208.914385 
L 254.075078 208.463445 
L 254.40615 208.895077 
L 254.737222 204.996604 
L 255.068294 203.409359 
L 255.399366 199.377126 
L 256.392582 198.329096 
L 256.723654 199.977684 
L 257.054726 200.682374 
L 257.385798 199.672927 
L 259.041158 199.402646 
L 259.37223 200.574117 
L 259.703302 196.832147 
L 260.034374 197.423749 
L 261.358662 196.23573 
L 261.689734 196.25987 
L 262.020806 197.965018 
L 262.351878 197.707833 
L 263.345094 197.465126 
L 263.676167 201.975199 
L 264.007239 203.05358 
L 264.338311 197.581648 
L 264.669383 195.228371 
L 265.662599 195.339372 
L 265.993671 198.669001 
L 266.655815 202.692969 
L 266.986887 197.519599 
L 267.980103 197.390654 
L 268.311175 198.697282 
L 268.642247 197.423749 
L 269.304391 198.358724 
L 270.297607 197.517546 
L 270.628679 199.336456 
L 271.290823 193.258463 
L 271.621895 193.676981 
L 272.615111 193.63217 
L 272.946183 196.876285 
L 273.277255 198.968237 
L 273.939399 192.748201 
L 275.263687 192.743386 
L 275.594759 194.514725 
L 275.925831 191.674651 
L 276.256903 187.444522 
L 277.250119 188.036124 
L 277.581191 187.342476 
L 277.912263 188.468446 
L 278.243335 186.647448 
L 278.574407 186.307543 
L 279.567623 183.544669 
L 279.898695 181.470662 
L 280.229767 181.223813 
L 280.560839 177.552191 
L 280.891911 178.672639 
L 282.216199 180.11232 
L 282.547271 181.699566 
L 282.878343 180.582552 
L 283.209415 182.89654 
L 284.202631 184.241784 
L 284.533703 180.822499 
L 284.864775 180.929392 
L 285.195847 179.579333 
L 285.526919 175.860139 
L 286.520135 175.500909 
L 287.182279 176.105607 
L 287.513351 178.534737 
L 287.844423 179.406249 
L 288.837639 178.67678 
L 289.499783 174.358375 
L 289.830855 171.746532 
L 290.161927 172.065092 
L 291.155143 170.867411 
L 291.486215 168.647894 
L 291.817287 167.907348 
L 292.148359 170.034482 
L 292.479431 169.933143 
L 293.472647 168.671326 
L 293.803719 167.787391 
L 294.134791 167.836343 
L 294.465863 169.859345 
L 294.796935 166.768988 
L 295.790152 166.304952 
L 296.121224 167.148217 
L 296.452296 171.515541 
L 296.783368 172.308473 
L 297.11444 173.95366 
L 298.107656 171.167353 
L 298.438728 172.481557 
L 298.7698 174.665219 
L 299.100872 174.587986 
L 299.431944 174.917589 
L 300.42516 173.147597 
L 300.756232 176.723402 
L 301.418376 181.377571 
L 301.749448 181.422383 
L 302.742664 179.349722 
L 303.073736 180.192314 
L 303.404808 176.850968 
L 303.73588 180.967302 
L 304.066952 178.940159 
L 305.060168 177.037114 
L 305.39124 172.60222 
L 305.722312 171.413495 
L 306.053384 171.910627 
L 306.384456 171.351446 
L 307.708744 172.657368 
L 308.039816 174.818977 
L 308.370888 175.807719 
L 308.70196 175.369875 
L 309.695176 173.303443 
L 310.026248 175.065826 
L 310.35732 174.683837 
L 310.688392 172.087144 
L 311.019464 175.86428 
L 312.01268 175.642951 
L 312.343752 176.30347 
L 312.674824 179.18216 
L 313.005896 184.16041 
L 313.336968 184.845776 
L 314.330184 183.647422 
L 314.661256 188.054069 
L 314.992328 187.986498 
L 315.3234 186.249602 
L 315.654472 187.052904 
L 316.647688 187.029438 
L 316.97876 191.093385 
L 317.309832 188.728391 
L 317.640904 189.111761 
L 317.971976 185.642849 
L 318.965192 183.770139 
L 319.627336 180.923164 
L 320.28948 184.313496 
L 321.282696 181.152101 
L 321.613768 181.181729 
L 321.94484 185.222244 
L 322.275912 187.745844 
L 322.606984 191.458137 
L 323.6002 191.949074 
L 323.931272 189.836416 
L 324.593416 197.452029 
L 324.924488 198.82138 
L 325.917704 195.41179 
L 326.248776 193.551503 
L 326.579848 190.513533 
L 326.91092 185.003002 
L 327.241993 182.20636 
L 328.235209 181.679567 
L 328.566281 180.824586 
L 328.897353 180.52121 
L 329.228425 182.96411 
L 329.559497 178.283041 
L 330.552713 178.537498 
L 330.883785 172.735274 
L 331.545929 171.87063 
L 331.877001 171.47211 
L 332.870217 169.171925 
L 333.201289 169.805578 
L 333.532361 168.534805 
L 334.194505 168.347278 
L 335.187721 168.961606 
L 335.518793 168.654089 
L 335.849865 168.95127 
L 336.180937 167.763958 
L 336.512009 165.914007 
L 337.505225 167.627438 
L 337.836297 167.806682 
L 338.167369 169.036785 
L 338.498441 166.537324 
L 338.829513 165.242412 
L 339.822729 163.996485 
L 340.153801 162.530577 
L 340.484873 158.159819 
L 340.815945 157.300697 
L 341.147017 157.32551 
L 342.140233 155.852026 
L 342.471305 153.934504 
L 342.802377 158.76243 
L 343.133449 155.425226 
L 343.464521 154.881903 
L 345.450953 152.901625 
L 345.782025 153.833839 
L 347.106313 155.695507 
L 347.437385 158.317012 
L 347.768457 159.429178 
L 348.099529 158.838956 
L 349.092745 154.267541 
L 349.423817 154.752957 
L 349.754889 152.894723 
L 350.085961 153.116052 
L 350.417033 152.86853 
L 351.741321 154.099306 
L 352.072393 155.945116 
L 352.403465 153.067807 
L 352.734537 149.008674 
L 353.727753 148.27641 
L 354.058825 147.299384 
L 354.389897 147.02705 
L 354.720969 145.261199 
L 355.052041 145.481148 
L 356.045257 142.932734 
L 356.376329 143.136825 
L 356.707401 148.606013 
L 357.369545 140.81735 
L 358.362761 141.906756 
L 358.693833 141.119345 
L 359.024906 138.304085 
L 359.355978 138.107569 
L 359.68705 136.128705 
L 360.680266 136.457601 
L 361.011338 141.192437 
L 361.34241 137.920715 
L 361.673482 135.913571 
L 362.004554 137.57943 
L 363.328842 139.65209 
L 363.659914 139.218388 
L 363.990986 131.962712 
L 364.322058 131.840668 
L 365.315274 133.169349 
L 365.646346 132.572898 
L 365.977418 133.153491 
L 366.30849 131.325592 
L 366.639562 128.511712 
L 367.632778 128.934371 
L 367.96385 132.540511 
L 368.294922 130.740218 
L 368.625994 127.113407 
L 368.957066 129.43497 
L 369.950282 129.831437 
L 370.281354 125.87849 
L 370.612426 126.565236 
L 370.943498 127.58778 
L 371.27457 129.890051 
L 372.267786 127.660871 
L 372.598858 125.655108 
L 372.92993 122.475769 
L 373.261002 121.309836 
L 373.592074 121.816597 
L 374.58529 122.919134 
L 374.916362 123.926493 
L 375.247434 120.829909 
L 375.578506 120.425867 
L 376.902794 121.155371 
L 377.233866 123.772735 
L 377.564938 123.381083 
L 377.89601 127.81325 
L 378.227082 123.874107 
L 379.220298 124.008541 
L 379.55137 123.49003 
L 379.882442 126.88723 
L 380.213514 124.238152 
L 380.544586 129.454262 
L 381.537802 133.700955 
L 381.868874 134.418709 
L 382.199946 136.432081 
L 382.531018 137.196733 
L 382.86209 140.222987 
L 383.855306 137.232589 
L 384.186378 133.099018 
L 384.51745 133.024545 
L 384.848522 134.624887 
L 385.179594 131.071168 
L 386.17281 129.953481 
L 386.503882 135.502628 
L 386.834954 136.695461 
L 387.166026 133.536827 
L 387.497098 129.152266 
L 388.490314 125.501315 
L 388.821386 125.021422 
L 389.152458 125.023509 
L 389.48353 123.202511 
L 389.814602 122.609529 
L 390.807819 122.696424 
L 391.138891 120.954713 
L 391.469963 116.716336 
L 391.801035 117.478227 
L 392.132107 117.052807 
L 393.125323 116.717716 
L 393.456395 115.802032 
L 393.787467 116.794949 
L 394.118539 119.49574 
L 394.449611 116.952815 
L 395.773899 116.861812 
L 396.436043 121.726974 
L 396.767115 118.828993 
L 397.760331 118.422864 
L 398.091403 117.8754 
L 398.422475 113.552888 
L 398.753547 113.626653 
L 399.084619 114.038269 
L 400.077835 113.086764 
L 400.408907 112.084926 
L 400.739979 108.933194 
L 401.071051 108.0568 
L 401.402123 108.204364 
L 402.726411 104.382451 
L 404.712843 107.082536 
L 405.043915 105.604945 
L 405.374987 105.011962 
L 405.706059 104.669263 
L 406.037131 106.213077 
L 407.030347 105.205718 
L 407.692491 100.935591 
L 408.354635 98.855356 
L 409.347851 98.465084 
L 409.678923 98.180326 
L 410.009995 94.254953 
L 410.341067 97.659055 
L 410.672139 95.534681 
L 411.665355 94.440426 
L 411.996427 91.959583 
L 412.327499 97.40187 
L 412.989643 103.143393 
L 413.982859 99.047024 
L 414.313931 99.64482 
L 414.645003 108.512588 
L 414.976075 110.436978 
L 415.307147 106.308221 
L 416.300363 106.002084 
L 416.631435 107.870654 
L 416.962507 101.95056 
L 417.624651 114.06793 
L 418.617867 125.115892 
L 418.948939 121.413262 
L 419.280011 124.207817 
L 419.611083 115.946836 
L 419.942155 114.233405 
L 420.935371 114.217548 
L 421.266443 108.009228 
L 421.597515 106.576448 
L 421.928587 100.508084 
L 422.259659 99.747573 
L 423.252876 96.024238 
L 423.583948 96.791651 
L 423.91502 95.155453 
L 424.246092 98.617462 
L 424.577164 94.206708 
L 425.57038 95.431962 
L 425.901452 94.814167 
L 426.232524 97.132263 
L 426.563596 97.147447 
L 426.894668 93.255876 
L 428.218956 101.493391 
L 428.550028 102.104319 
L 428.8811 103.253014 
L 429.212172 109.802652 
L 430.53646 103.797044 
L 431.198604 96.885448 
L 431.529676 94.798983 
L 432.853964 94.208762 
L 433.185036 95.334058 
L 433.516108 88.757519 
L 433.84718 89.522205 
L 434.840396 88.417614 
L 435.171468 87.427458 
L 435.50254 88.16319 
L 435.833612 86.569716 
L 436.164684 87.066174 
L 437.1579 85.38998 
L 437.488972 89.094697 
L 437.820044 89.040223 
L 438.151116 89.702156 
L 438.482188 86.176718 
L 439.475404 89.977959 
L 440.137548 83.351795 
L 440.46862 84.178529 
L 440.799692 81.766637 
L 441.792908 78.676247 
L 442.12398 81.750779 
L 442.455052 79.874601 
L 442.786124 79.943552 
L 443.117196 78.343917 
L 444.441484 79.272663 
L 444.772556 82.980848 
L 445.103628 82.123106 
L 445.4347 82.243063 
L 446.427916 81.181229 
L 446.758988 80.5331 
L 447.09006 81.8604 
L 447.421132 89.322221 
L 447.752204 87.71225 
L 448.74542 88.823036 
L 449.076492 83.991675 
L 449.407564 73.905555 
L 449.738636 70.867585 
L 450.069708 69.320337 
L 451.062924 68.919729 
L 451.393996 70.116703 
L 451.725068 70.020886 
L 452.05614 72.517586 
L 452.387212 77.933647 
L 453.380428 76.347782 
L 453.7115 74.737104 
L 454.042572 74.728148 
L 454.373645 72.549301 
L 454.704717 71.126857 
L 455.697933 69.883658 
L 456.029005 67.521425 
L 456.360077 69.099681 
L 457.022221 66.780205 
L 458.346509 65.573569 
L 458.677581 63.049261 
L 459.008653 63.833945 
L 459.339725 62.788643 
L 460.332941 65.368771 
L 460.664013 66.605741 
L 460.995085 63.207868 
L 461.326157 65.479098 
L 461.657229 65.490141 
L 462.650445 63.90495 
L 462.981517 65.523236 
L 463.312589 77.82746 
L 463.643661 78.177735 
L 463.974733 73.78075 
L 464.967949 70.800722 
L 465.299021 66.252033 
L 465.961165 66.420975 
L 466.292237 71.023431 
L 467.616525 77.174516 
L 468.278669 78.076396 
L 468.609741 72.979536 
L 469.602957 70.710393 
L 469.934029 75.285275 
L 470.265101 74.649535 
L 470.927245 80.938522 
L 471.920461 80.305543 
L 472.251533 79.844267 
L 472.582605 72.466547 
L 472.913677 73.333278 
L 473.244749 69.243104 
L 474.569037 65.617673 
L 475.231181 60.82769 
L 475.562253 62.032239 
L 476.555469 68.16612 
L 476.886541 64.344847 
L 477.217613 66.302365 
L 477.548685 64.105607 
L 477.879757 66.218264 
L 478.872973 69.387234 
L 479.204045 66.400977 
L 479.866189 63.250625 
L 480.197261 67.220776 
L 481.190477 64.431742 
L 481.521549 64.2897 
L 481.852621 65.429439 
L 482.183693 61.07868 
L 482.514765 61.109014 
L 483.839053 60.078188 
L 484.170125 59.073589 
L 484.501197 60.909737 
L 484.832269 68.107505 
L 485.825486 70.167743 
L 486.156558 72.098361 
L 486.48763 72.042507 
L 486.818702 78.55767 
L 487.149774 72.150074 
L 488.14299 79.374709 
L 488.474062 84.309529 
L 488.805134 79.863592 
L 489.136206 87.042035 
L 489.467278 84.857666 
L 490.791566 98.518885 
L 491.122638 96.64136 
L 491.45371 102.004327 
L 491.784782 93.908146 
L 492.777998 91.4135 
L 493.10907 95.582253 
L 493.440142 91.401783 
L 493.771214 92.256765 
L 494.102286 91.93477 
L 495.095502 85.039032 
L 495.426574 84.412955 
L 495.757646 88.856804 
L 496.088718 90.159291 
L 496.41979 97.907284 
L 497.413006 95.776009 
L 497.744078 94.312895 
L 498.07515 91.699638 
L 498.737294 132.855603 
L 499.73051 133.671295 
L 500.061582 139.151491 
L 500.392654 106.459926 
L 500.723726 119.481264 
L 501.054798 112.909573 
L 502.048014 109.971561 
L 502.379086 110.615583 
L 502.710158 118.953764 
L 503.04123 118.47111 
L 504.365518 127.055466 
L 505.027662 112.04769 
L 505.358734 104.538263 
L 505.689806 101.749903 
L 506.683022 101.505815 
L 507.014094 99.293872 
L 507.345166 98.72641 
L 507.676238 96.307616 
L 508.00731 90.617133 
L 509.000526 93.119355 
L 509.331598 96.116621 
L 509.993742 92.18438 
L 510.324814 92.462236 
L 511.649102 76.835284 
L 511.980174 76.419493 
L 512.311246 74.740538 
L 512.642318 71.882554 
L 513.635534 71.522616 
L 513.966606 73.118144 
L 514.297678 79.727071 
L 514.62875 79.906349 
L 514.959822 82.608521 
L 516.28411 74.422685 
L 516.615182 76.697383 
L 516.946254 75.068761 
L 517.277326 75.101856 
L 518.270543 73.429802 
L 518.601615 71.055819 
L 518.932687 71.025485 
L 519.263759 73.198137 
L 519.594831 68.988007 
L 520.588047 68.607398 
L 520.919119 66.33684 
L 521.250191 67.479341 
L 521.581263 65.892129 
L 521.912335 70.600738 
L 522.905551 66.729873 
L 523.236623 70.204272 
L 523.567695 70.331837 
L 524.229839 71.230283 
L 525.223055 67.277337 
L 525.554127 62.656936 
L 525.885199 62.658316 
L 526.216271 59.289397 
L 526.547343 57.079542 
L 527.540559 54.88137 
L 527.871631 55.359917 
L 528.202703 53.332067 
L 528.533775 49.751448 
L 529.858063 53.15555 
L 530.189135 53.463067 
L 530.520207 50.860887 
L 530.851279 49.674922 
L 531.182351 51.102887 
L 532.175567 50.495428 
L 532.506639 52.205424 
L 532.837711 50.830519 
L 533.168783 48.509663 
L 533.499855 48.548952 
L 534.824143 47.66431 
L 535.155215 44.26573 
L 535.486287 43.959593 
L 535.817359 42.215828 
L 536.810575 42.137922 
L 537.141647 43.44179 
L 537.472719 43.990634 
L 537.803791 45.611648 
L 538.134863 52.601891 
L 539.128079 46.263245 
L 539.459151 48.383477 
L 539.790223 45.220703 
L 540.121295 45.569597 
L 540.452367 42.159974 
L 541.445583 43.263184 
L 541.776655 38.277392 
L 542.107727 36.841818 
L 542.107727 36.841818 
" clip-path="url(#p11b48c75a8)" style="fill: none; stroke: #0000ff; stroke-width: 1.5; stroke-linecap: square"/>
   </g>
   <g id="line2d_17">
    <path d="M 80.262273 195.062997 
L 80.924417 194.610643 
L 81.255489 194.30757 
L 81.586561 194.188825 
L 82.579777 193.964096 
L 82.910849 193.758321 
L 83.241921 193.320343 
L 83.572993 193.138674 
L 83.904065 192.803718 
L 84.897281 192.657164 
L 85.228353 191.921938 
L 85.559425 191.592705 
L 87.214785 191.484667 
L 87.876929 190.889092 
L 88.208001 190.918584 
L 88.539073 190.579925 
L 89.532289 190.222816 
L 89.863361 189.558223 
L 90.525505 188.863296 
L 92.511937 188.833938 
L 93.174081 188.198232 
L 94.167297 187.666053 
L 94.498369 188.01653 
L 94.829441 189.834867 
L 95.491585 191.646135 
L 96.815873 192.664235 
L 97.146945 192.673459 
L 97.478017 192.356179 
L 97.809089 191.784003 
L 99.133377 191.306196 
L 99.464449 191.237784 
L 99.795521 191.339763 
L 100.126593 191.158464 
L 101.450881 194.071057 
L 101.781953 194.071898 
L 102.113025 193.312398 
L 103.437313 192.118723 
L 104.430529 188.945545 
L 104.761601 188.247689 
L 106.08589 187.06361 
L 107.079106 187.956534 
L 108.072322 188.24035 
L 108.403394 188.885921 
L 109.065538 189.338712 
L 109.39661 189.450286 
L 110.720898 189.74235 
L 111.383042 190.737118 
L 111.714114 191.235596 
L 112.70733 192.496773 
L 113.038402 194.634883 
L 114.031618 197.60333 
L 115.024834 198.204191 
L 115.355906 198.696205 
L 115.686978 198.876426 
L 116.349122 198.051173 
L 117.342338 197.95411 
L 118.335554 196.781174 
L 118.666626 196.958702 
L 122.308418 198.121133 
L 122.970562 199.405541 
L 123.301634 201.230023 
L 124.29485 201.660494 
L 124.956994 203.318171 
L 125.288066 203.643683 
L 125.619138 203.52706 
L 126.612354 203.677351 
L 126.943426 204.544907 
L 127.274498 205.757233 
L 127.60557 206.288082 
L 127.936642 206.091129 
L 128.929858 205.667207 
L 129.26093 205.880102 
L 129.592002 205.791372 
L 129.923074 206.212062 
L 130.254146 205.697356 
L 131.247362 207.682145 
L 131.578434 207.472498 
L 131.909506 206.846472 
L 132.57165 204.563289 
L 133.564866 203.539618 
L 133.895938 202.476724 
L 134.22701 201.894044 
L 134.889154 200.343428 
L 135.88237 198.942279 
L 136.213442 198.117497 
L 136.544514 197.780588 
L 136.875587 197.791059 
L 137.206659 197.941451 
L 138.862019 197.239285 
L 139.193091 196.880796 
L 141.179523 196.617013 
L 141.510595 196.720472 
L 141.841667 197.149124 
L 142.834883 197.740625 
L 144.159171 202.458106 
L 145.152387 203.647606 
L 145.483459 205.513128 
L 146.145603 207.590974 
L 146.476675 208.377072 
L 147.469891 209.321457 
L 148.794179 215.608558 
L 150.780611 217.581412 
L 151.111683 218.188955 
L 153.098115 219.552683 
L 153.429187 219.522652 
L 154.753475 219.174902 
L 155.084547 220.133848 
L 155.415619 220.196671 
L 155.746691 220.086243 
L 157.070979 219.172832 
L 158.064195 218.085613 
L 159.057411 218.466862 
L 160.050627 222.484247 
L 160.381699 224.281543 
L 161.705987 227.999525 
L 162.037059 229.974854 
L 162.699203 232.130185 
L 163.692419 234.372057 
L 164.023491 234.381652 
L 165.016707 232.625885 
L 167.003139 229.280011 
L 167.334211 228.637841 
L 168.327428 227.65829 
L 168.6585 226.844164 
L 168.989572 226.540552 
L 169.320644 226.689244 
L 169.651716 226.99895 
L 170.976004 227.158499 
L 171.638148 226.757824 
L 171.96922 226.447631 
L 172.962436 225.987718 
L 173.293508 225.394635 
L 173.955652 224.828418 
L 174.286724 224.684406 
L 175.27994 224.467033 
L 175.611012 223.934231 
L 175.942084 223.626613 
L 176.604228 222.467464 
L 177.597444 221.826944 
L 177.928516 221.290792 
L 178.259588 220.533833 
L 178.59066 220.108581 
L 178.921732 219.493176 
L 179.914948 218.370085 
L 180.24602 217.208142 
L 180.908164 215.620122 
L 181.239236 214.547802 
L 182.894596 213.245314 
L 183.55674 212.58094 
L 184.549956 212.583516 
L 184.881028 212.739817 
L 185.2121 213.345071 
L 185.874244 215.683417 
L 187.198532 216.440241 
L 187.860676 218.001344 
L 188.191748 218.555811 
L 189.184964 218.81005 
L 189.516036 218.726117 
L 190.17818 219.532685 
L 190.509252 220.107756 
L 191.83354 223.975575 
L 192.826756 225.634161 
L 193.819972 226.84977 
L 194.482116 228.886743 
L 195.14426 230.123731 
L 196.137476 231.437379 
L 196.468548 232.409101 
L 196.79962 233.024372 
L 197.130692 233.065193 
L 197.461764 232.95064 
L 198.45498 233.05511 
L 198.786052 232.953165 
L 199.117124 233.578636 
L 199.448196 233.728102 
L 199.779268 234.434813 
L 202.096773 234.857826 
L 203.089989 235.294036 
L 203.421061 235.31183 
L 203.752133 235.152162 
L 204.414277 234.397358 
L 205.407493 233.718423 
L 205.738565 233.189409 
L 206.069637 232.248946 
L 206.400709 232.091736 
L 207.724997 232.844235 
L 208.387141 232.585804 
L 208.718213 232.701519 
L 209.049285 233.066641 
L 210.042501 232.971935 
L 210.704645 231.755552 
L 211.366789 229.67104 
L 212.360005 228.830519 
L 213.022149 227.17508 
L 213.684293 226.067442 
L 214.677509 224.079724 
L 215.339653 223.642554 
L 215.670725 225.179922 
L 216.001797 225.249007 
L 216.995013 224.974804 
L 217.657157 224.557884 
L 219.643589 223.750778 
L 219.974661 224.131118 
L 220.305733 224.049525 
L 220.636805 224.190086 
L 221.961093 226.280456 
L 222.292165 226.550417 
L 222.623237 226.497357 
L 222.954309 226.573462 
L 225.271813 225.674579 
L 226.596101 225.591117 
L 227.258245 227.192486 
L 227.589317 227.564678 
L 228.582533 227.795417 
L 228.913605 228.128017 
L 229.244677 228.142864 
L 229.575749 228.323119 
L 229.906821 228.373535 
L 231.231109 228.11726 
L 231.893254 227.762339 
L 232.224326 227.607907 
L 233.217542 227.349679 
L 233.548614 226.867933 
L 233.879686 226.043286 
L 234.54183 225.003842 
L 235.535046 224.359954 
L 235.866118 223.690093 
L 236.19719 223.629525 
L 236.528262 223.428632 
L 236.859334 223.632724 
L 237.85255 223.238799 
L 238.845766 221.502071 
L 239.176838 220.991237 
L 240.170054 220.279729 
L 240.501126 219.501879 
L 241.16327 218.775153 
L 241.494342 218.619375 
L 242.81863 218.639996 
L 243.811846 218.981568 
L 245.136134 219.036395 
L 245.467206 219.64244 
L 245.798278 219.651699 
L 246.12935 219.831937 
L 247.122566 219.812628 
L 247.453638 219.637643 
L 247.78471 219.318779 
L 248.115782 218.835367 
L 248.446854 218.96736 
L 249.44007 220.003286 
L 249.771142 221.570264 
L 250.102214 222.382993 
L 250.433286 223.735443 
L 250.764358 224.272941 
L 252.088646 227.644504 
L 252.419718 227.54771 
L 252.75079 226.89209 
L 253.081862 226.525621 
L 254.075078 225.841063 
L 255.399366 222.79801 
L 256.392582 222.381848 
L 257.054726 221.435847 
L 257.385798 220.814584 
L 258.710086 220.073197 
L 259.041158 219.368439 
L 260.034374 218.047788 
L 261.02759 217.602521 
L 262.351878 215.883923 
L 263.345094 215.580311 
L 263.676167 215.207597 
L 264.669383 215.556659 
L 265.993671 215.770144 
L 266.324743 216.270844 
L 266.655815 216.501061 
L 266.986887 217.203597 
L 267.980103 217.321348 
L 268.311175 217.011037 
L 270.297607 216.113786 
L 270.959751 215.674108 
L 271.290823 215.74762 
L 272.615111 215.46426 
L 272.946183 215.113143 
L 273.277255 215.058972 
L 273.939399 212.801832 
L 275.594759 212.224959 
L 275.925831 213.385808 
L 276.256903 213.759482 
L 277.250119 214.099858 
L 277.912263 214.068648 
L 278.243335 214.270736 
L 278.574407 214.025807 
L 279.567623 213.594125 
L 280.229767 212.715677 
L 280.891911 211.56136 
L 282.216199 212.442854 
L 282.878343 210.990261 
L 283.209415 210.179923 
L 284.202631 210.966105 
L 285.526919 208.021663 
L 286.520135 207.201864 
L 287.182279 205.204096 
L 287.844423 204.272218 
L 288.837639 203.997325 
L 289.499783 203.565676 
L 291.155143 203.045887 
L 291.486215 202.735491 
L 291.817287 202.73879 
L 292.148359 202.62757 
L 292.479431 202.281672 
L 293.803719 201.647717 
L 294.134791 201.323804 
L 294.465863 201.180145 
L 294.796935 201.381745 
L 295.790152 201.221118 
L 296.452296 201.264936 
L 296.783368 201.265862 
L 297.11444 201.108333 
L 298.107656 201.031807 
L 298.438728 200.614669 
L 299.100872 200.469277 
L 299.431944 200.780683 
L 300.756232 200.617463 
L 301.418376 200.480404 
L 301.749448 200.690336 
L 303.73588 201.359205 
L 304.066952 201.402804 
L 305.060168 201.153161 
L 305.39124 200.716109 
L 305.722312 200.52636 
L 306.053384 200.173762 
L 306.384456 200.364874 
L 308.370888 199.514388 
L 308.70196 199.622291 
L 310.688392 199.345815 
L 311.019464 199.39295 
L 312.01268 201.304243 
L 312.343752 200.976054 
L 312.674824 200.985733 
L 313.005896 200.771811 
L 314.330184 200.600865 
L 314.661256 200.480926 
L 314.992328 200.557738 
L 315.654472 201.249921 
L 316.647688 201.224317 
L 316.97876 198.150323 
L 317.309832 197.463139 
L 317.640904 197.59185 
L 320.28948 199.592428 
L 321.282696 199.583035 
L 321.613768 199.401468 
L 322.275912 199.210742 
L 322.606984 199.595257 
L 323.6002 200.11875 
L 324.262344 200.97262 
L 324.593416 201.468337 
L 324.924488 202.251237 
L 325.917704 202.760472 
L 326.91092 203.975912 
L 327.241993 204.280972 
L 328.235209 204.521087 
L 329.559497 203.112935 
L 330.552713 202.884856 
L 330.883785 202.413194 
L 331.214857 202.755169 
L 331.545929 202.739868 
L 331.877001 202.34862 
L 332.870217 201.783295 
L 333.532361 200.500705 
L 334.194505 199.596401 
L 335.187721 197.753991 
L 335.518793 197.663729 
L 335.849865 197.281639 
L 336.180937 197.20811 
L 336.512009 197.775168 
L 337.836297 197.847721 
L 338.498441 197.518892 
L 338.829513 197.026272 
L 339.822729 196.560148 
L 340.484873 195.752705 
L 340.815945 196.1554 
L 341.147017 197.05526 
L 342.140233 199.050957 
L 342.471305 198.853498 
L 343.133449 197.310525 
L 343.464521 195.983023 
L 344.788809 194.564418 
L 345.450953 191.667345 
L 345.782025 190.612279 
L 347.106313 189.988256 
L 347.437385 189.960345 
L 347.768457 190.071178 
L 349.423817 189.779316 
L 350.085961 189.187782 
L 351.741321 189.028199 
L 352.072393 189.381571 
L 352.734537 189.641348 
L 354.058825 189.84719 
L 355.052041 188.879793 
L 356.045257 188.030602 
L 356.707401 186.728688 
L 358.362761 186.231455 
L 358.693833 185.96518 
L 359.024906 185.857748 
L 359.355978 185.941243 
L 359.68705 185.648539 
L 360.680266 185.09249 
L 361.011338 184.355984 
L 362.004554 183.11733 
L 364.322058 182.126871 
L 365.315274 181.531801 
L 366.30849 180.071852 
L 366.639562 180.318802 
L 367.96385 180.038252 
L 368.625994 179.529 
L 368.957066 178.891308 
L 369.950282 178.242539 
L 370.281354 177.395705 
L 371.27457 176.159879 
L 372.267786 177.570001 
L 372.92993 177.006645 
L 373.592074 175.968379 
L 374.58529 174.850221 
L 374.916362 173.95164 
L 375.578506 173.126825 
L 376.902794 172.999394 
L 377.233866 172.361028 
L 377.89601 172.152223 
L 378.227082 172.121148 
L 379.220298 171.765352 
L 379.55137 171.448172 
L 379.882442 171.390197 
L 380.544586 171.876454 
L 381.537802 172.331131 
L 382.531018 173.457303 
L 383.855306 173.996619 
L 384.51745 174.633134 
L 384.848522 174.782852 
L 385.179594 175.079057 
L 386.17281 175.184133 
L 386.503882 175.070236 
L 386.834954 175.392567 
L 387.497098 176.421575 
L 388.490314 176.410296 
L 389.814602 175.681365 
L 390.807819 175.340417 
L 391.801035 175.402196 
L 392.132107 174.912673 
L 393.125323 174.31821 
L 394.118539 172.635989 
L 394.449611 172.234203 
L 395.773899 171.414976 
L 396.767115 170.380919 
L 397.760331 171.317644 
L 399.084619 170.998141 
L 400.408907 170.811086 
L 400.739979 170.543431 
L 401.071051 170.421218 
L 401.402123 169.789081 
L 402.395339 169.098463 
L 402.726411 168.515245 
L 403.719627 167.666189 
L 404.712843 169.120684 
L 405.706059 167.835973 
L 406.037131 167.395874 
L 407.030347 168.58396 
L 407.361419 168.24062 
L 408.354635 165.777486 
L 409.347851 165.007313 
L 410.009995 163.439594 
L 410.341067 162.996869 
L 412.327499 162.34571 
L 412.989643 162.482062 
L 413.982859 162.404998 
L 414.645003 161.951365 
L 414.976075 162.145423 
L 415.307147 162.804191 
L 416.300363 162.939264 
L 416.631435 162.858093 
L 416.962507 163.071442 
L 417.624651 164.109608 
L 418.617867 164.80238 
L 419.280011 166.510558 
L 419.611083 167.050515 
L 419.942155 167.263157 
L 420.935371 167.011258 
L 422.259659 165.010881 
L 423.252876 164.21465 
L 424.577164 160.977841 
L 425.57038 160.613123 
L 426.563596 158.881444 
L 426.894668 158.566487 
L 428.550028 159.397699 
L 429.212172 159.298481 
L 430.205388 159.405341 
L 431.198604 159.858908 
L 432.522892 159.502505 
L 433.516108 158.645268 
L 433.84718 158.62426 
L 434.840396 160.362806 
L 435.50254 159.788576 
L 435.833612 159.097959 
L 436.164684 158.759165 
L 437.1579 158.05269 
L 437.488972 157.628751 
L 438.482188 154.683871 
L 439.475404 153.925919 
L 440.137548 152.623365 
L 440.46862 152.232083 
L 440.799692 151.510054 
L 441.792908 150.981646 
L 442.12398 150.415496 
L 442.455052 150.32318 
L 443.117196 149.423085 
L 444.772556 148.587193 
L 445.103628 148.504304 
L 445.4347 148.655167 
L 446.427916 148.733343 
L 447.09006 148.960193 
L 447.421132 149.023285 
L 447.752204 149.368409 
L 448.74542 149.417967 
L 449.076492 149.303061 
L 449.407564 149.691481 
L 449.738636 151.648898 
L 450.069708 152.273427 
L 451.062924 152.452638 
L 451.393996 152.241039 
L 452.05614 152.08085 
L 452.387212 151.88733 
L 453.380428 152.066305 
L 454.373645 151.061572 
L 454.704717 151.123183 
L 455.697933 151.036523 
L 456.029005 151.752223 
L 457.022221 150.441151 
L 458.015437 148.903699 
L 458.346509 149.225054 
L 460.332941 148.972044 
L 460.664013 149.125432 
L 460.995085 149.101023 
L 461.326157 149.279696 
L 461.657229 148.972279 
L 462.650445 148.834176 
L 463.643661 150.020511 
L 463.974733 150.272174 
L 464.967949 152.991315 
L 465.299021 153.075012 
L 466.292237 151.153989 
L 468.278669 149.912776 
L 468.609741 150.019602 
L 469.602957 150.115049 
L 469.934029 150.796543 
L 471.920461 151.461708 
L 472.913677 152.603232 
L 473.244749 152.679252 
L 474.900109 152.914654 
L 476.555469 152.205621 
L 476.886541 152.363588 
L 477.217613 152.178316 
L 477.548685 151.651726 
L 477.879757 151.503018 
L 478.872973 151.254216 
L 479.535117 150.423947 
L 481.190477 150.496601 
L 481.852621 149.955331 
L 482.183693 150.748634 
L 482.514765 151.95958 
L 483.839053 152.868597 
L 484.832269 156.573449 
L 485.825486 158.117466 
L 486.818702 161.7399 
L 487.149774 162.608786 
L 488.474062 164.773965 
L 488.805134 165.724292 
L 489.467278 166.713875 
L 490.460494 167.56889 
L 491.122638 169.90227 
L 491.45371 170.345433 
L 491.784782 170.528112 
L 493.10907 170.947741 
L 493.440142 170.627936 
L 493.771214 170.556123 
L 494.102286 170.22248 
L 495.095502 172.480984 
L 495.426574 172.88011 
L 495.757646 172.685749 
L 496.088718 171.962441 
L 496.41979 171.507259 
L 497.413006 171.117694 
L 498.07515 171.869047 
L 498.406222 171.83437 
L 498.737294 173.218736 
L 499.73051 176.444368 
L 500.723726 188.463463 
L 501.054798 191.134863 
L 502.048014 192.360757 
L 502.379086 192.356987 
L 503.04123 190.543968 
L 504.365518 189.854529 
L 504.69659 188.896526 
L 505.689806 187.198347 
L 506.683022 185.969793 
L 507.345166 184.154047 
L 507.676238 184.009682 
L 508.00731 183.30516 
L 509.000526 182.636258 
L 509.66267 181.19156 
L 509.993742 180.744222 
L 510.324814 180.700589 
L 511.31803 179.994081 
L 511.649102 180.081346 
L 511.980174 179.654478 
L 512.642318 178.274388 
L 513.635534 177.224069 
L 514.297678 174.660068 
L 514.959822 173.679844 
L 516.615182 172.678746 
L 517.277326 171.162707 
L 518.270543 171.497697 
L 518.932687 170.714427 
L 519.594831 169.769083 
L 521.250191 168.670922 
L 521.581263 168.631902 
L 521.912335 168.407206 
L 523.236623 168.387814 
L 523.567695 168.03424 
L 524.229839 167.808635 
L 525.554127 168.826903 
L 525.885199 168.820001 
L 526.547343 168.182578 
L 527.540559 168.918141 
L 527.871631 168.875148 
L 528.202703 169.028974 
L 530.520207 164.972804 
L 530.851279 163.946658 
L 531.182351 163.433602 
L 532.175567 162.587205 
L 532.837711 161.676134 
L 533.168783 161.407772 
L 534.493071 161.241321 
L 534.824143 160.946193 
L 535.486287 161.104867 
L 536.810575 160.169926 
L 537.141647 159.629397 
L 537.472719 159.381774 
L 537.803791 159.426518 
L 538.134863 159.868435 
L 539.128079 160.224097 
L 540.121295 153.713277 
L 540.452367 151.273373 
L 541.445583 148.882724 
L 542.107727 145.224367 
L 542.107727 145.224367 
" clip-path="url(#p11b48c75a8)" style="fill: none; stroke-dasharray: 5.55,2.4; stroke-dashoffset: 0; stroke: #ff0000; stroke-width: 1.5"/>
   </g>
   <g id="patch_3">
    <path d="M 57.17 246.04 
L 57.17 26.88 
" style="fill: none; stroke: #000000; stroke-width: 0.8; stroke-linejoin: miter; stroke-linecap: square"/>
   </g>
   <g id="patch_4">
    <path d="M 565.2 246.04 
L 565.2 26.88 
" style="fill: none; stroke: #000000; stroke-width: 0.8; stroke-linejoin: miter; stroke-linecap: square"/>
   </g>
   <g id="patch_5">
    <path d="M 57.17 246.04 
L 565.2 246.04 
" style="fill: none; stroke: #000000; stroke-width: 0.8; stroke-linejoin: miter; stroke-linecap: square"/>
   </g>
   <g id="patch_6">
    <path d="M 57.17 26.88 
L 565.2 26.88 
" style="fill: none; stroke: #000000; stroke-width: 0.8; stroke-linejoin: miter; stroke-linecap: square"/>
   </g>
   <g id="text_18">
    <!-- Real vs Predicted Stock Prices -->
    <g transform="translate(221.412812 20.88) scale(0.12 -0.12)">
     <defs>
      <path id="DejaVuSans-52" d="M 2841 2188 
Q 3044 2119 3236 1894 
Q 3428 1669 3622 1275 
L 4263 0 
L 3584 0 
L 2988 1197 
Q 2756 1666 2539 1819 
Q 2322 1972 1947 1972 
L 1259 1972 
L 1259 0 
L 628 0 
L 628 4666 
L 2053 4666 
Q 2853 4666 3247 4331 
Q 3641 3997 3641 3322 
Q 3641 2881 3436 2590 
Q 3231 2300 2841 2188 
z
M 1259 4147 
L 1259 2491 
L 2053 2491 
Q 2509 2491 2742 2702 
Q 2975 2913 2975 3322 
Q 2975 3731 2742 3939 
Q 2509 4147 2053 4147 
L 1259 4147 
z
" transform="scale(0.015625)"/>
      <path id="DejaVuSans-6c" d="M 603 4863 
L 1178 4863 
L 1178 0 
L 603 0 
L 603 4863 
z
" transform="scale(0.015625)"/>
      <path id="DejaVuSans-76" d="M 191 3500 
L 800 3500 
L 1894 563 
L 2988 3500 
L 3597 3500 
L 2284 0 
L 1503 0 
L 191 3500 
z
" transform="scale(0.015625)"/>
      <path id="DejaVuSans-73" d="M 2834 3397 
L 2834 2853 
Q 2591 2978 2328 3040 
Q 2066 3103 1784 3103 
Q 1356 3103 1142 2972 
Q 928 2841 928 2578 
Q 928 2378 1081 2264 
Q 1234 2150 1697 2047 
L 1894 2003 
Q 2506 1872 2764 1633 
Q 3022 1394 3022 966 
Q 3022 478 2636 193 
Q 2250 -91 1575 -91 
Q 1294 -91 989 -36 
Q 684 19 347 128 
L 347 722 
Q 666 556 975 473 
Q 1284 391 1588 391 
Q 1994 391 2212 530 
Q 2431 669 2431 922 
Q 2431 1156 2273 1281 
Q 2116 1406 1581 1522 
L 1381 1569 
Q 847 1681 609 1914 
Q 372 2147 372 2553 
Q 372 3047 722 3315 
Q 1072 3584 1716 3584 
Q 2034 3584 2315 3537 
Q 2597 3491 2834 3397 
z
" transform="scale(0.015625)"/>
      <path id="DejaVuSans-64" d="M 2906 2969 
L 2906 4863 
L 3481 4863 
L 3481 0 
L 2906 0 
L 2906 525 
Q 2725 213 2448 61 
Q 2172 -91 1784 -91 
Q 1150 -91 751 415 
Q 353 922 353 1747 
Q 353 2572 751 3078 
Q 1150 3584 1784 3584 
Q 2172 3584 2448 3432 
Q 2725 3281 2906 2969 
z
M 947 1747 
Q 947 1113 1208 752 
Q 1469 391 1925 391 
Q 2381 391 2643 752 
Q 2906 1113 2906 1747 
Q 2906 2381 2643 2742 
Q 2381 3103 1925 3103 
Q 1469 3103 1208 2742 
Q 947 2381 947 1747 
z
" transform="scale(0.015625)"/>
     </defs>
     <use xlink:href="#DejaVuSans-52"/>
     <use xlink:href="#DejaVuSans-65" x="64.982422"/>
     <use xlink:href="#DejaVuSans-61" x="126.505859"/>
     <use xlink:href="#DejaVuSans-6c" x="187.785156"/>
     <use xlink:href="#DejaVuSans-20" x="215.568359"/>
     <use xlink:href="#DejaVuSans-76" x="247.355469"/>
     <use xlink:href="#DejaVuSans-73" x="306.535156"/>
     <use xlink:href="#DejaVuSans-20" x="358.634766"/>
     <use xlink:href="#DejaVuSans-50" x="390.421875"/>
     <use xlink:href="#DejaVuSans-72" x="448.974609"/>
     <use xlink:href="#DejaVuSans-65" x="487.837891"/>
     <use xlink:href="#DejaVuSans-64" x="549.361328"/>
     <use xlink:href="#DejaVuSans-69" x="612.837891"/>
     <use xlink:href="#DejaVuSans-63" x="640.621094"/>
     <use xlink:href="#DejaVuSans-74" x="695.601562"/>
     <use xlink:href="#DejaVuSans-65" x="734.810547"/>
     <use xlink:href="#DejaVuSans-64" x="796.333984"/>
     <use xlink:href="#DejaVuSans-20" x="859.810547"/>
     <use xlink:href="#DejaVuSans-53" x="891.597656"/>
     <use xlink:href="#DejaVuSans-74" x="955.074219"/>
     <use xlink:href="#DejaVuSans-6f" x="994.283203"/>
     <use xlink:href="#DejaVuSans-63" x="1055.464844"/>
     <use xlink:href="#DejaVuSans-6b" x="1110.445312"/>
     <use xlink:href="#DejaVuSans-20" x="1168.355469"/>
     <use xlink:href="#DejaVuSans-50" x="1200.142578"/>
     <use xlink:href="#DejaVuSans-72" x="1258.695312"/>
     <use xlink:href="#DejaVuSans-69" x="1299.808594"/>
     <use xlink:href="#DejaVuSans-63" x="1327.591797"/>
     <use xlink:href="#DejaVuSans-65" x="1382.572266"/>
     <use xlink:href="#DejaVuSans-73" x="1444.095703"/>
    </g>
   </g>
   <g id="legend_1">
    <g id="patch_7">
     <path d="M 64.17 64.23625 
L 175.893438 64.23625 
Q 177.893438 64.23625 177.893438 62.23625 
L 177.893438 33.88 
Q 177.893438 31.88 175.893438 31.88 
L 64.17 31.88 
Q 62.17 31.88 62.17 33.88 
L 62.17 62.23625 
Q 62.17 64.23625 64.17 64.23625 
z
" style="fill: #ffffff; opacity: 0.8; stroke: #cccccc; stroke-linejoin: miter"/>
    </g>
    <g id="line2d_18">
     <path d="M 66.17 39.978438 
L 76.17 39.978438 
L 86.17 39.978438 
" style="fill: none; stroke: #0000ff; stroke-width: 1.5; stroke-linecap: square"/>
    </g>
    <g id="text_19">
     <!-- Real Prices -->
     <g transform="translate(94.17 43.478438) scale(0.1 -0.1)">
      <use xlink:href="#DejaVuSans-52"/>
      <use xlink:href="#DejaVuSans-65" x="64.982422"/>
      <use xlink:href="#DejaVuSans-61" x="126.505859"/>
      <use xlink:href="#DejaVuSans-6c" x="187.785156"/>
      <use xlink:href="#DejaVuSans-20" x="215.568359"/>
      <use xlink:href="#DejaVuSans-50" x="247.355469"/>
      <use xlink:href="#DejaVuSans-72" x="305.908203"/>
      <use xlink:href="#DejaVuSans-69" x="347.021484"/>
      <use xlink:href="#DejaVuSans-63" x="374.804688"/>
      <use xlink:href="#DejaVuSans-65" x="429.785156"/>
      <use xlink:href="#DejaVuSans-73" x="491.308594"/>
     </g>
    </g>
    <g id="line2d_19">
     <path d="M 66.17 54.656563 
L 76.17 54.656563 
L 86.17 54.656563 
" style="fill: none; stroke-dasharray: 5.55,2.4; stroke-dashoffset: 0; stroke: #ff0000; stroke-width: 1.5"/>
    </g>
    <g id="text_20">
     <!-- Predicted Prices -->
     <g transform="translate(94.17 58.156563) scale(0.1 -0.1)">
      <use xlink:href="#DejaVuSans-50"/>
      <use xlink:href="#DejaVuSans-72" x="58.552734"/>
      <use xlink:href="#DejaVuSans-65" x="97.416016"/>
      <use xlink:href="#DejaVuSans-64" x="158.939453"/>
      <use xlink:href="#DejaVuSans-69" x="222.416016"/>
      <use xlink:href="#DejaVuSans-63" x="250.199219"/>
      <use xlink:href="#DejaVuSans-74" x="305.179688"/>
      <use xlink:href="#DejaVuSans-65" x="344.388672"/>
      <use xlink:href="#DejaVuSans-64" x="405.912109"/>
      <use xlink:href="#DejaVuSans-20" x="469.388672"/>
      <use xlink:href="#DejaVuSans-50" x="501.175781"/>
      <use xlink:href="#DejaVuSans-72" x="559.728516"/>
      <use xlink:href="#DejaVuSans-69" x="600.841797"/>
      <use xlink:href="#DejaVuSans-63" x="628.625"/>
      <use xlink:href="#DejaVuSans-65" x="683.605469"/>
      <use xlink:href="#DejaVuSans-73" x="745.128906"/>
     </g>
    </g>
   </g>
  </g>
 </g>
 <defs>
  <clipPath id="p11b48c75a8">
   <rect x="57.17" y="26.88" width="508.03" height="219.16"/>
  </clipPath>
 </defs>
</svg>
