<?xml version="1.0" encoding="utf-8" standalone="no"?>
<!DOCTYPE svg PUBLIC "-//W3C//DTD SVG 1.1//EN"
  "http://www.w3.org/Graphics/SVG/1.1/DTD/svg11.dtd">
<svg xmlns:xlink="http://www.w3.org/1999/xlink" width="576pt" height="288pt" viewBox="0 0 576 288" xmlns="http://www.w3.org/2000/svg" version="1.1">
 <metadata>
  <rdf:RDF xmlns:dc="http://purl.org/dc/elements/1.1/" xmlns:cc="http://creativecommons.org/ns#" xmlns:rdf="http://www.w3.org/1999/02/22-rdf-syntax-ns#">
   <cc:Work>
    <dc:type rdf:resource="http://purl.org/dc/dcmitype/StillImage"/>
    <dc:date>2025-08-14T16:32:02.881812</dc:date>
    <dc:format>image/svg+xml</dc:format>
    <dc:creator>
     <cc:Agent>
      <dc:title>Matplotlib v3.9.4, https://matplotlib.org/</dc:title>
     </cc:Agent>
    </dc:creator>
   </cc:Work>
  </rdf:RDF>
 </metadata>
 <defs>
  <style type="text/css">*{stroke-linejoin: round; stroke-linecap: butt}</style>
 </defs>
 <g id="figure_1">
  <g id="patch_1">
   <path d="M 0 288 
L 576 288 
L 576 0 
L 0 0 
z
" style="fill: #ffffff"/>
  </g>
  <g id="axes_1">
   <g id="patch_2">
    <path d="M 57.17 246.04 
L 565.2 246.04 
L 565.2 26.88 
L 57.17 26.88 
z
" style="fill: #ffffff"/>
   </g>
   <g id="matplotlib.axis_1">
    <g id="xtick_1">
     <g id="line2d_1">
      <defs>
       <path id="m4ef5a5865f" d="M 0 0 
L 0 3.5 
" style="stroke: #000000; stroke-width: 0.8"/>
      </defs>
      <g>
       <use xlink:href="#m4ef5a5865f" x="122.813767" y="246.04" style="stroke: #000000; stroke-width: 0.8"/>
      </g>
     </g>
     <g id="text_1">
      <!-- 2021 -->
      <g transform="translate(110.088767 260.638438) scale(0.1 -0.1)">
       <defs>
        <path id="DejaVuSans-32" d="M 1228 531 
L 3431 531 
L 3431 0 
L 469 0 
L 469 531 
Q 828 903 1448 1529 
Q 2069 2156 2228 2338 
Q 2531 2678 2651 2914 
Q 2772 3150 2772 3378 
Q 2772 3750 2511 3984 
Q 2250 4219 1831 4219 
Q 1534 4219 1204 4116 
Q 875 4013 500 3803 
L 500 4441 
Q 881 4594 1212 4672 
Q 1544 4750 1819 4750 
Q 2544 4750 2975 4387 
Q 3406 4025 3406 3419 
Q 3406 3131 3298 2873 
Q 3191 2616 2906 2266 
Q 2828 2175 2409 1742 
Q 1991 1309 1228 531 
z
" transform="scale(0.015625)"/>
        <path id="DejaVuSans-30" d="M 2034 4250 
Q 1547 4250 1301 3770 
Q 1056 3291 1056 2328 
Q 1056 1369 1301 889 
Q 1547 409 2034 409 
Q 2525 409 2770 889 
Q 3016 1369 3016 2328 
Q 3016 3291 2770 3770 
Q 2525 4250 2034 4250 
z
M 2034 4750 
Q 2819 4750 3233 4129 
Q 3647 3509 3647 2328 
Q 3647 1150 3233 529 
Q 2819 -91 2034 -91 
Q 1250 -91 836 529 
Q 422 1150 422 2328 
Q 422 3509 836 4129 
Q 1250 4750 2034 4750 
z
" transform="scale(0.015625)"/>
        <path id="DejaVuSans-31" d="M 794 531 
L 1825 531 
L 1825 4091 
L 703 3866 
L 703 4441 
L 1819 4666 
L 2450 4666 
L 2450 531 
L 3481 531 
L 3481 0 
L 794 0 
L 794 531 
z
" transform="scale(0.015625)"/>
       </defs>
       <use xlink:href="#DejaVuSans-32"/>
       <use xlink:href="#DejaVuSans-30" x="63.623047"/>
       <use xlink:href="#DejaVuSans-32" x="127.246094"/>
       <use xlink:href="#DejaVuSans-31" x="190.869141"/>
      </g>
     </g>
    </g>
    <g id="xtick_2">
     <g id="line2d_2">
      <g>
       <use xlink:href="#m4ef5a5865f" x="213.640055" y="246.04" style="stroke: #000000; stroke-width: 0.8"/>
      </g>
     </g>
     <g id="text_2">
      <!-- 2022 -->
      <g transform="translate(200.915055 260.638438) scale(0.1 -0.1)">
       <use xlink:href="#DejaVuSans-32"/>
       <use xlink:href="#DejaVuSans-30" x="63.623047"/>
       <use xlink:href="#DejaVuSans-32" x="127.246094"/>
       <use xlink:href="#DejaVuSans-32" x="190.869141"/>
      </g>
     </g>
    </g>
    <g id="xtick_3">
     <g id="line2d_3">
      <g>
       <use xlink:href="#m4ef5a5865f" x="304.466343" y="246.04" style="stroke: #000000; stroke-width: 0.8"/>
      </g>
     </g>
     <g id="text_3">
      <!-- 2023 -->
      <g transform="translate(291.741343 260.638438) scale(0.1 -0.1)">
       <defs>
        <path id="DejaVuSans-33" d="M 2597 2516 
Q 3050 2419 3304 2112 
Q 3559 1806 3559 1356 
Q 3559 666 3084 287 
Q 2609 -91 1734 -91 
Q 1441 -91 1130 -33 
Q 819 25 488 141 
L 488 750 
Q 750 597 1062 519 
Q 1375 441 1716 441 
Q 2309 441 2620 675 
Q 2931 909 2931 1356 
Q 2931 1769 2642 2001 
Q 2353 2234 1838 2234 
L 1294 2234 
L 1294 2753 
L 1863 2753 
Q 2328 2753 2575 2939 
Q 2822 3125 2822 3475 
Q 2822 3834 2567 4026 
Q 2313 4219 1838 4219 
Q 1578 4219 1281 4162 
Q 984 4106 628 3988 
L 628 4550 
Q 988 4650 1302 4700 
Q 1616 4750 1894 4750 
Q 2613 4750 3031 4423 
Q 3450 4097 3450 3541 
Q 3450 3153 3228 2886 
Q 3006 2619 2597 2516 
z
" transform="scale(0.015625)"/>
       </defs>
       <use xlink:href="#DejaVuSans-32"/>
       <use xlink:href="#DejaVuSans-30" x="63.623047"/>
       <use xlink:href="#DejaVuSans-32" x="127.246094"/>
       <use xlink:href="#DejaVuSans-33" x="190.869141"/>
      </g>
     </g>
    </g>
    <g id="xtick_4">
     <g id="line2d_4">
      <g>
       <use xlink:href="#m4ef5a5865f" x="395.292631" y="246.04" style="stroke: #000000; stroke-width: 0.8"/>
      </g>
     </g>
     <g id="text_4">
      <!-- 2024 -->
      <g transform="translate(382.567631 260.638438) scale(0.1 -0.1)">
       <defs>
        <path id="DejaVuSans-34" d="M 2419 4116 
L 825 1625 
L 2419 1625 
L 2419 4116 
z
M 2253 4666 
L 3047 4666 
L 3047 1625 
L 3713 1625 
L 3713 1100 
L 3047 1100 
L 3047 0 
L 2419 0 
L 2419 1100 
L 313 1100 
L 313 1709 
L 2253 4666 
z
" transform="scale(0.015625)"/>
       </defs>
       <use xlink:href="#DejaVuSans-32"/>
       <use xlink:href="#DejaVuSans-30" x="63.623047"/>
       <use xlink:href="#DejaVuSans-32" x="127.246094"/>
       <use xlink:href="#DejaVuSans-34" x="190.869141"/>
      </g>
     </g>
    </g>
    <g id="xtick_5">
     <g id="line2d_5">
      <g>
       <use xlink:href="#m4ef5a5865f" x="486.367759" y="246.04" style="stroke: #000000; stroke-width: 0.8"/>
      </g>
     </g>
     <g id="text_5">
      <!-- 2025 -->
      <g transform="translate(473.642759 260.638438) scale(0.1 -0.1)">
       <defs>
        <path id="DejaVuSans-35" d="M 691 4666 
L 3169 4666 
L 3169 4134 
L 1269 4134 
L 1269 2991 
Q 1406 3038 1543 3061 
Q 1681 3084 1819 3084 
Q 2600 3084 3056 2656 
Q 3513 2228 3513 1497 
Q 3513 744 3044 326 
Q 2575 -91 1722 -91 
Q 1428 -91 1123 -41 
Q 819 9 494 109 
L 494 744 
Q 775 591 1075 516 
Q 1375 441 1709 441 
Q 2250 441 2565 725 
Q 2881 1009 2881 1497 
Q 2881 1984 2565 2268 
Q 2250 2553 1709 2553 
Q 1456 2553 1204 2497 
Q 953 2441 691 2322 
L 691 4666 
z
" transform="scale(0.015625)"/>
       </defs>
       <use xlink:href="#DejaVuSans-32"/>
       <use xlink:href="#DejaVuSans-30" x="63.623047"/>
       <use xlink:href="#DejaVuSans-32" x="127.246094"/>
       <use xlink:href="#DejaVuSans-35" x="190.869141"/>
      </g>
     </g>
    </g>
    <g id="text_6">
     <!-- Date -->
     <g transform="translate(299.234219 274.316562) scale(0.1 -0.1)">
      <defs>
       <path id="DejaVuSans-44" d="M 1259 4147 
L 1259 519 
L 2022 519 
Q 2988 519 3436 956 
Q 3884 1394 3884 2338 
Q 3884 3275 3436 3711 
Q 2988 4147 2022 4147 
L 1259 4147 
z
M 628 4666 
L 1925 4666 
Q 3281 4666 3915 4102 
Q 4550 3538 4550 2338 
Q 4550 1131 3912 565 
Q 3275 0 1925 0 
L 628 0 
L 628 4666 
z
" transform="scale(0.015625)"/>
       <path id="DejaVuSans-61" d="M 2194 1759 
Q 1497 1759 1228 1600 
Q 959 1441 959 1056 
Q 959 750 1161 570 
Q 1363 391 1709 391 
Q 2188 391 2477 730 
Q 2766 1069 2766 1631 
L 2766 1759 
L 2194 1759 
z
M 3341 1997 
L 3341 0 
L 2766 0 
L 2766 531 
Q 2569 213 2275 61 
Q 1981 -91 1556 -91 
Q 1019 -91 701 211 
Q 384 513 384 1019 
Q 384 1609 779 1909 
Q 1175 2209 1959 2209 
L 2766 2209 
L 2766 2266 
Q 2766 2663 2505 2880 
Q 2244 3097 1772 3097 
Q 1472 3097 1187 3025 
Q 903 2953 641 2809 
L 641 3341 
Q 956 3463 1253 3523 
Q 1550 3584 1831 3584 
Q 2591 3584 2966 3190 
Q 3341 2797 3341 1997 
z
" transform="scale(0.015625)"/>
       <path id="DejaVuSans-74" d="M 1172 4494 
L 1172 3500 
L 2356 3500 
L 2356 3053 
L 1172 3053 
L 1172 1153 
Q 1172 725 1289 603 
Q 1406 481 1766 481 
L 2356 481 
L 2356 0 
L 1766 0 
Q 1100 0 847 248 
Q 594 497 594 1153 
L 594 3053 
L 172 3053 
L 172 3500 
L 594 3500 
L 594 4494 
L 1172 4494 
z
" transform="scale(0.015625)"/>
       <path id="DejaVuSans-65" d="M 3597 1894 
L 3597 1613 
L 953 1613 
Q 991 1019 1311 708 
Q 1631 397 2203 397 
Q 2534 397 2845 478 
Q 3156 559 3463 722 
L 3463 178 
Q 3153 47 2828 -22 
Q 2503 -91 2169 -91 
Q 1331 -91 842 396 
Q 353 884 353 1716 
Q 353 2575 817 3079 
Q 1281 3584 2069 3584 
Q 2775 3584 3186 3129 
Q 3597 2675 3597 1894 
z
M 3022 2063 
Q 3016 2534 2758 2815 
Q 2500 3097 2075 3097 
Q 1594 3097 1305 2825 
Q 1016 2553 972 2059 
L 3022 2063 
z
" transform="scale(0.015625)"/>
      </defs>
      <use xlink:href="#DejaVuSans-44"/>
      <use xlink:href="#DejaVuSans-61" x="77.001953"/>
      <use xlink:href="#DejaVuSans-74" x="138.28125"/>
      <use xlink:href="#DejaVuSans-65" x="177.490234"/>
     </g>
    </g>
   </g>
   <g id="matplotlib.axis_2">
    <g id="ytick_1">
     <g id="line2d_6">
      <defs>
       <path id="m7f1b07bb16" d="M 0 0 
L -3.5 0 
" style="stroke: #000000; stroke-width: 0.8"/>
      </defs>
      <g>
       <use xlink:href="#m7f1b07bb16" x="57.17" y="241.200419" style="stroke: #000000; stroke-width: 0.8"/>
      </g>
     </g>
     <g id="text_7">
      <!-- 3000 -->
      <g transform="translate(24.72 244.999638) scale(0.1 -0.1)">
       <use xlink:href="#DejaVuSans-33"/>
       <use xlink:href="#DejaVuSans-30" x="63.623047"/>
       <use xlink:href="#DejaVuSans-30" x="127.246094"/>
       <use xlink:href="#DejaVuSans-30" x="190.869141"/>
      </g>
     </g>
    </g>
    <g id="ytick_2">
     <g id="line2d_7">
      <g>
       <use xlink:href="#m7f1b07bb16" x="57.17" y="211.724885" style="stroke: #000000; stroke-width: 0.8"/>
      </g>
     </g>
     <g id="text_8">
      <!-- 3500 -->
      <g transform="translate(24.72 215.524104) scale(0.1 -0.1)">
       <use xlink:href="#DejaVuSans-33"/>
       <use xlink:href="#DejaVuSans-35" x="63.623047"/>
       <use xlink:href="#DejaVuSans-30" x="127.246094"/>
       <use xlink:href="#DejaVuSans-30" x="190.869141"/>
      </g>
     </g>
    </g>
    <g id="ytick_3">
     <g id="line2d_8">
      <g>
       <use xlink:href="#m7f1b07bb16" x="57.17" y="182.24935" style="stroke: #000000; stroke-width: 0.8"/>
      </g>
     </g>
     <g id="text_9">
      <!-- 4000 -->
      <g transform="translate(24.72 186.048569) scale(0.1 -0.1)">
       <use xlink:href="#DejaVuSans-34"/>
       <use xlink:href="#DejaVuSans-30" x="63.623047"/>
       <use xlink:href="#DejaVuSans-30" x="127.246094"/>
       <use xlink:href="#DejaVuSans-30" x="190.869141"/>
      </g>
     </g>
    </g>
    <g id="ytick_4">
     <g id="line2d_9">
      <g>
       <use xlink:href="#m7f1b07bb16" x="57.17" y="152.773816" style="stroke: #000000; stroke-width: 0.8"/>
      </g>
     </g>
     <g id="text_10">
      <!-- 4500 -->
      <g transform="translate(24.72 156.573035) scale(0.1 -0.1)">
       <use xlink:href="#DejaVuSans-34"/>
       <use xlink:href="#DejaVuSans-35" x="63.623047"/>
       <use xlink:href="#DejaVuSans-30" x="127.246094"/>
       <use xlink:href="#DejaVuSans-30" x="190.869141"/>
      </g>
     </g>
    </g>
    <g id="ytick_5">
     <g id="line2d_10">
      <g>
       <use xlink:href="#m7f1b07bb16" x="57.17" y="123.298282" style="stroke: #000000; stroke-width: 0.8"/>
      </g>
     </g>
     <g id="text_11">
      <!-- 5000 -->
      <g transform="translate(24.72 127.0975) scale(0.1 -0.1)">
       <use xlink:href="#DejaVuSans-35"/>
       <use xlink:href="#DejaVuSans-30" x="63.623047"/>
       <use xlink:href="#DejaVuSans-30" x="127.246094"/>
       <use xlink:href="#DejaVuSans-30" x="190.869141"/>
      </g>
     </g>
    </g>
    <g id="ytick_6">
     <g id="line2d_11">
      <g>
       <use xlink:href="#m7f1b07bb16" x="57.17" y="93.822747" style="stroke: #000000; stroke-width: 0.8"/>
      </g>
     </g>
     <g id="text_12">
      <!-- 5500 -->
      <g transform="translate(24.72 97.621966) scale(0.1 -0.1)">
       <use xlink:href="#DejaVuSans-35"/>
       <use xlink:href="#DejaVuSans-35" x="63.623047"/>
       <use xlink:href="#DejaVuSans-30" x="127.246094"/>
       <use xlink:href="#DejaVuSans-30" x="190.869141"/>
      </g>
     </g>
    </g>
    <g id="ytick_7">
     <g id="line2d_12">
      <g>
       <use xlink:href="#m7f1b07bb16" x="57.17" y="64.347213" style="stroke: #000000; stroke-width: 0.8"/>
      </g>
     </g>
     <g id="text_13">
      <!-- 6000 -->
      <g transform="translate(24.72 68.146431) scale(0.1 -0.1)">
       <defs>
        <path id="DejaVuSans-36" d="M 2113 2584 
Q 1688 2584 1439 2293 
Q 1191 2003 1191 1497 
Q 1191 994 1439 701 
Q 1688 409 2113 409 
Q 2538 409 2786 701 
Q 3034 994 3034 1497 
Q 3034 2003 2786 2293 
Q 2538 2584 2113 2584 
z
M 3366 4563 
L 3366 3988 
Q 3128 4100 2886 4159 
Q 2644 4219 2406 4219 
Q 1781 4219 1451 3797 
Q 1122 3375 1075 2522 
Q 1259 2794 1537 2939 
Q 1816 3084 2150 3084 
Q 2853 3084 3261 2657 
Q 3669 2231 3669 1497 
Q 3669 778 3244 343 
Q 2819 -91 2113 -91 
Q 1303 -91 875 529 
Q 447 1150 447 2328 
Q 447 3434 972 4092 
Q 1497 4750 2381 4750 
Q 2619 4750 2861 4703 
Q 3103 4656 3366 4563 
z
" transform="scale(0.015625)"/>
       </defs>
       <use xlink:href="#DejaVuSans-36"/>
       <use xlink:href="#DejaVuSans-30" x="63.623047"/>
       <use xlink:href="#DejaVuSans-30" x="127.246094"/>
       <use xlink:href="#DejaVuSans-30" x="190.869141"/>
      </g>
     </g>
    </g>
    <g id="ytick_8">
     <g id="line2d_13">
      <g>
       <use xlink:href="#m7f1b07bb16" x="57.17" y="34.871678" style="stroke: #000000; stroke-width: 0.8"/>
      </g>
     </g>
     <g id="text_14">
      <!-- 6500 -->
      <g transform="translate(24.72 38.670897) scale(0.1 -0.1)">
       <use xlink:href="#DejaVuSans-36"/>
       <use xlink:href="#DejaVuSans-35" x="63.623047"/>
       <use xlink:href="#DejaVuSans-30" x="127.246094"/>
       <use xlink:href="#DejaVuSans-30" x="190.869141"/>
      </g>
     </g>
    </g>
    <g id="text_15">
     <!-- Stock Price -->
     <g transform="translate(18.640313 164.085) rotate(-90) scale(0.1 -0.1)">
      <defs>
       <path id="DejaVuSans-53" d="M 3425 4513 
L 3425 3897 
Q 3066 4069 2747 4153 
Q 2428 4238 2131 4238 
Q 1616 4238 1336 4038 
Q 1056 3838 1056 3469 
Q 1056 3159 1242 3001 
Q 1428 2844 1947 2747 
L 2328 2669 
Q 3034 2534 3370 2195 
Q 3706 1856 3706 1288 
Q 3706 609 3251 259 
Q 2797 -91 1919 -91 
Q 1588 -91 1214 -16 
Q 841 59 441 206 
L 441 856 
Q 825 641 1194 531 
Q 1563 422 1919 422 
Q 2459 422 2753 634 
Q 3047 847 3047 1241 
Q 3047 1584 2836 1778 
Q 2625 1972 2144 2069 
L 1759 2144 
Q 1053 2284 737 2584 
Q 422 2884 422 3419 
Q 422 4038 858 4394 
Q 1294 4750 2059 4750 
Q 2388 4750 2728 4690 
Q 3069 4631 3425 4513 
z
" transform="scale(0.015625)"/>
       <path id="DejaVuSans-6f" d="M 1959 3097 
Q 1497 3097 1228 2736 
Q 959 2375 959 1747 
Q 959 1119 1226 758 
Q 1494 397 1959 397 
Q 2419 397 2687 759 
Q 2956 1122 2956 1747 
Q 2956 2369 2687 2733 
Q 2419 3097 1959 3097 
z
M 1959 3584 
Q 2709 3584 3137 3096 
Q 3566 2609 3566 1747 
Q 3566 888 3137 398 
Q 2709 -91 1959 -91 
Q 1206 -91 779 398 
Q 353 888 353 1747 
Q 353 2609 779 3096 
Q 1206 3584 1959 3584 
z
" transform="scale(0.015625)"/>
       <path id="DejaVuSans-63" d="M 3122 3366 
L 3122 2828 
Q 2878 2963 2633 3030 
Q 2388 3097 2138 3097 
Q 1578 3097 1268 2742 
Q 959 2388 959 1747 
Q 959 1106 1268 751 
Q 1578 397 2138 397 
Q 2388 397 2633 464 
Q 2878 531 3122 666 
L 3122 134 
Q 2881 22 2623 -34 
Q 2366 -91 2075 -91 
Q 1284 -91 818 406 
Q 353 903 353 1747 
Q 353 2603 823 3093 
Q 1294 3584 2113 3584 
Q 2378 3584 2631 3529 
Q 2884 3475 3122 3366 
z
" transform="scale(0.015625)"/>
       <path id="DejaVuSans-6b" d="M 581 4863 
L 1159 4863 
L 1159 1991 
L 2875 3500 
L 3609 3500 
L 1753 1863 
L 3688 0 
L 2938 0 
L 1159 1709 
L 1159 0 
L 581 0 
L 581 4863 
z
" transform="scale(0.015625)"/>
       <path id="DejaVuSans-20" transform="scale(0.015625)"/>
       <path id="DejaVuSans-50" d="M 1259 4147 
L 1259 2394 
L 2053 2394 
Q 2494 2394 2734 2622 
Q 2975 2850 2975 3272 
Q 2975 3691 2734 3919 
Q 2494 4147 2053 4147 
L 1259 4147 
z
M 628 4666 
L 2053 4666 
Q 2838 4666 3239 4311 
Q 3641 3956 3641 3272 
Q 3641 2581 3239 2228 
Q 2838 1875 2053 1875 
L 1259 1875 
L 1259 0 
L 628 0 
L 628 4666 
z
" transform="scale(0.015625)"/>
       <path id="DejaVuSans-72" d="M 2631 2963 
Q 2534 3019 2420 3045 
Q 2306 3072 2169 3072 
Q 1681 3072 1420 2755 
Q 1159 2438 1159 1844 
L 1159 0 
L 581 0 
L 581 3500 
L 1159 3500 
L 1159 2956 
Q 1341 3275 1631 3429 
Q 1922 3584 2338 3584 
Q 2397 3584 2469 3576 
Q 2541 3569 2628 3553 
L 2631 2963 
z
" transform="scale(0.015625)"/>
       <path id="DejaVuSans-69" d="M 603 3500 
L 1178 3500 
L 1178 0 
L 603 0 
L 603 3500 
z
M 603 4863 
L 1178 4863 
L 1178 4134 
L 603 4134 
L 603 4863 
z
" transform="scale(0.015625)"/>
      </defs>
      <use xlink:href="#DejaVuSans-53"/>
      <use xlink:href="#DejaVuSans-74" x="63.476562"/>
      <use xlink:href="#DejaVuSans-6f" x="102.685547"/>
      <use xlink:href="#DejaVuSans-63" x="163.867188"/>
      <use xlink:href="#DejaVuSans-6b" x="218.847656"/>
      <use xlink:href="#DejaVuSans-20" x="276.757812"/>
      <use xlink:href="#DejaVuSans-50" x="308.544922"/>
      <use xlink:href="#DejaVuSans-72" x="367.097656"/>
      <use xlink:href="#DejaVuSans-69" x="408.210938"/>
      <use xlink:href="#DejaVuSans-63" x="435.994141"/>
      <use xlink:href="#DejaVuSans-65" x="490.974609"/>
     </g>
    </g>
   </g>
   <g id="line2d_14">
    <path d="M 80.262273 229.556403 
L 80.511112 227.844462 
L 80.759951 228.492334 
L 82.004147 226.032307 
L 82.252986 224.928744 
L 82.501825 227.308016 
L 82.750664 228.488807 
L 83.497182 227.086949 
L 83.746021 228.323151 
L 83.99486 225.965109 
L 84.243699 226.685489 
L 84.492538 225.217599 
L 85.239056 223.832839 
L 85.487895 223.131327 
L 85.985573 220.617069 
L 86.234412 220.492086 
L 86.98093 219.950329 
L 87.229769 221.529041 
L 87.478608 218.778375 
L 87.727447 219.186326 
L 87.976286 219.220508 
L 88.722804 218.681701 
L 88.971643 218.22247 
L 89.220482 219.102605 
L 90.713517 215.048539 
L 90.962356 212.978775 
L 91.211195 212.635676 
L 91.460034 211.252686 
L 92.206552 211.706607 
L 92.455391 210.153845 
L 92.70423 206.959275 
L 92.953069 214.374143 
L 93.201908 216.030673 
L 94.197265 221.638092 
L 94.446104 217.681303 
L 94.694943 221.20481 
L 94.943782 221.099875 
L 95.939139 217.549253 
L 96.187978 218.475372 
L 96.685656 222.367323 
L 97.432174 224.631629 
L 97.681013 222.597227 
L 97.929852 227.233737 
L 98.178691 226.66367 
L 98.42753 223.605886 
L 99.174048 220.473218 
L 99.422887 221.424106 
L 99.920565 218.75185 
L 100.169404 220.660693 
L 100.915922 217.113007 
L 101.164761 219.920854 
L 101.4136 216.473987 
L 101.911278 213.072513 
L 102.657796 209.707581 
L 103.155474 212.392805 
L 103.404313 212.707005 
L 103.653152 212.679299 
L 104.39967 216.033034 
L 104.648509 215.078015 
L 104.897348 215.523688 
L 105.395026 213.765188 
L 106.141544 217.562811 
L 106.390383 218.16942 
L 106.639222 225.22291 
L 106.888061 222.919097 
L 107.1369 225.285991 
L 107.883418 222.91144 
L 108.629935 211.108849 
L 108.878774 211.16839 
L 109.625292 208.747856 
L 109.874131 209.040841 
L 110.12297 207.441506 
L 110.371809 209.543105 
L 110.620649 206.705207 
L 111.367166 204.24341 
L 111.616005 205.267973 
L 111.864844 207.72859 
L 112.113683 206.898554 
L 112.362523 208.332838 
L 113.10904 207.150866 
L 113.357879 203.742326 
L 113.606718 204.081885 
L 114.104397 203.568999 
L 114.850914 204.554673 
L 115.099753 202.148287 
L 115.348592 201.761564 
L 115.597431 201.896564 
L 115.846271 199.986541 
L 116.592788 200.40864 
L 116.841627 199.802031 
L 117.090466 201.536957 
L 118.334662 203.030192 
L 118.583501 200.251821 
L 118.83234 199.865703 
L 119.081179 198.609452 
L 119.330019 199.379947 
L 120.325375 200.685707 
L 120.574214 200.523592 
L 120.823053 199.754277 
L 121.81841 197.850155 
L 122.067249 198.340632 
L 122.316088 198.045877 
L 122.564928 196.629281 
L 123.560284 199.896359 
L 124.057962 197.096773 
L 124.306802 193.816137 
L 124.555641 192.584656 
L 125.302158 194.062549 
L 125.550997 193.969416 
L 125.799836 193.459481 
L 126.048676 194.302484 
L 126.297515 195.911261 
L 127.292871 194.103826 
L 127.54171 190.982946 
L 127.79055 190.911027 
L 128.039389 191.594865 
L 128.785906 190.776027 
L 129.034745 191.114405 
L 129.283584 196.941724 
L 129.532424 194.783534 
L 129.781263 199.095209 
L 130.52778 195.580539 
L 130.776619 192.488558 
L 131.025458 192.261015 
L 131.274298 189.810415 
L 131.523137 188.920838 
L 132.269654 187.225405 
L 132.518493 187.482438 
L 132.767332 187.562028 
L 133.016172 187.178846 
L 133.265011 186.091187 
L 134.509207 186.297516 
L 134.758046 187.320913 
L 135.006885 187.748898 
L 135.753402 189.529808 
L 136.002241 189.242709 
L 136.251081 186.645336 
L 136.49992 192.309935 
L 136.748759 193.382266 
L 137.495276 188.037162 
L 137.744115 189.895891 
L 138.241794 195.898293 
L 138.490633 191.56716 
L 139.23715 192.780953 
L 139.485989 189.592299 
L 139.734829 188.214606 
L 139.983668 185.825317 
L 140.232507 185.589513 
L 140.979024 184.080374 
L 141.227863 184.447638 
L 141.476703 183.774997 
L 141.725542 187.233076 
L 141.974381 187.372193 
L 142.720898 185.751628 
L 143.218577 188.784672 
L 143.467416 187.583242 
L 143.716255 183.750242 
L 144.462772 183.953621 
L 144.711611 184.692869 
L 144.960451 183.84752 
L 145.20929 181.077986 
L 146.204646 177.656478 
L 146.453486 177.890512 
L 146.702325 177.536215 
L 146.951164 176.52108 
L 147.200003 174.656464 
L 147.94652 174.704189 
L 148.19536 173.902478 
L 148.444199 174.900501 
L 148.693038 172.202914 
L 148.941877 171.315683 
L 149.688394 172.625013 
L 149.937234 174.294497 
L 150.186073 172.026061 
L 150.434912 174.292136 
L 150.683751 171.628141 
L 151.430268 171.188944 
L 151.679108 171.241994 
L 151.927947 171.450683 
L 152.176786 169.782955 
L 152.425625 171.56919 
L 153.172142 170.891828 
L 153.420982 172.542458 
L 153.669821 172.36975 
L 154.167499 168.537326 
L 154.914016 171.14119 
L 155.162856 173.282887 
L 155.411695 178.533073 
L 155.909373 172.000701 
L 156.65589 172.623228 
L 156.90473 174.713631 
L 157.153569 175.42988 
L 157.402408 172.86905 
L 157.651247 173.061245 
L 158.397764 170.633054 
L 158.646604 171.158893 
L 159.144282 170.407267 
L 159.393121 170.216856 
L 160.388478 170.338874 
L 160.637317 169.980447 
L 160.886156 170.880631 
L 161.134995 168.697081 
L 162.130352 168.852144 
L 162.379191 169.306655 
L 162.62803 168.149423 
L 162.876869 167.662501 
L 163.623387 167.207991 
L 163.872226 167.712616 
L 164.121065 169.061985 
L 164.369904 169.170474 
L 164.618743 172.436934 
L 165.6141 167.721453 
L 165.862939 167.992633 
L 166.360617 165.701774 
L 167.604813 164.711407 
L 168.102491 161.47854 
L 169.097848 161.997298 
L 169.346687 161.137211 
L 169.595526 163.336679 
L 169.844365 160.463994 
L 170.590883 159.575008 
L 170.839722 160.484029 
L 171.088561 160.183977 
L 171.3374 161.02521 
L 171.586239 162.96291 
L 172.332757 167.011075 
L 172.581596 163.204615 
L 172.830435 161.104195 
L 173.079274 160.586013 
L 173.328113 157.973888 
L 174.074631 157.354326 
L 174.32347 158.582857 
L 174.572309 158.631186 
L 174.821148 157.540016 
L 175.069987 158.948365 
L 175.816505 159.425845 
L 176.065344 157.304211 
L 176.314183 158.512104 
L 176.563022 156.953441 
L 176.811861 156.516029 
L 177.558379 156.76185 
L 178.056057 156.168799 
L 178.304896 155.082925 
L 178.553735 154.66025 
L 179.300253 153.969935 
L 179.549092 155.834551 
L 179.797931 158.653005 
L 180.04677 158.327018 
L 180.295609 156.212436 
L 181.290966 153.585573 
L 181.539805 152.998423 
L 181.788644 154.542348 
L 182.037483 152.221438 
L 182.784001 151.076612 
L 183.03284 151.436795 
L 183.281679 151.353694 
L 183.530518 150.595563 
L 183.779357 150.685169 
L 185.023553 151.944385 
L 185.272392 153.16998 
L 185.521231 155.215565 
L 186.267749 154.617217 
L 186.516588 156.131091 
L 186.765427 153.91156 
L 187.014266 154.321282 
L 187.263105 156.724113 
L 188.009623 161.160786 
L 188.258462 161.369475 
L 188.75614 155.781501 
L 189.004979 155.398319 
L 189.751497 156.12755 
L 190.000336 161.461442 
L 190.249175 161.058802 
L 190.498014 164.119536 
L 190.746853 161.201459 
L 191.493371 164.536915 
L 191.74221 161.868774 
L 191.991049 160.817701 
L 192.239888 158.683085 
L 192.488727 159.179448 
L 193.484084 161.578164 
L 193.732923 160.802963 
L 193.981762 156.413469 
L 194.230601 154.461578 
L 194.977119 153.572016 
L 195.225958 151.616613 
L 195.723636 149.839244 
L 195.972476 150.126919 
L 196.967832 148.364863 
L 197.216671 149.727214 
L 197.46551 147.089759 
L 197.71435 146.561559 
L 198.460867 146.072853 
L 198.709706 145.071865 
L 199.207384 142.159083 
L 199.456224 141.129224 
L 200.202741 140.883374 
L 200.45158 141.85313 
L 200.700419 144.125107 
L 200.949258 143.974189 
L 201.198098 141.994607 
L 201.944615 141.997572 
L 202.193454 140.930552 
L 202.442293 141.651522 
L 202.691132 140.715962 
L 202.939972 141.103865 
L 203.686489 141.989311 
L 204.184167 140.897536 
L 204.681846 147.195859 
L 205.428363 143.620482 
L 205.926041 152.005092 
L 206.17488 148.228683 
L 206.42372 150.508316 
L 207.170237 147.369776 
L 207.419076 141.764704 
L 207.667915 140.912274 
L 207.916755 142.902448 
L 208.165594 140.275009 
L 208.912111 142.812841 
L 209.16095 144.869076 
L 209.409789 140.402928 
L 209.907468 145.661951 
L 210.653985 148.763963 
L 211.151663 141.18639 
L 211.400503 139.463252 
L 212.395859 135.607858 
L 212.644698 135.893172 
L 212.893537 135.497612 
L 213.391216 137.08221 
L 214.137733 135.291284 
L 214.386572 135.469317 
L 214.635411 140.949406 
L 214.884251 141.21647 
L 215.13309 142.337721 
L 215.879607 142.735036 
L 216.128446 140.213122 
L 216.377285 139.430236 
L 216.626125 143.39884 
L 216.874964 143.173629 
L 217.87032 148.228107 
L 218.367999 153.791902 
L 218.616838 158.790366 
L 219.363355 158.071755 
L 219.612194 161.23623 
L 219.861034 161.620593 
L 220.109873 163.001251 
L 220.358712 156.791326 
L 221.354068 150.030231 
L 221.602908 147.504776 
L 221.851747 154.103756 
L 222.100586 152.742585 
L 222.847103 153.72469 
L 223.095942 151.504008 
L 223.344782 147.634451 
L 223.84246 157.570067 
L 224.588977 158.570479 
L 224.837816 154.479281 
L 225.086656 154.247017 
L 225.335495 159.832631 
L 225.584334 161.683084 
L 226.57969 164.283437 
L 226.82853 168.955884 
L 227.077369 165.230165 
L 227.326208 159.573828 
L 228.072725 160.205191 
L 228.321564 164.19501 
L 228.570404 159.462402 
L 228.819243 160.821213 
L 229.068082 162.862106 
L 230.063438 172.186392 
L 230.312278 165.868034 
L 230.561117 166.950368 
L 230.809956 170.205054 
L 231.556473 172.044339 
L 232.302991 157.980969 
L 232.55183 154.947925 
L 233.298347 155.062286 
L 233.547187 152.089402 
L 233.796026 155.353501 
L 234.044865 151.585353 
L 234.293704 150.23538 
L 235.040221 148.32183 
L 235.289061 145.01585 
L 235.5379 146.734267 
L 235.786739 150.981105 
L 236.035578 150.070328 
L 236.782095 147.902092 
L 237.279774 153.885049 
L 237.528613 152.761439 
L 237.777452 153.464735 
L 238.772809 158.819237 
L 239.021648 155.922402 
L 239.270487 159.10576 
L 240.265843 159.15881 
L 240.514683 155.001579 
L 240.763522 155.16427 
L 241.012361 159.042663 
L 241.2612 166.227642 
L 242.007717 164.792753 
L 242.256557 171.921112 
L 242.505396 171.404714 
L 242.754235 165.300918 
L 243.003074 174.471926 
L 243.749591 173.08954 
L 243.998431 171.904618 
L 244.24727 164.554013 
L 244.496109 173.5912 
L 244.744948 174.978335 
L 245.491466 182.765762 
L 245.740305 182.187449 
L 245.989144 186.070563 
L 246.237983 186.371205 
L 246.486822 180.841016 
L 247.23334 181.777152 
L 247.482179 177.011542 
L 247.731018 186.7485 
L 247.979857 188.097884 
L 248.228696 188.064278 
L 248.975214 183.796816 
L 249.224053 185.699168 
L 249.472892 183.503241 
L 249.97057 172.92092 
L 250.965927 174.458973 
L 251.214766 176.281735 
L 251.463605 171.825633 
L 251.712444 175.850799 
L 252.458962 175.090912 
L 252.707801 172.777082 
L 252.95664 175.424584 
L 253.454318 188.093753 
L 254.200836 197.008937 
L 254.449675 197.843088 
L 254.698514 194.629665 
L 254.947353 201.893614 
L 255.196192 201.417875 
L 256.191549 196.115229 
L 256.440388 196.404098 
L 256.689227 194.291287 
L 256.938066 187.452372 
L 257.684584 188.137966 
L 257.933423 192.769166 
L 258.182262 192.929511 
L 258.431101 194.901436 
L 258.67994 192.546329 
L 259.675297 192.189097 
L 259.924136 191.382046 
L 260.172975 187.989999 
L 260.421814 188.181014 
L 261.168332 190.830862 
L 261.417171 192.931281 
L 261.914849 194.60668 
L 262.163688 190.31622 
L 262.910206 192.220918 
L 263.159045 185.981546 
L 263.407884 184.613294 
L 263.656723 182.311252 
L 263.905562 184.51131 
L 264.65208 184.204163 
L 264.900919 186.903535 
L 265.149758 180.857509 
L 265.647436 174.568613 
L 266.393954 175.255992 
L 266.642793 176.873606 
L 266.891632 173.101918 
L 267.140471 173.292329 
L 267.38931 173.690248 
L 268.135828 173.99266 
L 268.384667 175.0296 
L 268.633506 169.855464 
L 268.882345 170.030561 
L 269.131184 165.734214 
L 270.126541 164.257473 
L 270.37538 166.094397 
L 270.624219 165.52256 
L 270.873058 168.780211 
L 271.619576 174.114679 
L 271.868415 174.660581 
L 272.117254 173.950807 
L 272.366093 170.511007 
L 272.614932 178.850237 
L 273.36145 180.444852 
L 273.859128 184.902149 
L 274.107967 184.203573 
L 274.356806 186.714304 
L 275.352163 187.661652 
L 275.601002 183.436029 
L 275.849841 181.885037 
L 276.09868 178.2784 
L 276.845198 175.740554 
L 277.094037 186.21735 
L 277.342876 185.432118 
L 277.840554 189.716678 
L 278.587072 188.150948 
L 278.835911 190.742435 
L 279.08475 194.633206 
L 279.333589 196.516099 
L 279.582428 200.333771 
L 280.577785 203.04198 
L 280.826624 198.812241 
L 281.324303 206.677488 
L 282.07082 201.20625 
L 282.319659 194.574254 
L 282.568498 195.025224 
L 282.817337 197.310168 
L 283.066177 203.491784 
L 283.812694 205.099381 
L 284.061533 206.487667 
L 284.310372 207.183882 
L 284.559211 201.708514 
L 284.808051 206.827816 
L 285.803407 198.75683 
L 286.301085 201.951975 
L 286.549925 196.825002 
L 287.296442 194.196369 
L 287.545281 190.55496 
L 288.042959 193.609219 
L 288.291799 188.081966 
L 289.038316 189.796268 
L 289.287155 190.732404 
L 289.535994 196.415885 
L 289.784833 198.762141 
L 290.033673 195.77567 
L 290.78019 193.638694 
L 291.029029 192.382443 
L 291.277868 197.071414 
L 291.526707 184.821379 
L 291.775547 182.666139 
L 292.522064 184.769509 
L 292.770903 182.736877 
L 293.019742 184.678722 
L 293.268582 185.399692 
L 293.517421 184.292589 
L 294.263938 185.200444 
L 294.512777 182.038301 
L 294.761616 180.642344 
L 295.259295 180.709542 
L 296.005812 184.37513 
L 296.254651 184.747114 
L 296.50349 177.526774 
L 297.001169 178.022562 
L 297.747686 182.317729 
L 297.996525 185.712136 
L 298.245364 186.144842 
L 298.494204 184.400474 
L 298.743043 186.117727 
L 299.48956 182.805845 
L 299.738399 181.090968 
L 299.987238 182.525237 
L 300.236078 188.394999 
L 300.484917 190.95288 
L 301.231434 192.998494 
L 301.480273 192.765035 
L 301.729112 189.415446 
L 301.977952 192.719656 
L 302.226791 191.397373 
L 303.222147 192.315246 
L 303.470986 195.028765 
L 303.719826 191.134454 
L 303.968665 191.710997 
L 304.964021 192.616492 
L 305.212861 190.916928 
L 305.4617 193.562055 
L 305.710539 188.434492 
L 306.457056 188.610755 
L 306.705895 187.009649 
L 306.954735 184.040867 
L 307.452413 182.302991 
L 308.447769 182.78168 
L 308.696609 186.443123 
L 308.945448 188.212245 
L 309.194287 183.864014 
L 309.940804 181.081526 
L 310.438483 181.293166 
L 310.687322 178.686941 
L 310.936161 178.08976 
L 311.682678 181.201789 
L 312.429196 171.65232 
L 312.678035 174.20371 
L 313.424552 175.701061 
L 313.673391 172.581375 
L 314.17107 177.444838 
L 314.419909 176.916639 
L 315.166426 174.155956 
L 315.415265 174.224348 
L 315.664105 173.548167 
L 315.912944 176.91959 
L 316.161783 177.586905 
L 317.157139 182.406155 
L 317.405979 182.77696 
L 317.654818 181.523069 
L 317.903657 184.015522 
L 318.650174 183.296322 
L 318.899014 184.009046 
L 319.147853 185.114968 
L 319.396692 183.348782 
L 319.645531 179.55883 
L 320.392048 179.394944 
L 320.640888 183.052847 
L 320.889727 182.720369 
L 321.387405 190.408763 
L 322.133922 190.752452 
L 322.382762 187.007289 
L 322.631601 188.620197 
L 322.88044 184.590885 
L 323.129279 187.163518 
L 323.875796 185.104347 
L 324.124636 182.080154 
L 324.373475 185.965038 
L 324.622314 185.272363 
L 324.871153 183.959522 
L 325.61767 183.573979 
L 325.86651 183.943014 
L 326.115349 180.609918 
L 326.364188 179.252863 
L 326.613027 175.805406 
L 327.359544 174.909367 
L 327.608384 176.318867 
L 327.857223 176.92136 
L 328.106062 176.058308 
L 329.350258 175.827225 
L 329.599097 176.828803 
L 329.847936 173.629513 
L 330.096775 174.135317 
L 331.092132 173.119592 
L 331.340971 173.14023 
L 331.58981 174.598089 
L 331.838649 174.378203 
L 332.585167 174.170694 
L 332.834006 178.026692 
L 333.082845 178.948681 
L 333.331684 174.270318 
L 333.580523 172.258325 
L 334.327041 172.353228 
L 334.824719 176.899541 
L 335.073558 178.640368 
L 335.322397 174.217267 
L 336.068915 174.107022 
L 336.317754 175.224156 
L 336.566593 174.135317 
L 337.064271 174.934697 
L 337.810789 174.215511 
L 338.059628 175.770634 
L 338.557306 170.574103 
L 338.806145 170.931925 
L 339.552663 170.893613 
L 340.050341 175.455816 
L 340.548019 170.137842 
L 341.543376 170.133726 
L 341.792215 171.648175 
L 342.041054 169.219984 
L 342.289893 165.60333 
L 343.036411 166.109135 
L 343.28525 165.516084 
L 343.534089 166.478759 
L 343.782928 164.921852 
L 344.031767 164.631242 
L 344.778285 162.269054 
L 345.027124 160.49583 
L 345.275963 160.284781 
L 345.524802 157.145636 
L 345.773641 158.103591 
L 346.768998 159.334483 
L 347.017837 160.691538 
L 347.266676 159.736519 
L 347.515515 161.71492 
L 348.262033 162.86507 
L 348.510872 159.941667 
L 348.759711 160.033059 
L 349.00855 158.878792 
L 349.257389 155.698975 
L 350.003907 155.391842 
L 350.501585 155.908844 
L 350.750424 157.985689 
L 350.999263 158.73081 
L 351.745781 158.107132 
L 352.492298 152.181945 
L 352.741137 152.454306 
L 353.487655 151.430319 
L 353.736494 149.532687 
L 353.985333 148.899539 
L 354.234172 150.718185 
L 354.483011 150.631543 
L 355.229529 149.552722 
L 355.478368 148.796979 
L 355.727207 148.838832 
L 355.976046 150.568447 
L 356.224885 147.926271 
L 356.971403 147.529531 
L 357.220242 148.250502 
L 357.469081 151.984453 
L 357.71792 152.66239 
L 357.966759 154.068984 
L 358.713277 151.686762 
L 358.962116 152.810373 
L 359.210955 154.677348 
L 359.459794 154.611316 
L 359.708633 154.893118 
L 360.455151 153.37982 
L 360.952829 158.41366 
L 361.201668 160.416241 
L 361.450507 160.454553 
L 362.197025 158.68248 
L 362.445864 159.402875 
L 362.694703 156.546109 
L 362.943542 160.06547 
L 363.192381 158.332315 
L 363.938899 156.705259 
L 364.187738 152.913537 
L 364.436577 151.897207 
L 364.685416 152.322242 
L 364.934255 151.844156 
L 365.929612 152.960686 
L 366.178451 154.808808 
L 366.42729 155.654157 
L 366.67613 155.279812 
L 367.422647 153.513065 
L 367.671486 155.019858 
L 367.920325 154.693266 
L 368.169164 152.47316 
L 368.418004 155.702515 
L 369.164521 155.513285 
L 369.41336 156.078012 
L 369.662199 158.539219 
L 369.911038 162.795498 
L 370.159878 163.381468 
L 370.906395 162.356905 
L 371.155234 166.124477 
L 371.404073 166.066706 
L 371.652912 164.581704 
L 371.901752 165.268507 
L 372.648269 165.248444 
L 372.897108 168.723016 
L 373.145947 166.701006 
L 373.394786 167.028777 
L 373.643626 164.062946 
L 374.390143 162.461825 
L 374.887821 160.027734 
L 375.3855 162.926382 
L 376.132017 160.223469 
L 376.380856 160.2488 
L 376.878534 165.860953 
L 377.127374 169.03487 
L 377.873891 169.454608 
L 378.12273 167.648339 
L 378.620409 174.159496 
L 378.869248 175.330257 
L 379.615765 172.415144 
L 379.864604 170.824645 
L 380.113443 168.227257 
L 380.362283 163.515892 
L 380.611122 161.124834 
L 381.357639 160.674439 
L 381.606478 159.943452 
L 381.855317 159.684073 
L 382.104157 161.772691 
L 382.352996 157.770495 
L 383.099513 157.98805 
L 383.348352 153.027294 
L 384.09487 151.947321 
L 384.841387 149.980721 
L 385.090226 150.522478 
L 385.339065 149.436 
L 385.836744 149.275669 
L 386.583261 149.800903 
L 386.8321 149.537984 
L 387.080939 149.792066 
L 387.329779 148.776945 
L 387.578618 147.195283 
L 388.325135 148.660223 
L 388.573974 148.813473 
L 388.822813 149.865179 
L 389.071653 147.728203 
L 389.320492 146.621086 
L 390.067009 145.555851 
L 390.315848 144.302536 
L 390.564687 140.565648 
L 390.813527 139.83112 
L 391.062366 139.852335 
L 391.808883 138.592543 
L 392.057722 136.953111 
L 392.306562 141.080866 
L 392.555401 138.22764 
L 392.80424 137.763112 
L 394.297275 136.070025 
L 394.546114 136.867044 
L 395.54147 138.458723 
L 395.79031 140.700044 
L 396.039149 141.650918 
L 396.287988 141.146293 
L 397.034505 137.237849 
L 397.283344 137.652867 
L 397.532184 136.064124 
L 397.781023 136.253355 
L 398.029862 136.04173 
L 399.025218 137.094012 
L 399.274058 138.672133 
L 399.771736 132.74165 
L 400.518253 132.115583 
L 400.767092 131.28025 
L 401.015932 131.047411 
L 401.264771 129.537653 
L 401.51361 129.725704 
L 402.260127 127.546875 
L 402.508966 127.721368 
L 402.757806 132.397385 
L 403.255484 125.738274 
L 404.002001 126.66969 
L 404.250841 125.996473 
L 404.49968 123.589496 
L 404.748519 123.42148 
L 404.997358 121.729602 
L 405.743875 122.010799 
L 405.992715 126.058965 
L 406.490393 121.545667 
L 406.739232 122.969934 
L 407.734589 124.742007 
L 407.983428 124.371202 
L 408.232267 118.167783 
L 408.481106 118.063438 
L 409.227623 119.199426 
L 409.476463 118.689477 
L 409.725302 119.185869 
L 409.974141 117.623061 
L 410.22298 115.217264 
L 410.969497 115.578628 
L 411.218337 118.661786 
L 411.467176 117.122581 
L 411.716015 114.021749 
L 411.964854 116.006627 
L 412.711371 116.345596 
L 412.960211 112.965926 
L 413.20905 113.553077 
L 413.457889 114.427326 
L 413.706728 116.39571 
L 414.453245 114.489817 
L 414.702085 112.77494 
L 414.950924 110.056686 
L 415.199763 109.059843 
L 415.448602 109.49311 
L 416.19512 110.435751 
L 416.443959 111.297018 
L 416.692798 108.649517 
L 416.941637 108.304071 
L 417.936994 108.927778 
L 418.185833 111.165559 
L 418.434672 110.830706 
L 418.683511 114.620097 
L 418.93235 111.252229 
L 419.678868 111.367167 
L 419.927707 110.923853 
L 420.176546 113.828374 
L 420.425385 111.563478 
L 420.674224 116.023121 
L 421.420742 119.653937 
L 421.669581 120.267598 
L 421.91842 121.988981 
L 422.167259 122.642739 
L 422.416098 125.230109 
L 423.162616 122.673394 
L 423.411455 119.139295 
L 423.660294 119.075623 
L 423.909133 120.443875 
L 424.157972 117.405535 
L 424.90449 116.44994 
L 425.153329 121.194321 
L 425.402168 122.214163 
L 425.899846 115.764922 
L 426.646364 112.643452 
L 426.895203 112.233154 
L 427.144042 112.234939 
L 427.392881 110.678032 
L 427.64172 110.171047 
L 428.388238 110.24534 
L 428.637077 108.756221 
L 428.885916 105.132515 
L 429.134755 105.783913 
L 429.383594 105.42019 
L 430.130112 105.133696 
L 430.378951 104.350809 
L 430.62779 105.199728 
L 430.876629 107.508836 
L 431.125468 105.334699 
L 432.120825 105.256894 
L 432.618503 109.416485 
L 432.867342 106.938784 
L 433.61386 106.591554 
L 433.862699 106.123486 
L 434.111538 102.427847 
L 434.360377 102.490915 
L 434.609216 102.842836 
L 435.355734 102.029323 
L 435.604573 101.172777 
L 435.853412 98.478126 
L 436.102251 97.728831 
L 436.35109 97.854994 
L 437.346447 94.587355 
L 438.839482 96.895859 
L 439.088321 95.632556 
L 439.585999 94.832572 
L 439.834838 96.152494 
L 440.581356 95.291227 
L 441.079034 91.640377 
L 441.576712 89.861828 
L 442.32323 89.528156 
L 442.572069 89.284695 
L 442.820908 85.9286 
L 443.069747 88.839021 
L 443.318586 87.022735 
L 444.065104 86.087175 
L 444.313943 83.966117 
L 444.811621 91.194128 
L 445.06046 93.527992 
L 445.806978 90.025699 
L 446.055817 90.536801 
L 446.304656 98.118518 
L 446.553495 99.763823 
L 446.802334 96.23384 
L 447.548852 95.972101 
L 447.797691 97.56968 
L 448.04653 92.50815 
L 448.544208 102.868196 
L 449.290726 112.313924 
L 449.539565 109.148269 
L 449.788404 111.537543 
L 450.037243 104.474612 
L 450.286082 103.009672 
L 451.0326 102.996115 
L 451.281439 97.688158 
L 451.530278 96.463168 
L 451.779117 91.274869 
L 452.027957 90.624652 
L 452.774474 87.441294 
L 453.023313 88.097412 
L 453.272152 86.698505 
L 453.520991 89.658435 
L 453.769831 85.887352 
L 454.516348 86.934913 
L 454.765187 86.406714 
L 455.014026 88.388627 
L 455.262865 88.401609 
L 455.511705 85.074414 
L 456.507061 92.117282 
L 456.7559 92.639609 
L 457.004739 93.621715 
L 457.253579 99.221491 
L 458.248935 94.086847 
L 458.746613 88.177606 
L 458.995453 86.393732 
L 459.990809 85.889108 
L 460.239648 86.851207 
L 460.488487 81.228433 
L 460.737327 81.88222 
L 461.483844 80.937822 
L 461.732683 80.091264 
L 461.981522 80.720296 
L 462.230361 79.357916 
L 462.479201 79.782376 
L 463.225718 78.349272 
L 463.474557 81.516711 
L 463.723396 81.470138 
L 463.972236 82.036074 
L 464.221075 79.021913 
L 464.967592 82.271878 
L 465.46527 76.606675 
L 465.71411 77.313512 
L 465.962949 75.251404 
L 466.709466 72.609199 
L 466.958305 75.237847 
L 467.207144 73.633762 
L 467.455984 73.692713 
L 467.704823 72.325065 
L 468.700179 73.11912 
L 468.949018 76.289525 
L 469.197858 75.556177 
L 469.446697 75.658737 
L 470.193214 74.750896 
L 470.442053 74.196762 
L 470.690892 75.33157 
L 470.939732 81.711238 
L 471.188571 80.334754 
L 471.935088 81.284448 
L 472.183927 77.153757 
L 472.432766 68.530378 
L 472.681606 65.932991 
L 472.930445 64.610132 
L 473.676962 64.267623 
L 473.925801 65.291005 
L 474.17464 65.209084 
L 474.42348 67.3437 
L 474.672319 71.974295 
L 475.418836 70.61842 
L 475.667675 69.241331 
L 475.916514 69.233675 
L 476.414193 66.154662 
L 477.16071 65.091758 
L 477.409549 63.072108 
L 477.658389 64.421477 
L 478.156067 62.438384 
L 479.151423 61.40674 
L 479.400263 59.248521 
L 479.649102 59.919406 
L 479.897941 59.025698 
L 480.893297 62.289222 
L 481.142137 59.384126 
L 481.390976 61.32597 
L 481.639815 61.335412 
L 482.386332 59.980113 
L 482.635171 61.363707 
L 482.884011 71.883508 
L 483.13285 72.182984 
L 483.381689 68.423673 
L 484.128206 65.875824 
L 484.377045 61.986809 
L 484.874724 62.131251 
L 485.123563 66.066235 
L 486.118919 71.325257 
L 486.616598 72.096342 
L 486.865437 67.738655 
L 487.611954 65.798595 
L 487.860793 69.710004 
L 488.109633 69.166462 
L 488.607311 74.543387 
L 489.353828 74.002206 
L 489.602668 73.607827 
L 489.851507 67.300062 
L 490.100346 68.041096 
L 490.349185 64.5441 
L 491.344542 61.444448 
L 491.84222 57.349133 
L 492.091059 58.378993 
L 492.837576 63.623306 
L 493.086416 60.356214 
L 493.335255 62.029843 
L 493.584094 60.15167 
L 493.832933 61.957938 
L 494.57945 64.667327 
L 494.82829 62.114153 
L 495.325968 59.420682 
L 495.574807 62.81506 
L 496.321324 60.430507 
L 496.570164 60.309064 
L 496.819003 61.283513 
L 497.067842 57.563723 
L 497.316681 57.589658 
L 498.312038 56.708328 
L 498.560877 55.849422 
L 498.809716 57.419282 
L 499.058555 63.573192 
L 499.805072 65.334643 
L 500.053912 66.985273 
L 500.302751 66.937519 
L 500.55159 72.507819 
L 500.800429 67.029486 
L 501.546947 73.206367 
L 501.795786 77.425513 
L 502.044625 73.624349 
L 502.293464 79.761737 
L 502.542303 77.894157 
L 503.53766 89.574154 
L 503.786499 87.968917 
L 504.035338 92.554119 
L 504.284177 85.632089 
L 505.030695 83.499229 
L 505.279534 87.063408 
L 505.528373 83.489212 
L 505.777212 84.220199 
L 506.026051 83.944902 
L 506.772569 78.04922 
L 507.021408 77.51394 
L 507.270247 81.313319 
L 507.519086 82.426912 
L 507.767925 89.051251 
L 508.514443 87.229064 
L 508.763282 85.978139 
L 509.012121 83.74387 
L 509.509799 118.931182 
L 510.256317 119.628577 
L 510.505156 124.314007 
L 510.753995 96.363544 
L 511.002834 107.496459 
L 511.251673 101.877829 
L 511.998191 99.365903 
L 512.24703 99.916526 
L 512.495869 107.04546 
L 512.744708 106.632803 
L 513.740065 113.972211 
L 514.237743 101.140941 
L 514.486582 94.720571 
L 514.735421 92.336593 
L 515.481939 92.127904 
L 515.730778 90.236749 
L 515.979617 89.751583 
L 516.228456 87.683575 
L 516.477295 82.818356 
L 517.223813 84.957692 
L 517.472652 87.520279 
L 517.97033 84.158312 
L 518.219169 84.395872 
L 519.214526 71.035223 
L 519.463365 70.679732 
L 519.712204 69.244267 
L 519.961043 66.800763 
L 520.707561 66.493026 
L 520.9564 67.857161 
L 521.205239 73.507627 
L 521.454078 73.660906 
L 521.702917 75.971195 
L 522.698274 68.972511 
L 522.947113 70.917321 
L 523.195952 69.52489 
L 523.444791 69.553185 
L 524.191309 68.123622 
L 524.440148 66.093926 
L 524.688987 66.067991 
L 524.937826 67.925554 
L 525.186665 64.325998 
L 525.933183 64.000587 
L 526.182022 62.059318 
L 526.430861 63.036127 
L 526.6797 61.679101 
L 526.928539 65.704843 
L 527.675057 62.395351 
L 527.923896 65.365874 
L 528.172735 65.47494 
L 528.670413 66.243088 
L 529.416931 62.863419 
L 529.66577 58.913093 
L 529.914609 58.914273 
L 530.412287 54.144561 
L 531.158805 52.265179 
L 531.407644 52.674325 
L 531.656483 50.940565 
L 531.905322 47.879226 
L 532.900679 50.789647 
L 533.149518 51.052566 
L 533.398357 48.827768 
L 533.647196 47.813798 
L 533.896035 49.034672 
L 534.642553 48.51531 
L 534.891392 49.977314 
L 535.140231 48.801804 
L 535.38907 46.817531 
L 535.637909 46.851122 
L 536.633266 46.094776 
L 536.882105 43.189075 
L 537.130944 42.927336 
L 537.379784 41.436461 
L 538.126301 41.369853 
L 538.37514 42.484627 
L 538.623979 42.953875 
L 538.872818 44.339801 
L 539.121658 50.316282 
L 539.868175 44.8969 
L 540.117014 46.709646 
L 540.365853 44.005553 
L 540.614692 44.303849 
L 540.863532 41.388707 
L 541.610049 42.331924 
L 541.858888 38.069198 
L 542.107727 36.841818 
L 542.107727 36.841818 
" clip-path="url(#p473ddc45c8)" style="fill: none; stroke: #0000ff; stroke-width: 1.5; stroke-linecap: square"/>
   </g>
   <g id="line2d_15">
    <path d="M 80.262273 236.078182 
L 81.00879 234.948656 
L 81.755308 234.545871 
L 82.750664 232.710947 
L 83.497182 232.372569 
L 84.492538 231.095507 
L 85.239056 230.810855 
L 86.234412 229.358465 
L 86.98093 228.938914 
L 87.976286 227.282095 
L 88.722804 226.851174 
L 89.71816 225.197579 
L 90.464678 224.811907 
L 91.460034 223.010244 
L 92.206552 222.50572 
L 93.201908 220.581175 
L 94.694943 220.213753 
L 95.6903 220.336894 
L 96.685656 220.496721 
L 97.432174 220.724192 
L 98.42753 222.136096 
L 99.422887 222.607791 
L 99.920565 222.875344 
L 101.164761 222.863931 
L 101.4136 222.836989 
L 102.657796 222.090357 
L 103.653152 220.177815 
L 104.39967 219.72093 
L 105.395026 218.388932 
L 106.639222 217.780682 
L 107.1369 218.105561 
L 107.883418 218.375777 
L 108.381096 218.696569 
L 108.629935 218.646541 
L 108.878774 218.450704 
L 109.625292 218.219318 
L 110.12297 217.69345 
L 110.620649 216.957541 
L 111.367166 216.510169 
L 112.362523 214.65524 
L 113.10904 214.287587 
L 113.606718 213.494151 
L 114.104397 213.096289 
L 114.850914 212.670779 
L 115.846271 211.195678 
L 116.592788 210.780804 
L 117.588145 209.301717 
L 118.334662 208.989446 
L 119.081179 208.055814 
L 119.330019 207.682894 
L 120.076536 207.391967 
L 120.823053 206.658677 
L 121.81841 206.372399 
L 122.564928 205.437831 
L 123.809123 204.905199 
L 124.555641 204.247382 
L 125.302158 203.934406 
L 126.297515 202.843365 
L 127.292871 202.659028 
L 127.79055 202.127533 
L 128.039389 201.810772 
L 128.785906 201.513368 
L 129.283584 200.968834 
L 130.52778 201.032419 
L 131.025458 200.87855 
L 132.518493 199.724831 
L 133.265011 198.504834 
L 134.260367 198.066012 
L 135.006885 196.886256 
L 136.002241 196.357884 
L 136.748759 195.991066 
L 137.744115 195.989742 
L 138.241794 196.04937 
L 138.490633 196.255483 
L 139.983668 196.32661 
L 140.232507 196.137077 
L 140.979024 195.900006 
L 141.974381 194.647152 
L 142.720898 194.440017 
L 143.467416 193.744089 
L 143.716255 193.550973 
L 144.462772 193.276554 
L 145.20929 192.518048 
L 146.204646 192.218443 
L 147.200003 190.572202 
L 147.94652 190.082373 
L 148.941877 188.129533 
L 149.688394 187.627772 
L 150.434912 186.388835 
L 150.683751 186.074247 
L 151.430268 185.707055 
L 152.425625 184.440917 
L 153.172142 184.202076 
L 153.669821 183.804228 
L 154.167499 183.47981 
L 155.660534 183.11672 
L 155.909373 183.148268 
L 158.646604 182.871057 
L 159.393121 182.543717 
L 160.388478 182.420044 
L 161.134995 181.852568 
L 161.881513 181.613396 
L 162.876869 180.715543 
L 163.623387 180.484345 
L 164.369904 179.901627 
L 164.618743 179.791094 
L 165.6141 179.762367 
L 167.604813 178.958007 
L 168.102491 178.420208 
L 169.097848 178.049332 
L 169.844365 177.033836 
L 170.590883 176.672027 
L 171.586239 175.306912 
L 173.079274 174.759859 
L 173.328113 174.603817 
L 174.074631 174.40385 
L 175.069987 173.633917 
L 176.065344 173.322898 
L 176.811861 172.799391 
L 177.558379 172.585376 
L 178.553735 171.705917 
L 179.300253 171.440234 
L 179.797931 170.957314 
L 180.295609 170.727381 
L 181.042127 170.590107 
L 182.037483 169.809639 
L 182.784001 169.564911 
L 183.530518 168.881879 
L 183.779357 168.70681 
L 184.774714 168.519883 
L 185.521231 168.048936 
L 187.014266 167.764543 
L 187.263105 167.713105 
L 188.009623 167.780173 
L 188.75614 168.267729 
L 190.249175 168.558109 
L 190.746853 168.992499 
L 191.493371 169.228763 
L 192.239888 170.008339 
L 192.488727 170.150824 
L 193.484084 170.400272 
L 193.981762 170.655621 
L 194.977119 170.585847 
L 195.474797 170.264351 
L 195.972476 169.685893 
L 196.718993 169.352797 
L 197.71435 167.739817 
L 198.460867 167.295727 
L 199.456224 165.252042 
L 200.202741 164.698829 
L 200.949258 163.213596 
L 201.198098 162.815906 
L 201.944615 162.41364 
L 202.939972 161.080678 
L 203.686489 160.821472 
L 204.184167 160.424962 
L 204.681846 160.238783 
L 205.926041 160.261149 
L 206.42372 160.633162 
L 208.165594 161.089169 
L 209.907468 160.977945 
L 210.653985 161.143342 
L 211.151663 161.437637 
L 212.395859 161.324599 
L 213.391216 160.30588 
L 214.137733 160.041665 
L 214.635411 159.492482 
L 215.13309 159.296285 
L 216.874964 159.344298 
L 217.87032 159.444181 
L 218.367999 160.008937 
L 218.616838 160.430201 
L 219.363355 161.014934 
L 220.109873 163.210602 
L 220.358712 164.037788 
L 221.105229 164.725138 
L 221.851747 166.119123 
L 222.100586 166.584227 
L 222.847103 166.989198 
L 223.344782 167.688983 
L 224.837816 168.883664 
L 225.584334 169.663384 
L 226.57969 170.014615 
L 227.326208 171.432923 
L 228.072725 171.752923 
L 229.068082 172.943458 
L 229.814599 173.194144 
L 230.809956 174.68522 
L 231.556473 175.013423 
L 232.054152 175.620262 
L 232.302991 175.700082 
L 233.547187 175.450174 
L 234.293704 174.45405 
L 235.040221 173.96402 
L 236.035578 171.595269 
L 236.782095 170.982558 
L 237.279774 169.883471 
L 237.777452 169.212644 
L 239.021648 168.883117 
L 239.270487 168.868868 
L 240.265843 168.978452 
L 242.007717 169.971524 
L 242.505396 171.037162 
L 243.003074 172.216356 
L 243.749591 172.978345 
L 244.744948 175.879555 
L 245.491466 176.684188 
L 246.486822 180.920404 
L 247.23334 181.866874 
L 248.228696 185.405651 
L 248.975214 186.341326 
L 249.721731 188.563376 
L 249.97057 189.060372 
L 250.965927 189.308597 
L 251.463605 189.698011 
L 252.707801 189.595868 
L 253.205479 189.238521 
L 253.454318 189.210384 
L 254.200836 189.390029 
L 254.947353 190.921505 
L 255.196192 191.685652 
L 256.191549 192.56596 
L 256.938066 194.606335 
L 257.684584 195.093185 
L 258.67994 196.899526 
L 259.675297 197.195548 
L 260.421814 198.031801 
L 261.168332 198.20815 
L 261.914849 198.978256 
L 262.163688 199.274494 
L 263.407884 199.538291 
L 264.900919 198.496904 
L 265.149758 198.207834 
L 265.647436 197.129559 
L 266.393954 196.443216 
L 267.38931 193.492252 
L 268.135828 192.72596 
L 269.131184 189.763266 
L 269.877702 188.935648 
L 270.873058 185.802174 
L 271.619576 185.20636 
L 272.117254 184.534467 
L 272.614932 184.03832 
L 273.610289 184.134014 
L 274.107967 184.715134 
L 274.356806 185.15449 
L 275.352163 185.67355 
L 276.09868 187.172067 
L 276.845198 187.513454 
L 277.094037 187.765147 
L 277.840554 189.335496 
L 278.587072 190.059 
L 279.333589 192.15182 
L 279.582428 192.953143 
L 280.328946 193.882429 
L 281.324303 197.66884 
L 282.07082 198.687085 
L 282.568498 200.046816 
L 283.066177 200.958399 
L 283.812694 201.527386 
L 284.808051 203.718219 
L 285.554568 204.24259 
L 286.052246 204.739788 
L 286.549925 205.069056 
L 287.296442 205.057931 
L 287.545281 204.91726 
L 288.291799 203.960284 
L 289.038316 203.440101 
L 289.784833 202.049901 
L 290.033673 201.804684 
L 290.78019 201.513239 
L 291.775547 200.155119 
L 292.522064 199.599848 
L 293.517421 197.477724 
L 294.263938 196.984772 
L 294.761616 196.00733 
L 295.259295 195.471071 
L 296.005812 194.928767 
L 297.001169 193.356187 
L 298.743043 192.582166 
L 299.738399 192.516494 
L 300.236078 192.357098 
L 301.231434 192.713352 
L 302.226791 193.774356 
L 303.222147 194.002849 
L 303.968665 194.817327 
L 304.964021 195.053664 
L 305.710539 195.86178 
L 306.705895 196.162364 
L 306.954735 196.245566 
L 308.447769 196.002192 
L 308.945448 195.752254 
L 309.940804 195.548257 
L 310.687322 194.699842 
L 310.936161 194.328433 
L 311.682678 193.914696 
L 312.180357 193.147526 
L 312.678035 192.07449 
L 313.424552 191.554322 
L 314.419909 189.629 
L 315.166426 189.222891 
L 316.161783 187.628161 
L 317.903657 187.314566 
L 318.899014 187.544325 
L 319.645531 188.19296 
L 320.640888 188.399288 
L 322.133922 189.453053 
L 322.88044 190.665537 
L 323.129279 190.94826 
L 323.875796 191.35991 
L 324.373475 191.763428 
L 324.871153 191.969786 
L 325.86651 191.905841 
L 326.115349 191.825546 
L 326.613027 191.332953 
L 327.359544 190.947238 
L 328.106062 189.74647 
L 329.101418 189.309504 
L 330.096775 187.568879 
L 330.843293 187.137871 
L 331.838649 185.640922 
L 332.585167 185.365769 
L 333.082845 185.006896 
L 334.824719 184.719826 
L 335.322397 185.016107 
L 337.810789 185.108636 
L 338.557306 184.86126 
L 338.806145 184.666661 
L 339.552663 184.462995 
L 340.050341 184.073782 
L 342.041054 183.307404 
L 342.289893 183.107221 
L 343.036411 182.79826 
L 344.031767 181.407326 
L 344.778285 181.027641 
L 345.773641 179.075463 
L 346.768998 178.579934 
L 347.515515 177.197592 
L 348.262033 176.845109 
L 349.257389 175.527374 
L 350.003907 175.130894 
L 350.501585 174.691553 
L 350.999263 173.95642 
L 351.745781 173.670214 
L 352.741137 172.416669 
L 353.487655 172.054558 
L 354.483011 170.402344 
L 355.229529 170.009894 
L 356.224885 168.514586 
L 356.971403 168.154115 
L 357.71792 167.275376 
L 357.966759 167.116081 
L 358.962116 166.870606 
L 359.459794 166.769629 
L 360.952829 166.964588 
L 361.450507 167.379289 
L 362.197025 167.64808 
L 363.192381 168.614987 
L 364.934255 169.146497 
L 368.169164 168.977559 
L 368.418004 168.876237 
L 369.911038 168.882397 
L 370.159878 169.027299 
L 371.155234 169.351185 
L 371.901752 170.174226 
L 372.648269 170.463973 
L 373.145947 169.461948 
L 373.643626 168.853929 
L 374.638982 168.480764 
L 375.13666 168.335747 
L 376.380856 168.740719 
L 376.878534 169.301387 
L 377.127374 169.726883 
L 377.873891 170.255629 
L 378.869248 172.588082 
L 379.615765 173.273244 
L 380.362283 174.800532 
L 380.611122 175.042525 
L 381.606478 175.165032 
L 382.104157 174.917801 
L 382.352996 174.752576 
L 383.099513 174.452122 
L 383.597191 173.644078 
L 384.09487 172.583563 
L 384.841387 172.003206 
L 385.339065 170.751733 
L 385.836744 170.104739 
L 386.583261 169.443325 
L 387.578618 167.273966 
L 388.325135 166.806329 
L 389.320492 165.3601 
L 390.067009 165.009847 
L 391.062366 163.419982 
L 391.808883 163.073702 
L 392.80424 161.19006 
L 393.799596 160.654664 
L 394.546114 158.966931 
L 395.54147 158.436688 
L 396.039149 157.653399 
L 396.287988 157.387802 
L 397.034505 157.169729 
L 398.029862 156.286154 
L 399.274058 155.957634 
L 400.767092 155.378486 
L 401.51361 154.584259 
L 402.260127 154.264374 
L 403.255484 152.877412 
L 404.002001 152.467863 
L 404.997358 150.773682 
L 405.743875 150.281493 
L 406.739232 148.557606 
L 407.734589 148.16504 
L 408.481106 147.112211 
L 409.227623 146.697106 
L 410.22298 145.234556 
L 410.969497 144.849071 
L 411.964854 143.484791 
L 412.711371 143.139548 
L 413.706728 141.692944 
L 414.453245 141.448159 
L 415.199763 140.377051 
L 415.448602 139.933738 
L 416.19512 139.484466 
L 416.941637 138.221048 
L 417.936994 137.798633 
L 418.683511 136.816959 
L 418.93235 136.649288 
L 419.927707 136.270366 
L 420.425385 136.050825 
L 420.674224 135.975755 
L 421.420742 136.018385 
L 421.91842 136.376956 
L 422.416098 136.957256 
L 423.162616 137.354974 
L 424.157972 138.700947 
L 424.90449 138.969537 
L 425.402168 139.530061 
L 425.899846 140.168506 
L 427.392881 140.506064 
L 428.637077 140.130193 
L 429.134755 139.571482 
L 429.383594 139.201656 
L 430.130112 138.791503 
L 431.125468 136.913301 
L 432.120825 136.433691 
L 432.867342 135.240104 
L 433.61386 134.933605 
L 434.609216 133.683744 
L 435.355734 133.373042 
L 436.35109 132.028768 
L 437.097608 131.664066 
L 437.346447 131.253394 
L 437.844125 130.820415 
L 438.092964 130.399726 
L 438.839482 130.033988 
L 439.834838 128.545502 
L 440.581356 128.256849 
L 441.576712 127.228027 
L 442.32323 126.804863 
L 443.318586 125.032416 
L 444.065104 124.591521 
L 445.06046 123.011212 
L 445.806978 122.79832 
L 446.304656 122.339693 
L 446.802334 122.379618 
L 447.797691 122.488194 
L 449.290726 123.181473 
L 450.286082 125.407653 
L 451.0326 125.868237 
L 451.530278 126.637624 
L 452.027957 127.028462 
L 453.023313 127.0259 
L 453.520991 126.723517 
L 453.769831 126.528184 
L 454.516348 126.225599 
L 455.511705 124.824965 
L 456.507061 124.418381 
L 457.253579 123.688113 
L 458.248935 123.539181 
L 459.74197 123.012881 
L 460.488487 122.351207 
L 460.737327 122.012872 
L 461.483844 121.722348 
L 462.230361 120.531007 
L 462.479201 120.077187 
L 463.225718 119.619856 
L 463.972236 118.350882 
L 464.221075 117.993578 
L 464.967592 117.599889 
L 465.962949 116.224671 
L 466.709466 115.852456 
L 467.704823 114.327328 
L 468.45134 113.938504 
L 469.197858 112.938063 
L 469.446697 112.677446 
L 470.193214 112.427912 
L 470.939732 111.773002 
L 471.935088 111.723406 
L 472.432766 111.72686 
L 473.925801 110.871926 
L 474.672319 109.928075 
L 475.418836 109.713687 
L 476.414193 108.923576 
L 477.16071 108.729999 
L 478.156067 108.115791 
L 478.902584 107.863637 
L 479.897941 106.895809 
L 480.644458 106.62909 
L 481.639815 105.733857 
L 482.386332 105.527182 
L 482.884011 105.144403 
L 484.128206 105.400904 
L 484.377045 105.481386 
L 485.87008 105.439648 
L 486.865437 105.900952 
L 487.860793 106.204371 
L 488.109633 106.422358 
L 489.353828 106.981242 
L 490.100346 107.8896 
L 490.349185 108.110581 
L 491.84222 108.26288 
L 492.091059 108.147483 
L 493.086416 107.908253 
L 493.832933 107.376542 
L 494.82829 107.021886 
L 495.574807 106.39009 
L 496.321324 106.197693 
L 496.819003 105.735526 
L 497.316681 105.748709 
L 498.312038 105.935062 
L 498.809716 106.705714 
L 499.058555 107.30625 
L 499.805072 108.133436 
L 500.55159 111.395059 
L 500.800429 112.715471 
L 501.546947 114.011358 
L 502.542303 119.700338 
L 503.288821 121.071497 
L 504.284177 126.801783 
L 505.030695 127.980516 
L 505.777212 130.872745 
L 506.026051 131.638073 
L 506.772569 132.416671 
L 507.270247 133.344258 
L 507.767925 133.949686 
L 508.514443 134.269542 
L 509.509799 135.398766 
L 510.256317 136.325575 
L 511.251673 140.163267 
L 511.998191 140.896068 
L 512.744708 142.762094 
L 513.740065 143.421494 
L 514.486582 145.501045 
L 514.735421 145.927778 
L 515.481939 146.24084 
L 515.979617 146.614897 
L 516.228456 146.683952 
L 517.223813 146.379179 
L 517.97033 145.399233 
L 518.219169 144.935943 
L 518.965687 144.387163 
L 519.712204 141.741273 
L 519.961043 140.698835 
L 520.707561 139.571281 
L 521.702917 135.28521 
L 522.698274 134.428865 
L 523.444791 131.912449 
L 524.191309 131.205468 
L 525.186665 128.702926 
L 525.933183 128.12634 
L 526.928539 126.046702 
L 527.675057 125.66591 
L 528.172735 124.934433 
L 528.670413 124.649982 
L 529.416931 124.443999 
L 530.163448 123.537684 
L 530.412287 123.152257 
L 531.158805 122.757129 
L 531.905322 121.280445 
L 532.900679 120.659703 
L 533.896035 118.346737 
L 534.642553 117.77372 
L 535.637909 115.684526 
L 536.384427 115.231743 
L 537.379784 113.597607 
L 538.126301 113.181984 
L 539.121658 111.747787 
L 539.868175 111.577957 
L 540.365853 110.185612 
L 540.863532 108.242415 
L 541.610049 107.176546 
L 542.107727 105.088446 
L 542.107727 105.088446 
" clip-path="url(#p473ddc45c8)" style="fill: none; stroke-dasharray: 5.55,2.4; stroke-dashoffset: 0; stroke: #ff0000; stroke-width: 1.5"/>
   </g>
   <g id="patch_3">
    <path d="M 57.17 246.04 
L 57.17 26.88 
" style="fill: none; stroke: #000000; stroke-width: 0.8; stroke-linejoin: miter; stroke-linecap: square"/>
   </g>
   <g id="patch_4">
    <path d="M 565.2 246.04 
L 565.2 26.88 
" style="fill: none; stroke: #000000; stroke-width: 0.8; stroke-linejoin: miter; stroke-linecap: square"/>
   </g>
   <g id="patch_5">
    <path d="M 57.17 246.04 
L 565.2 246.04 
" style="fill: none; stroke: #000000; stroke-width: 0.8; stroke-linejoin: miter; stroke-linecap: square"/>
   </g>
   <g id="patch_6">
    <path d="M 57.17 26.88 
L 565.2 26.88 
" style="fill: none; stroke: #000000; stroke-width: 0.8; stroke-linejoin: miter; stroke-linecap: square"/>
   </g>
   <g id="text_16">
    <!-- Real vs Predicted Stock Prices -->
    <g transform="translate(221.412812 20.88) scale(0.12 -0.12)">
     <defs>
      <path id="DejaVuSans-52" d="M 2841 2188 
Q 3044 2119 3236 1894 
Q 3428 1669 3622 1275 
L 4263 0 
L 3584 0 
L 2988 1197 
Q 2756 1666 2539 1819 
Q 2322 1972 1947 1972 
L 1259 1972 
L 1259 0 
L 628 0 
L 628 4666 
L 2053 4666 
Q 2853 4666 3247 4331 
Q 3641 3997 3641 3322 
Q 3641 2881 3436 2590 
Q 3231 2300 2841 2188 
z
M 1259 4147 
L 1259 2491 
L 2053 2491 
Q 2509 2491 2742 2702 
Q 2975 2913 2975 3322 
Q 2975 3731 2742 3939 
Q 2509 4147 2053 4147 
L 1259 4147 
z
" transform="scale(0.015625)"/>
      <path id="DejaVuSans-6c" d="M 603 4863 
L 1178 4863 
L 1178 0 
L 603 0 
L 603 4863 
z
" transform="scale(0.015625)"/>
      <path id="DejaVuSans-76" d="M 191 3500 
L 800 3500 
L 1894 563 
L 2988 3500 
L 3597 3500 
L 2284 0 
L 1503 0 
L 191 3500 
z
" transform="scale(0.015625)"/>
      <path id="DejaVuSans-73" d="M 2834 3397 
L 2834 2853 
Q 2591 2978 2328 3040 
Q 2066 3103 1784 3103 
Q 1356 3103 1142 2972 
Q 928 2841 928 2578 
Q 928 2378 1081 2264 
Q 1234 2150 1697 2047 
L 1894 2003 
Q 2506 1872 2764 1633 
Q 3022 1394 3022 966 
Q 3022 478 2636 193 
Q 2250 -91 1575 -91 
Q 1294 -91 989 -36 
Q 684 19 347 128 
L 347 722 
Q 666 556 975 473 
Q 1284 391 1588 391 
Q 1994 391 2212 530 
Q 2431 669 2431 922 
Q 2431 1156 2273 1281 
Q 2116 1406 1581 1522 
L 1381 1569 
Q 847 1681 609 1914 
Q 372 2147 372 2553 
Q 372 3047 722 3315 
Q 1072 3584 1716 3584 
Q 2034 3584 2315 3537 
Q 2597 3491 2834 3397 
z
" transform="scale(0.015625)"/>
      <path id="DejaVuSans-64" d="M 2906 2969 
L 2906 4863 
L 3481 4863 
L 3481 0 
L 2906 0 
L 2906 525 
Q 2725 213 2448 61 
Q 2172 -91 1784 -91 
Q 1150 -91 751 415 
Q 353 922 353 1747 
Q 353 2572 751 3078 
Q 1150 3584 1784 3584 
Q 2172 3584 2448 3432 
Q 2725 3281 2906 2969 
z
M 947 1747 
Q 947 1113 1208 752 
Q 1469 391 1925 391 
Q 2381 391 2643 752 
Q 2906 1113 2906 1747 
Q 2906 2381 2643 2742 
Q 2381 3103 1925 3103 
Q 1469 3103 1208 2742 
Q 947 2381 947 1747 
z
" transform="scale(0.015625)"/>
     </defs>
     <use xlink:href="#DejaVuSans-52"/>
     <use xlink:href="#DejaVuSans-65" x="64.982422"/>
     <use xlink:href="#DejaVuSans-61" x="126.505859"/>
     <use xlink:href="#DejaVuSans-6c" x="187.785156"/>
     <use xlink:href="#DejaVuSans-20" x="215.568359"/>
     <use xlink:href="#DejaVuSans-76" x="247.355469"/>
     <use xlink:href="#DejaVuSans-73" x="306.535156"/>
     <use xlink:href="#DejaVuSans-20" x="358.634766"/>
     <use xlink:href="#DejaVuSans-50" x="390.421875"/>
     <use xlink:href="#DejaVuSans-72" x="448.974609"/>
     <use xlink:href="#DejaVuSans-65" x="487.837891"/>
     <use xlink:href="#DejaVuSans-64" x="549.361328"/>
     <use xlink:href="#DejaVuSans-69" x="612.837891"/>
     <use xlink:href="#DejaVuSans-63" x="640.621094"/>
     <use xlink:href="#DejaVuSans-74" x="695.601562"/>
     <use xlink:href="#DejaVuSans-65" x="734.810547"/>
     <use xlink:href="#DejaVuSans-64" x="796.333984"/>
     <use xlink:href="#DejaVuSans-20" x="859.810547"/>
     <use xlink:href="#DejaVuSans-53" x="891.597656"/>
     <use xlink:href="#DejaVuSans-74" x="955.074219"/>
     <use xlink:href="#DejaVuSans-6f" x="994.283203"/>
     <use xlink:href="#DejaVuSans-63" x="1055.464844"/>
     <use xlink:href="#DejaVuSans-6b" x="1110.445312"/>
     <use xlink:href="#DejaVuSans-20" x="1168.355469"/>
     <use xlink:href="#DejaVuSans-50" x="1200.142578"/>
     <use xlink:href="#DejaVuSans-72" x="1258.695312"/>
     <use xlink:href="#DejaVuSans-69" x="1299.808594"/>
     <use xlink:href="#DejaVuSans-63" x="1327.591797"/>
     <use xlink:href="#DejaVuSans-65" x="1382.572266"/>
     <use xlink:href="#DejaVuSans-73" x="1444.095703"/>
    </g>
   </g>
   <g id="legend_1">
    <g id="patch_7">
     <path d="M 64.17 64.23625 
L 175.893438 64.23625 
Q 177.893438 64.23625 177.893438 62.23625 
L 177.893438 33.88 
Q 177.893438 31.88 175.893438 31.88 
L 64.17 31.88 
Q 62.17 31.88 62.17 33.88 
L 62.17 62.23625 
Q 62.17 64.23625 64.17 64.23625 
z
" style="fill: #ffffff; opacity: 0.8; stroke: #cccccc; stroke-linejoin: miter"/>
    </g>
    <g id="line2d_16">
     <path d="M 66.17 39.978438 
L 76.17 39.978438 
L 86.17 39.978438 
" style="fill: none; stroke: #0000ff; stroke-width: 1.5; stroke-linecap: square"/>
    </g>
    <g id="text_17">
     <!-- Real Prices -->
     <g transform="translate(94.17 43.478438) scale(0.1 -0.1)">
      <use xlink:href="#DejaVuSans-52"/>
      <use xlink:href="#DejaVuSans-65" x="64.982422"/>
      <use xlink:href="#DejaVuSans-61" x="126.505859"/>
      <use xlink:href="#DejaVuSans-6c" x="187.785156"/>
      <use xlink:href="#DejaVuSans-20" x="215.568359"/>
      <use xlink:href="#DejaVuSans-50" x="247.355469"/>
      <use xlink:href="#DejaVuSans-72" x="305.908203"/>
      <use xlink:href="#DejaVuSans-69" x="347.021484"/>
      <use xlink:href="#DejaVuSans-63" x="374.804688"/>
      <use xlink:href="#DejaVuSans-65" x="429.785156"/>
      <use xlink:href="#DejaVuSans-73" x="491.308594"/>
     </g>
    </g>
    <g id="line2d_17">
     <path d="M 66.17 54.656563 
L 76.17 54.656563 
L 86.17 54.656563 
" style="fill: none; stroke-dasharray: 5.55,2.4; stroke-dashoffset: 0; stroke: #ff0000; stroke-width: 1.5"/>
    </g>
    <g id="text_18">
     <!-- Predicted Prices -->
     <g transform="translate(94.17 58.156563) scale(0.1 -0.1)">
      <use xlink:href="#DejaVuSans-50"/>
      <use xlink:href="#DejaVuSans-72" x="58.552734"/>
      <use xlink:href="#DejaVuSans-65" x="97.416016"/>
      <use xlink:href="#DejaVuSans-64" x="158.939453"/>
      <use xlink:href="#DejaVuSans-69" x="222.416016"/>
      <use xlink:href="#DejaVuSans-63" x="250.199219"/>
      <use xlink:href="#DejaVuSans-74" x="305.179688"/>
      <use xlink:href="#DejaVuSans-65" x="344.388672"/>
      <use xlink:href="#DejaVuSans-64" x="405.912109"/>
      <use xlink:href="#DejaVuSans-20" x="469.388672"/>
      <use xlink:href="#DejaVuSans-50" x="501.175781"/>
      <use xlink:href="#DejaVuSans-72" x="559.728516"/>
      <use xlink:href="#DejaVuSans-69" x="600.841797"/>
      <use xlink:href="#DejaVuSans-63" x="628.625"/>
      <use xlink:href="#DejaVuSans-65" x="683.605469"/>
      <use xlink:href="#DejaVuSans-73" x="745.128906"/>
     </g>
    </g>
   </g>
  </g>
 </g>
 <defs>
  <clipPath id="p473ddc45c8">
   <rect x="57.17" y="26.88" width="508.03" height="219.16"/>
  </clipPath>
 </defs>
</svg>
